<ttFont>
<head>
    <!-- Most of this table will be recalculated by the compiler -->
    <tableVersion value="1.0"/>
    <fontRevision value="1.002"/>
    <checkSumAdjustment value="0xb03cccd6"/>
    <magicNumber value="0x5f0f3cf5"/>
    <flags value="00000000 00001111"/>
    <unitsPerEm value="1000"/>
    <created value="Sun Jun 13 15:20:27 2021"/>
    <modified value="Mon Jun 14 15:25:31 2021"/>
    <xMin value="-123"/>
    <yMin value="-265"/>
    <xMax value="1121"/>
    <yMax value="1177"/>
    <macStyle value="00000000 00000000"/>
    <lowestRecPPEM value="6"/>
    <fontDirectionHint value="2"/>
    <indexToLocFormat value="0"/>
    <glyphDataFormat value="0"/>
  </head>
    <TTGlyph name=".notdef" xMin="50" yMin="-265" xMax="450" yMax="1000">
      <contour>
        <pt x="50" y="-265" on="1"/>
        <pt x="50" y="1000" on="1"/>
        <pt x="450" y="1000" on="1"/>
        <pt x="450" y="-265" on="1"/>
      </contour>
      <contour>
        <pt x="100" y="-215" on="1"/>
        <pt x="400" y="-215" on="1"/>
        <pt x="400" y="950" on="1"/>
        <pt x="100" y="950" on="1"/>
      </contour>
    </TTGlyph>
    <TTGlyph name="A" xMin="45" yMin="0" xMax="667" yMax="740">
      <contour>
        <pt x="45" y="0" on="1"/>
        <pt x="308" y="740" on="1"/>
        <pt x="403" y="740" on="1"/>
        <pt x="667" y="0" on="1"/>
        <pt x="585" y="0" on="1"/>
        <pt x="518" y="191" on="1"/>
        <pt x="194" y="191" on="1"/>
        <pt x="127" y="0" on="1"/>
      </contour>
      <contour>
        <pt x="218" y="261" on="1"/>
        <pt x="494" y="261" on="1"/>
        <pt x="356" y="651" on="1"/>
      </contour>
    </TTGlyph>
    <TTGlyph name="AE" xMin="45" yMin="0" xMax="926" yMax="740">
      <contour>
        <pt x="45" y="0" on="1"/>
        <pt x="428" y="740" on="1"/>
        <pt x="921" y="740" on="1"/>
        <pt x="921" y="671" on="1"/>
        <pt x="545" y="671" on="1"/>
        <pt x="545" y="412" on="1"/>
        <pt x="874" y="412" on="1"/>
        <pt x="874" y="343" on="1"/>
        <pt x="545" y="343" on="1"/>
        <pt x="545" y="69" on="1"/>
        <pt x="926" y="69" on="1"/>
        <pt x="926" y="0" on="1"/>
        <pt x="468" y="0" on="1"/>
        <pt x="468" y="191" on="1"/>
        <pt x="226" y="191" on="1"/>
        <pt x="127" y="0" on="1"/>
      </contour>
      <contour>
        <pt x="262" y="261" on="1"/>
        <pt x="468" y="261" on="1"/>
        <pt x="468" y="659" on="1"/>
      </contour>
    </TTGlyph>
    <TTGlyph name="Aacute" xMin="43" yMin="0" xMax="665" yMax="994">
      <contour>
        <pt x="388" y="823" on="1"/>
        <pt x="323" y="823" on="1"/>
        <pt x="409" y="994" on="1"/>
        <pt x="488" y="994" on="1"/>
      </contour>
      <contour>
        <pt x="43" y="0" on="1"/>
        <pt x="306" y="740" on="1"/>
        <pt x="402" y="740" on="1"/>
        <pt x="665" y="0" on="1"/>
        <pt x="584" y="0" on="1"/>
        <pt x="516" y="191" on="1"/>
        <pt x="193" y="191" on="1"/>
        <pt x="125" y="0" on="1"/>
      </contour>
      <contour>
        <pt x="216" y="261" on="1"/>
        <pt x="492" y="261" on="1"/>
        <pt x="354" y="651" on="1"/>
      </contour>
    </TTGlyph>
    <TTGlyph name="Abreve" xMin="43" yMin="0" xMax="665" yMax="949">
      <contour>
        <pt x="354" y="818" on="1"/>
        <pt x="310" y="818" on="0"/>
        <pt x="254" y="844" on="0"/>
        <pt x="221" y="883" on="0"/>
        <pt x="207" y="922" on="0"/>
        <pt x="203" y="949" on="0"/>
        <pt x="203" y="949" on="1"/>
        <pt x="261" y="949" on="1"/>
        <pt x="261" y="949" on="0"/>
        <pt x="266" y="925" on="0"/>
        <pt x="283" y="893" on="0"/>
        <pt x="321" y="869" on="0"/>
        <pt x="354" y="869" on="1"/>
        <pt x="387" y="869" on="0"/>
        <pt x="425" y="893" on="0"/>
        <pt x="443" y="925" on="0"/>
        <pt x="448" y="949" on="0"/>
        <pt x="448" y="949" on="1"/>
        <pt x="506" y="949" on="1"/>
        <pt x="506" y="949" on="0"/>
        <pt x="502" y="922" on="0"/>
        <pt x="487" y="883" on="0"/>
        <pt x="455" y="844" on="0"/>
        <pt x="398" y="818" on="0"/>
      </contour>
      <contour>
        <pt x="43" y="0" on="1"/>
        <pt x="306" y="740" on="1"/>
        <pt x="402" y="740" on="1"/>
        <pt x="665" y="0" on="1"/>
        <pt x="584" y="0" on="1"/>
        <pt x="516" y="191" on="1"/>
        <pt x="193" y="191" on="1"/>
        <pt x="125" y="0" on="1"/>
      </contour>
      <contour>
        <pt x="216" y="261" on="1"/>
        <pt x="492" y="261" on="1"/>
        <pt x="354" y="651" on="1"/>
      </contour>
    </TTGlyph>
    <TTGlyph name="Acircumflex" xMin="43" yMin="0" xMax="665" yMax="961">
      <contour>
        <pt x="204" y="817" on="1"/>
        <pt x="322" y="961" on="1"/>
        <pt x="388" y="961" on="1"/>
        <pt x="506" y="817" on="1"/>
        <pt x="436" y="817" on="1"/>
        <pt x="355" y="916" on="1"/>
        <pt x="274" y="817" on="1"/>
      </contour>
      <contour>
        <pt x="43" y="0" on="1"/>
        <pt x="306" y="740" on="1"/>
        <pt x="402" y="740" on="1"/>
        <pt x="665" y="0" on="1"/>
        <pt x="584" y="0" on="1"/>
        <pt x="516" y="191" on="1"/>
        <pt x="193" y="191" on="1"/>
        <pt x="125" y="0" on="1"/>
      </contour>
      <contour>
        <pt x="216" y="261" on="1"/>
        <pt x="492" y="261" on="1"/>
        <pt x="354" y="651" on="1"/>
      </contour>
    </TTGlyph>
    <TTGlyph name="Adieresis" xMin="43" yMin="0" xMax="665" yMax="933">
      <contour>
        <pt x="441" y="827" on="1"/>
        <pt x="418" y="827" on="0"/>
        <pt x="388" y="859" on="0"/>
        <pt x="388" y="880" on="1"/>
        <pt x="388" y="902" on="0"/>
        <pt x="418" y="933" on="0"/>
        <pt x="441" y="933" on="1"/>
        <pt x="463" y="933" on="0"/>
        <pt x="494" y="902" on="0"/>
        <pt x="494" y="880" on="1"/>
        <pt x="494" y="858" on="0"/>
        <pt x="463" y="827" on="0"/>
      </contour>
      <contour>
        <pt x="268" y="827" on="1"/>
        <pt x="245" y="827" on="0"/>
        <pt x="215" y="859" on="0"/>
        <pt x="215" y="880" on="1"/>
        <pt x="215" y="902" on="0"/>
        <pt x="245" y="933" on="0"/>
        <pt x="268" y="933" on="1"/>
        <pt x="290" y="933" on="0"/>
        <pt x="321" y="902" on="0"/>
        <pt x="321" y="880" on="1"/>
        <pt x="321" y="858" on="0"/>
        <pt x="290" y="827" on="0"/>
      </contour>
      <contour>
        <pt x="43" y="0" on="1"/>
        <pt x="306" y="740" on="1"/>
        <pt x="402" y="740" on="1"/>
        <pt x="665" y="0" on="1"/>
        <pt x="584" y="0" on="1"/>
        <pt x="516" y="191" on="1"/>
        <pt x="193" y="191" on="1"/>
        <pt x="125" y="0" on="1"/>
      </contour>
      <contour>
        <pt x="216" y="261" on="1"/>
        <pt x="492" y="261" on="1"/>
        <pt x="354" y="651" on="1"/>
      </contour>
    </TTGlyph>
    <TTGlyph name="Agrave" xMin="43" yMin="0" xMax="665" yMax="994">
      <contour>
        <pt x="324" y="823" on="1"/>
        <pt x="224" y="994" on="1"/>
        <pt x="303" y="994" on="1"/>
        <pt x="389" y="823" on="1"/>
      </contour>
      <contour>
        <pt x="43" y="0" on="1"/>
        <pt x="306" y="740" on="1"/>
        <pt x="402" y="740" on="1"/>
        <pt x="665" y="0" on="1"/>
        <pt x="584" y="0" on="1"/>
        <pt x="516" y="191" on="1"/>
        <pt x="193" y="191" on="1"/>
        <pt x="125" y="0" on="1"/>
      </contour>
      <contour>
        <pt x="216" y="261" on="1"/>
        <pt x="492" y="261" on="1"/>
        <pt x="354" y="651" on="1"/>
      </contour>
    </TTGlyph>
    <TTGlyph name="Amacron" xMin="43" yMin="0" xMax="665" yMax="898">
      <contour>
        <pt x="206" y="840" on="1"/>
        <pt x="206" y="898" on="1"/>
        <pt x="502" y="898" on="1"/>
        <pt x="502" y="840" on="1"/>
      </contour>
      <contour>
        <pt x="43" y="0" on="1"/>
        <pt x="306" y="740" on="1"/>
        <pt x="402" y="740" on="1"/>
        <pt x="665" y="0" on="1"/>
        <pt x="584" y="0" on="1"/>
        <pt x="516" y="191" on="1"/>
        <pt x="193" y="191" on="1"/>
        <pt x="125" y="0" on="1"/>
      </contour>
      <contour>
        <pt x="216" y="261" on="1"/>
        <pt x="492" y="261" on="1"/>
        <pt x="354" y="651" on="1"/>
      </contour>
    </TTGlyph>
    <TTGlyph name="Aogonek" xMin="43" yMin="-163" xMax="707" yMax="740">
      <contour>
        <pt x="43" y="0" on="1"/>
        <pt x="306" y="740" on="1"/>
        <pt x="402" y="740" on="1"/>
        <pt x="665" y="0" on="1"/>
        <pt x="665" y="0" on="0"/>
        <pt x="638" y="-14" on="0"/>
        <pt x="610" y="-44" on="0"/>
        <pt x="610" y="-66" on="1"/>
        <pt x="610" y="-85" on="0"/>
        <pt x="639" y="-111" on="0"/>
        <pt x="669" y="-111" on="1"/>
        <pt x="683" y="-111" on="0"/>
        <pt x="707" y="-106" on="0"/>
        <pt x="707" y="-106" on="1"/>
        <pt x="707" y="-157" on="1"/>
        <pt x="707" y="-157" on="0"/>
        <pt x="678" y="-163" on="0"/>
        <pt x="657" y="-163" on="1"/>
        <pt x="603" y="-163" on="0"/>
        <pt x="548" y="-114" on="0"/>
        <pt x="548" y="-78" on="1"/>
        <pt x="548" y="-49" on="0"/>
        <pt x="578" y="-11" on="0"/>
        <pt x="595" y="0" on="1"/>
        <pt x="584" y="0" on="1"/>
        <pt x="516" y="191" on="1"/>
        <pt x="193" y="191" on="1"/>
        <pt x="125" y="0" on="1"/>
      </contour>
      <contour>
        <pt x="216" y="261" on="1"/>
        <pt x="492" y="261" on="1"/>
        <pt x="354" y="651" on="1"/>
      </contour>
    </TTGlyph>
    <TTGlyph name="Aring" xMin="43" yMin="0" xMax="665" yMax="1049">
      <contour>
        <pt x="354" y="816" on="1"/>
        <pt x="322" y="816" on="0"/>
        <pt x="269" y="847" on="0"/>
        <pt x="237" y="900" on="0"/>
        <pt x="237" y="932" on="1"/>
        <pt x="237" y="965" on="0"/>
        <pt x="269" y="1018" on="0"/>
        <pt x="322" y="1049" on="0"/>
        <pt x="354" y="1049" on="1"/>
        <pt x="386" y="1049" on="0"/>
        <pt x="439" y="1018" on="0"/>
        <pt x="471" y="965" on="0"/>
        <pt x="471" y="932" on="1"/>
        <pt x="471" y="900" on="0"/>
        <pt x="439" y="847" on="0"/>
        <pt x="386" y="816" on="0"/>
      </contour>
      <contour>
        <pt x="354" y="871" on="1"/>
        <pt x="380" y="871" on="0"/>
        <pt x="415" y="907" on="0"/>
        <pt x="415" y="932" on="1"/>
        <pt x="415" y="958" on="0"/>
        <pt x="380" y="994" on="0"/>
        <pt x="354" y="994" on="1"/>
        <pt x="329" y="994" on="0"/>
        <pt x="293" y="958" on="0"/>
        <pt x="293" y="932" on="1"/>
        <pt x="293" y="907" on="0"/>
        <pt x="329" y="871" on="0"/>
      </contour>
      <contour>
        <pt x="43" y="0" on="1"/>
        <pt x="306" y="740" on="1"/>
        <pt x="402" y="740" on="1"/>
        <pt x="665" y="0" on="1"/>
        <pt x="584" y="0" on="1"/>
        <pt x="516" y="191" on="1"/>
        <pt x="193" y="191" on="1"/>
        <pt x="125" y="0" on="1"/>
      </contour>
      <contour>
        <pt x="216" y="261" on="1"/>
        <pt x="492" y="261" on="1"/>
        <pt x="354" y="651" on="1"/>
      </contour>
    </TTGlyph>
    <TTGlyph name="Atilde" xMin="43" yMin="0" xMax="665" yMax="955">
      <contour>
        <pt x="420" y="828" on="1"/>
        <pt x="394" y="828" on="0"/>
        <pt x="359" y="850" on="0"/>
        <pt x="333" y="878" on="0"/>
        <pt x="309" y="899" on="0"/>
        <pt x="294" y="899" on="1"/>
        <pt x="276" y="899" on="0"/>
        <pt x="261" y="864" on="0"/>
        <pt x="261" y="834" on="1"/>
        <pt x="208" y="834" on="1"/>
        <pt x="208" y="864" on="0"/>
        <pt x="223" y="920" on="0"/>
        <pt x="259" y="955" on="0"/>
        <pt x="290" y="955" on="1"/>
        <pt x="317" y="955" on="0"/>
        <pt x="352" y="934" on="0"/>
        <pt x="378" y="906" on="0"/>
        <pt x="402" y="885" on="0"/>
        <pt x="416" y="885" on="1"/>
        <pt x="432" y="885" on="0"/>
        <pt x="448" y="920" on="0"/>
        <pt x="448" y="950" on="1"/>
        <pt x="501" y="950" on="1"/>
        <pt x="501" y="920" on="0"/>
        <pt x="486" y="864" on="0"/>
        <pt x="451" y="828" on="0"/>
      </contour>
      <contour>
        <pt x="43" y="0" on="1"/>
        <pt x="306" y="740" on="1"/>
        <pt x="402" y="740" on="1"/>
        <pt x="665" y="0" on="1"/>
        <pt x="584" y="0" on="1"/>
        <pt x="516" y="191" on="1"/>
        <pt x="193" y="191" on="1"/>
        <pt x="125" y="0" on="1"/>
      </contour>
      <contour>
        <pt x="216" y="261" on="1"/>
        <pt x="492" y="261" on="1"/>
        <pt x="354" y="651" on="1"/>
      </contour>
    </TTGlyph>
    <TTGlyph name="B" xMin="83" yMin="0" xMax="606" yMax="740">
      <contour>
        <pt x="83" y="0" on="1"/>
        <pt x="83" y="740" on="1"/>
        <pt x="363" y="740" on="1"/>
        <pt x="432" y="740" on="0"/>
        <pt x="528" y="687" on="0"/>
        <pt x="579" y="602" on="0"/>
        <pt x="579" y="553" on="1"/>
        <pt x="579" y="504" on="0"/>
        <pt x="543" y="435" on="0"/>
        <pt x="492" y="393" on="0"/>
        <pt x="469" y="386" on="1"/>
        <pt x="469" y="380" on="1"/>
        <pt x="501" y="371" on="0"/>
        <pt x="564" y="328" on="0"/>
        <pt x="606" y="256" on="0"/>
        <pt x="606" y="204" on="1"/>
        <pt x="606" y="153" on="0"/>
        <pt x="557" y="60" on="0"/>
        <pt x="452" y="0" on="0"/>
        <pt x="367" y="0" on="1"/>
      </contour>
      <contour>
        <pt x="360" y="672" on="1"/>
        <pt x="160" y="672" on="1"/>
        <pt x="160" y="409" on="1"/>
        <pt x="360" y="409" on="1"/>
        <pt x="410" y="409" on="0"/>
        <pt x="474" y="448" on="0"/>
        <pt x="504" y="508" on="0"/>
        <pt x="504" y="541" on="1"/>
        <pt x="504" y="574" on="0"/>
        <pt x="474" y="634" on="0"/>
        <pt x="410" y="672" on="0"/>
      </contour>
      <contour>
        <pt x="365" y="346" on="1"/>
        <pt x="160" y="346" on="1"/>
        <pt x="160" y="68" on="1"/>
        <pt x="365" y="68" on="1"/>
        <pt x="423" y="68" on="0"/>
        <pt x="495" y="109" on="0"/>
        <pt x="529" y="173" on="0"/>
        <pt x="529" y="207" on="1"/>
        <pt x="529" y="242" on="0"/>
        <pt x="495" y="305" on="0"/>
        <pt x="423" y="346" on="0"/>
      </contour>
    </TTGlyph>
    <TTGlyph name="C" xMin="57" yMin="-10" xMax="711" yMax="750">
      <contour>
        <pt x="402" y="-10" on="1"/>
        <pt x="316" y="-10" on="0"/>
        <pt x="186" y="55" on="0"/>
        <pt x="100" y="164" on="0"/>
        <pt x="57" y="299" on="0"/>
        <pt x="57" y="370" on="1"/>
        <pt x="57" y="441" on="0"/>
        <pt x="100" y="577" on="0"/>
        <pt x="186" y="686" on="0"/>
        <pt x="316" y="750" on="0"/>
        <pt x="402" y="750" on="1"/>
        <pt x="472" y="750" on="0"/>
        <pt x="573" y="714" on="0"/>
        <pt x="641" y="656" on="0"/>
        <pt x="683" y="592" on="0"/>
        <pt x="704" y="534" on="0"/>
        <pt x="711" y="498" on="0"/>
        <pt x="711" y="498" on="1"/>
        <pt x="633" y="498" on="1"/>
        <pt x="633" y="498" on="0"/>
        <pt x="625" y="534" on="0"/>
        <pt x="599" y="588" on="0"/>
        <pt x="548" y="642" on="0"/>
        <pt x="465" y="678" on="0"/>
        <pt x="402" y="678" on="1"/>
        <pt x="336" y="678" on="0"/>
        <pt x="236" y="626" on="0"/>
        <pt x="169" y="537" on="0"/>
        <pt x="135" y="428" on="0"/>
        <pt x="135" y="370" on="1"/>
        <pt x="135" y="313" on="0"/>
        <pt x="169" y="203" on="0"/>
        <pt x="236" y="114" on="0"/>
        <pt x="336" y="62" on="0"/>
        <pt x="402" y="62" on="1"/>
        <pt x="465" y="62" on="0"/>
        <pt x="548" y="98" on="0"/>
        <pt x="599" y="152" on="0"/>
        <pt x="625" y="206" on="0"/>
        <pt x="633" y="243" on="0"/>
        <pt x="633" y="243" on="1"/>
        <pt x="711" y="243" on="1"/>
        <pt x="711" y="243" on="0"/>
        <pt x="704" y="206" on="0"/>
        <pt x="683" y="149" on="0"/>
        <pt x="641" y="84" on="0"/>
        <pt x="573" y="26" on="0"/>
        <pt x="472" y="-10" on="0"/>
      </contour>
    </TTGlyph>
    <TTGlyph name="Cacute" xMin="57" yMin="-10" xMax="711" yMax="994">
      <contour>
        <pt x="436" y="823" on="1"/>
        <pt x="370" y="823" on="1"/>
        <pt x="456" y="994" on="1"/>
        <pt x="535" y="994" on="1"/>
      </contour>
      <contour>
        <pt x="402" y="-10" on="1"/>
        <pt x="316" y="-10" on="0"/>
        <pt x="186" y="55" on="0"/>
        <pt x="100" y="164" on="0"/>
        <pt x="57" y="299" on="0"/>
        <pt x="57" y="370" on="1"/>
        <pt x="57" y="441" on="0"/>
        <pt x="100" y="577" on="0"/>
        <pt x="186" y="686" on="0"/>
        <pt x="316" y="750" on="0"/>
        <pt x="402" y="750" on="1"/>
        <pt x="472" y="750" on="0"/>
        <pt x="573" y="714" on="0"/>
        <pt x="641" y="656" on="0"/>
        <pt x="683" y="592" on="0"/>
        <pt x="704" y="534" on="0"/>
        <pt x="711" y="498" on="0"/>
        <pt x="711" y="498" on="1"/>
        <pt x="633" y="498" on="1"/>
        <pt x="633" y="498" on="0"/>
        <pt x="625" y="534" on="0"/>
        <pt x="599" y="588" on="0"/>
        <pt x="548" y="642" on="0"/>
        <pt x="465" y="678" on="0"/>
        <pt x="402" y="678" on="1"/>
        <pt x="336" y="678" on="0"/>
        <pt x="236" y="626" on="0"/>
        <pt x="169" y="537" on="0"/>
        <pt x="135" y="428" on="0"/>
        <pt x="135" y="370" on="1"/>
        <pt x="135" y="313" on="0"/>
        <pt x="169" y="203" on="0"/>
        <pt x="236" y="114" on="0"/>
        <pt x="336" y="62" on="0"/>
        <pt x="402" y="62" on="1"/>
        <pt x="465" y="62" on="0"/>
        <pt x="548" y="98" on="0"/>
        <pt x="599" y="152" on="0"/>
        <pt x="625" y="206" on="0"/>
        <pt x="633" y="243" on="0"/>
        <pt x="633" y="243" on="1"/>
        <pt x="711" y="243" on="1"/>
        <pt x="711" y="243" on="0"/>
        <pt x="704" y="206" on="0"/>
        <pt x="683" y="149" on="0"/>
        <pt x="641" y="84" on="0"/>
        <pt x="573" y="26" on="0"/>
        <pt x="472" y="-10" on="0"/>
      </contour>
    </TTGlyph>
    <TTGlyph name="Ccaron" xMin="57" yMin="-10" xMax="711" yMax="971">
      <contour>
        <pt x="369" y="809" on="1"/>
        <pt x="251" y="971" on="1"/>
        <pt x="321" y="971" on="1"/>
        <pt x="402" y="858" on="1"/>
        <pt x="483" y="971" on="1"/>
        <pt x="553" y="971" on="1"/>
        <pt x="435" y="809" on="1"/>
      </contour>
      <contour>
        <pt x="402" y="-10" on="1"/>
        <pt x="316" y="-10" on="0"/>
        <pt x="186" y="55" on="0"/>
        <pt x="100" y="164" on="0"/>
        <pt x="57" y="299" on="0"/>
        <pt x="57" y="370" on="1"/>
        <pt x="57" y="441" on="0"/>
        <pt x="100" y="577" on="0"/>
        <pt x="186" y="686" on="0"/>
        <pt x="316" y="750" on="0"/>
        <pt x="402" y="750" on="1"/>
        <pt x="472" y="750" on="0"/>
        <pt x="573" y="714" on="0"/>
        <pt x="641" y="656" on="0"/>
        <pt x="683" y="592" on="0"/>
        <pt x="704" y="534" on="0"/>
        <pt x="711" y="498" on="0"/>
        <pt x="711" y="498" on="1"/>
        <pt x="633" y="498" on="1"/>
        <pt x="633" y="498" on="0"/>
        <pt x="625" y="534" on="0"/>
        <pt x="599" y="588" on="0"/>
        <pt x="548" y="642" on="0"/>
        <pt x="465" y="678" on="0"/>
        <pt x="402" y="678" on="1"/>
        <pt x="336" y="678" on="0"/>
        <pt x="236" y="626" on="0"/>
        <pt x="169" y="537" on="0"/>
        <pt x="135" y="428" on="0"/>
        <pt x="135" y="370" on="1"/>
        <pt x="135" y="313" on="0"/>
        <pt x="169" y="203" on="0"/>
        <pt x="236" y="114" on="0"/>
        <pt x="336" y="62" on="0"/>
        <pt x="402" y="62" on="1"/>
        <pt x="465" y="62" on="0"/>
        <pt x="548" y="98" on="0"/>
        <pt x="599" y="152" on="0"/>
        <pt x="625" y="206" on="0"/>
        <pt x="633" y="243" on="0"/>
        <pt x="633" y="243" on="1"/>
        <pt x="711" y="243" on="1"/>
        <pt x="711" y="243" on="0"/>
        <pt x="704" y="206" on="0"/>
        <pt x="683" y="149" on="0"/>
        <pt x="641" y="84" on="0"/>
        <pt x="573" y="26" on="0"/>
        <pt x="472" y="-10" on="0"/>
      </contour>
    </TTGlyph>
    <TTGlyph name="Ccedilla" xMin="57" yMin="-256" xMax="711" yMax="750">
      <contour>
        <pt x="398" y="-256" on="1"/>
        <pt x="374" y="-256" on="0"/>
        <pt x="331" y="-249" on="0"/>
        <pt x="331" y="-249" on="1"/>
        <pt x="331" y="-200" on="1"/>
        <pt x="331" y="-200" on="0"/>
        <pt x="375" y="-207" on="0"/>
        <pt x="396" y="-207" on="1"/>
        <pt x="438" y="-207" on="0"/>
        <pt x="470" y="-171" on="0"/>
        <pt x="470" y="-152" on="1"/>
        <pt x="470" y="-134" on="0"/>
        <pt x="442" y="-105" on="0"/>
        <pt x="413" y="-105" on="1"/>
        <pt x="387" y="-105" on="0"/>
        <pt x="355" y="-125" on="0"/>
        <pt x="355" y="-125" on="1"/>
        <pt x="324" y="-94" on="1"/>
        <pt x="373" y="-9" on="1"/>
        <pt x="294" y="-3" on="0"/>
        <pt x="176" y="65" on="0"/>
        <pt x="96" y="172" on="0"/>
        <pt x="57" y="302" on="0"/>
        <pt x="57" y="370" on="1"/>
        <pt x="57" y="441" on="0"/>
        <pt x="100" y="577" on="0"/>
        <pt x="186" y="686" on="0"/>
        <pt x="316" y="750" on="0"/>
        <pt x="402" y="750" on="1"/>
        <pt x="472" y="750" on="0"/>
        <pt x="573" y="714" on="0"/>
        <pt x="641" y="656" on="0"/>
        <pt x="683" y="592" on="0"/>
        <pt x="704" y="534" on="0"/>
        <pt x="711" y="498" on="0"/>
        <pt x="711" y="498" on="1"/>
        <pt x="633" y="498" on="1"/>
        <pt x="633" y="498" on="0"/>
        <pt x="625" y="534" on="0"/>
        <pt x="599" y="588" on="0"/>
        <pt x="548" y="642" on="0"/>
        <pt x="465" y="678" on="0"/>
        <pt x="402" y="678" on="1"/>
        <pt x="336" y="678" on="0"/>
        <pt x="236" y="626" on="0"/>
        <pt x="169" y="537" on="0"/>
        <pt x="135" y="428" on="0"/>
        <pt x="135" y="370" on="1"/>
        <pt x="135" y="313" on="0"/>
        <pt x="169" y="203" on="0"/>
        <pt x="236" y="114" on="0"/>
        <pt x="336" y="62" on="0"/>
        <pt x="402" y="62" on="1"/>
        <pt x="465" y="62" on="0"/>
        <pt x="548" y="98" on="0"/>
        <pt x="599" y="152" on="0"/>
        <pt x="625" y="206" on="0"/>
        <pt x="633" y="243" on="0"/>
        <pt x="633" y="243" on="1"/>
        <pt x="711" y="243" on="1"/>
        <pt x="711" y="243" on="0"/>
        <pt x="701" y="195" on="0"/>
        <pt x="670" y="123" on="0"/>
        <pt x="608" y="49" on="0"/>
        <pt x="505" y="-5" on="0"/>
        <pt x="428" y="-9" on="1"/>
        <pt x="390" y="-74" on="1"/>
        <pt x="407" y="-68" on="0"/>
        <pt x="429" y="-68" on="1"/>
        <pt x="475" y="-68" on="0"/>
        <pt x="525" y="-115" on="0"/>
        <pt x="525" y="-151" on="1"/>
        <pt x="525" y="-176" on="0"/>
        <pt x="499" y="-224" on="0"/>
        <pt x="443" y="-256" on="0"/>
      </contour>
    </TTGlyph>
    <TTGlyph name="Cdotaccent" xMin="57" yMin="-10" xMax="711" yMax="948">
      <contour>
        <pt x="401" y="842" on="1"/>
        <pt x="378" y="842" on="0"/>
        <pt x="348" y="874" on="0"/>
        <pt x="348" y="895" on="1"/>
        <pt x="348" y="917" on="0"/>
        <pt x="378" y="948" on="0"/>
        <pt x="401" y="948" on="1"/>
        <pt x="424" y="948" on="0"/>
        <pt x="454" y="917" on="0"/>
        <pt x="454" y="895" on="1"/>
        <pt x="454" y="873" on="0"/>
        <pt x="424" y="842" on="0"/>
      </contour>
      <contour>
        <pt x="402" y="-10" on="1"/>
        <pt x="316" y="-10" on="0"/>
        <pt x="186" y="55" on="0"/>
        <pt x="100" y="164" on="0"/>
        <pt x="57" y="299" on="0"/>
        <pt x="57" y="370" on="1"/>
        <pt x="57" y="441" on="0"/>
        <pt x="100" y="577" on="0"/>
        <pt x="186" y="686" on="0"/>
        <pt x="316" y="750" on="0"/>
        <pt x="402" y="750" on="1"/>
        <pt x="472" y="750" on="0"/>
        <pt x="573" y="714" on="0"/>
        <pt x="641" y="656" on="0"/>
        <pt x="683" y="592" on="0"/>
        <pt x="704" y="534" on="0"/>
        <pt x="711" y="498" on="0"/>
        <pt x="711" y="498" on="1"/>
        <pt x="633" y="498" on="1"/>
        <pt x="633" y="498" on="0"/>
        <pt x="625" y="534" on="0"/>
        <pt x="599" y="588" on="0"/>
        <pt x="548" y="642" on="0"/>
        <pt x="465" y="678" on="0"/>
        <pt x="402" y="678" on="1"/>
        <pt x="336" y="678" on="0"/>
        <pt x="236" y="626" on="0"/>
        <pt x="169" y="537" on="0"/>
        <pt x="135" y="428" on="0"/>
        <pt x="135" y="370" on="1"/>
        <pt x="135" y="313" on="0"/>
        <pt x="169" y="203" on="0"/>
        <pt x="236" y="114" on="0"/>
        <pt x="336" y="62" on="0"/>
        <pt x="402" y="62" on="1"/>
        <pt x="465" y="62" on="0"/>
        <pt x="548" y="98" on="0"/>
        <pt x="599" y="152" on="0"/>
        <pt x="625" y="206" on="0"/>
        <pt x="633" y="243" on="0"/>
        <pt x="633" y="243" on="1"/>
        <pt x="711" y="243" on="1"/>
        <pt x="711" y="243" on="0"/>
        <pt x="704" y="206" on="0"/>
        <pt x="683" y="149" on="0"/>
        <pt x="641" y="84" on="0"/>
        <pt x="573" y="26" on="0"/>
        <pt x="472" y="-10" on="0"/>
      </contour>
    </TTGlyph>
    <TTGlyph name="D" xMin="83" yMin="0" xMax="665" yMax="740">
      <contour>
        <pt x="83" y="0" on="1"/>
        <pt x="83" y="740" on="1"/>
        <pt x="314" y="740" on="1"/>
        <pt x="402" y="740" on="0"/>
        <pt x="534" y="677" on="0"/>
        <pt x="621" y="571" on="0"/>
        <pt x="665" y="439" on="0"/>
        <pt x="665" y="370" on="1"/>
        <pt x="665" y="301" on="0"/>
        <pt x="621" y="169" on="0"/>
        <pt x="534" y="63" on="0"/>
        <pt x="402" y="0" on="0"/>
        <pt x="314" y="0" on="1"/>
      </contour>
      <contour>
        <pt x="312" y="671" on="1"/>
        <pt x="160" y="671" on="1"/>
        <pt x="160" y="69" on="1"/>
        <pt x="312" y="69" on="1"/>
        <pt x="381" y="69" on="0"/>
        <pt x="484" y="120" on="0"/>
        <pt x="553" y="206" on="0"/>
        <pt x="587" y="314" on="0"/>
        <pt x="587" y="370" on="1"/>
        <pt x="587" y="426" on="0"/>
        <pt x="553" y="534" on="0"/>
        <pt x="484" y="620" on="0"/>
        <pt x="381" y="671" on="0"/>
      </contour>
    </TTGlyph>
    <TTGlyph name="Dcaron" xMin="90" yMin="0" xMax="671" yMax="971">
      <contour>
        <pt x="288" y="809" on="1"/>
        <pt x="170" y="971" on="1"/>
        <pt x="240" y="971" on="1"/>
        <pt x="321" y="858" on="1"/>
        <pt x="402" y="971" on="1"/>
        <pt x="472" y="971" on="1"/>
        <pt x="354" y="809" on="1"/>
      </contour>
      <contour>
        <pt x="90" y="0" on="1"/>
        <pt x="90" y="740" on="1"/>
        <pt x="321" y="740" on="1"/>
        <pt x="409" y="740" on="0"/>
        <pt x="540" y="677" on="0"/>
        <pt x="628" y="571" on="0"/>
        <pt x="671" y="439" on="0"/>
        <pt x="671" y="370" on="1"/>
        <pt x="671" y="301" on="0"/>
        <pt x="628" y="169" on="0"/>
        <pt x="540" y="63" on="0"/>
        <pt x="409" y="0" on="0"/>
        <pt x="321" y="0" on="1"/>
      </contour>
      <contour>
        <pt x="318" y="671" on="1"/>
        <pt x="167" y="671" on="1"/>
        <pt x="167" y="69" on="1"/>
        <pt x="318" y="69" on="1"/>
        <pt x="387" y="69" on="0"/>
        <pt x="491" y="120" on="0"/>
        <pt x="560" y="206" on="0"/>
        <pt x="594" y="314" on="0"/>
        <pt x="594" y="370" on="1"/>
        <pt x="594" y="426" on="0"/>
        <pt x="560" y="534" on="0"/>
        <pt x="491" y="620" on="0"/>
        <pt x="387" y="671" on="0"/>
      </contour>
    </TTGlyph>
    <TTGlyph name="Dcroat" xMin="37" yMin="0" xMax="720" yMax="740">
      <contour>
        <pt x="138" y="0" on="1"/>
        <pt x="138" y="335" on="1"/>
        <pt x="37" y="335" on="1"/>
        <pt x="37" y="405" on="1"/>
        <pt x="138" y="405" on="1"/>
        <pt x="138" y="740" on="1"/>
        <pt x="369" y="740" on="1"/>
        <pt x="457" y="740" on="0"/>
        <pt x="589" y="677" on="0"/>
        <pt x="676" y="571" on="0"/>
        <pt x="720" y="439" on="0"/>
        <pt x="720" y="370" on="1"/>
        <pt x="720" y="301" on="0"/>
        <pt x="676" y="169" on="0"/>
        <pt x="589" y="63" on="0"/>
        <pt x="457" y="0" on="0"/>
        <pt x="369" y="0" on="1"/>
      </contour>
      <contour>
        <pt x="377" y="335" on="1"/>
        <pt x="215" y="335" on="1"/>
        <pt x="215" y="69" on="1"/>
        <pt x="367" y="69" on="1"/>
        <pt x="436" y="69" on="0"/>
        <pt x="539" y="120" on="0"/>
        <pt x="608" y="206" on="0"/>
        <pt x="642" y="314" on="0"/>
        <pt x="642" y="370" on="1"/>
        <pt x="642" y="426" on="0"/>
        <pt x="608" y="534" on="0"/>
        <pt x="539" y="620" on="0"/>
        <pt x="436" y="671" on="0"/>
        <pt x="367" y="671" on="1"/>
        <pt x="215" y="671" on="1"/>
        <pt x="215" y="405" on="1"/>
        <pt x="377" y="405" on="1"/>
      </contour>
    </TTGlyph>
    <TTGlyph name="E" xMin="83" yMin="0" xMax="541" yMax="740">
      <contour>
        <pt x="83" y="0" on="1"/>
        <pt x="83" y="740" on="1"/>
        <pt x="536" y="740" on="1"/>
        <pt x="536" y="671" on="1"/>
        <pt x="160" y="671" on="1"/>
        <pt x="160" y="412" on="1"/>
        <pt x="489" y="412" on="1"/>
        <pt x="489" y="343" on="1"/>
        <pt x="160" y="343" on="1"/>
        <pt x="160" y="69" on="1"/>
        <pt x="541" y="69" on="1"/>
        <pt x="541" y="0" on="1"/>
      </contour>
    </TTGlyph>
    <TTGlyph name="Eacute" xMin="90" yMin="0" xMax="548" yMax="994">
      <contour>
        <pt x="355" y="823" on="1"/>
        <pt x="290" y="823" on="1"/>
        <pt x="376" y="994" on="1"/>
        <pt x="455" y="994" on="1"/>
      </contour>
      <contour>
        <pt x="90" y="0" on="1"/>
        <pt x="90" y="740" on="1"/>
        <pt x="542" y="740" on="1"/>
        <pt x="542" y="671" on="1"/>
        <pt x="167" y="671" on="1"/>
        <pt x="167" y="412" on="1"/>
        <pt x="495" y="412" on="1"/>
        <pt x="495" y="343" on="1"/>
        <pt x="167" y="343" on="1"/>
        <pt x="167" y="69" on="1"/>
        <pt x="548" y="69" on="1"/>
        <pt x="548" y="0" on="1"/>
      </contour>
    </TTGlyph>
    <TTGlyph name="Ecaron" xMin="90" yMin="0" xMax="548" yMax="971">
      <contour>
        <pt x="288" y="809" on="1"/>
        <pt x="171" y="971" on="1"/>
        <pt x="240" y="971" on="1"/>
        <pt x="321" y="858" on="1"/>
        <pt x="403" y="971" on="1"/>
        <pt x="472" y="971" on="1"/>
        <pt x="355" y="809" on="1"/>
      </contour>
      <contour>
        <pt x="90" y="0" on="1"/>
        <pt x="90" y="740" on="1"/>
        <pt x="542" y="740" on="1"/>
        <pt x="542" y="671" on="1"/>
        <pt x="167" y="671" on="1"/>
        <pt x="167" y="412" on="1"/>
        <pt x="495" y="412" on="1"/>
        <pt x="495" y="343" on="1"/>
        <pt x="167" y="343" on="1"/>
        <pt x="167" y="69" on="1"/>
        <pt x="548" y="69" on="1"/>
        <pt x="548" y="0" on="1"/>
      </contour>
    </TTGlyph>
    <TTGlyph name="Ecircumflex" xMin="90" yMin="0" xMax="548" yMax="961">
      <contour>
        <pt x="171" y="817" on="1"/>
        <pt x="289" y="961" on="1"/>
        <pt x="355" y="961" on="1"/>
        <pt x="473" y="817" on="1"/>
        <pt x="403" y="817" on="1"/>
        <pt x="322" y="916" on="1"/>
        <pt x="241" y="817" on="1"/>
      </contour>
      <contour>
        <pt x="90" y="0" on="1"/>
        <pt x="90" y="740" on="1"/>
        <pt x="542" y="740" on="1"/>
        <pt x="542" y="671" on="1"/>
        <pt x="167" y="671" on="1"/>
        <pt x="167" y="412" on="1"/>
        <pt x="495" y="412" on="1"/>
        <pt x="495" y="343" on="1"/>
        <pt x="167" y="343" on="1"/>
        <pt x="167" y="69" on="1"/>
        <pt x="548" y="69" on="1"/>
        <pt x="548" y="0" on="1"/>
      </contour>
    </TTGlyph>
    <TTGlyph name="Edieresis" xMin="90" yMin="0" xMax="548" yMax="933">
      <contour>
        <pt x="408" y="827" on="1"/>
        <pt x="385" y="827" on="0"/>
        <pt x="355" y="859" on="0"/>
        <pt x="355" y="880" on="1"/>
        <pt x="355" y="902" on="0"/>
        <pt x="385" y="933" on="0"/>
        <pt x="408" y="933" on="1"/>
        <pt x="430" y="933" on="0"/>
        <pt x="461" y="902" on="0"/>
        <pt x="461" y="880" on="1"/>
        <pt x="461" y="858" on="0"/>
        <pt x="430" y="827" on="0"/>
      </contour>
      <contour>
        <pt x="235" y="827" on="1"/>
        <pt x="212" y="827" on="0"/>
        <pt x="182" y="859" on="0"/>
        <pt x="182" y="880" on="1"/>
        <pt x="182" y="902" on="0"/>
        <pt x="212" y="933" on="0"/>
        <pt x="235" y="933" on="1"/>
        <pt x="257" y="933" on="0"/>
        <pt x="288" y="902" on="0"/>
        <pt x="288" y="880" on="1"/>
        <pt x="288" y="858" on="0"/>
        <pt x="257" y="827" on="0"/>
      </contour>
      <contour>
        <pt x="90" y="0" on="1"/>
        <pt x="90" y="740" on="1"/>
        <pt x="542" y="740" on="1"/>
        <pt x="542" y="671" on="1"/>
        <pt x="167" y="671" on="1"/>
        <pt x="167" y="412" on="1"/>
        <pt x="495" y="412" on="1"/>
        <pt x="495" y="343" on="1"/>
        <pt x="167" y="343" on="1"/>
        <pt x="167" y="69" on="1"/>
        <pt x="548" y="69" on="1"/>
        <pt x="548" y="0" on="1"/>
      </contour>
    </TTGlyph>
    <TTGlyph name="Edotaccent" xMin="90" yMin="0" xMax="548" yMax="948">
      <contour>
        <pt x="321" y="842" on="1"/>
        <pt x="298" y="842" on="0"/>
        <pt x="268" y="874" on="0"/>
        <pt x="268" y="895" on="1"/>
        <pt x="268" y="917" on="0"/>
        <pt x="298" y="948" on="0"/>
        <pt x="321" y="948" on="1"/>
        <pt x="344" y="948" on="0"/>
        <pt x="374" y="917" on="0"/>
        <pt x="374" y="895" on="1"/>
        <pt x="374" y="873" on="0"/>
        <pt x="344" y="842" on="0"/>
      </contour>
      <contour>
        <pt x="90" y="0" on="1"/>
        <pt x="90" y="740" on="1"/>
        <pt x="542" y="740" on="1"/>
        <pt x="542" y="671" on="1"/>
        <pt x="167" y="671" on="1"/>
        <pt x="167" y="412" on="1"/>
        <pt x="495" y="412" on="1"/>
        <pt x="495" y="343" on="1"/>
        <pt x="167" y="343" on="1"/>
        <pt x="167" y="69" on="1"/>
        <pt x="548" y="69" on="1"/>
        <pt x="548" y="0" on="1"/>
      </contour>
    </TTGlyph>
    <TTGlyph name="Egrave" xMin="90" yMin="0" xMax="548" yMax="994">
      <contour>
        <pt x="291" y="823" on="1"/>
        <pt x="191" y="994" on="1"/>
        <pt x="270" y="994" on="1"/>
        <pt x="356" y="823" on="1"/>
      </contour>
      <contour>
        <pt x="90" y="0" on="1"/>
        <pt x="90" y="740" on="1"/>
        <pt x="542" y="740" on="1"/>
        <pt x="542" y="671" on="1"/>
        <pt x="167" y="671" on="1"/>
        <pt x="167" y="412" on="1"/>
        <pt x="495" y="412" on="1"/>
        <pt x="495" y="343" on="1"/>
        <pt x="167" y="343" on="1"/>
        <pt x="167" y="69" on="1"/>
        <pt x="548" y="69" on="1"/>
        <pt x="548" y="0" on="1"/>
      </contour>
    </TTGlyph>
    <TTGlyph name="Emacron" xMin="90" yMin="0" xMax="548" yMax="898">
      <contour>
        <pt x="173" y="840" on="1"/>
        <pt x="173" y="898" on="1"/>
        <pt x="469" y="898" on="1"/>
        <pt x="469" y="840" on="1"/>
      </contour>
      <contour>
        <pt x="90" y="0" on="1"/>
        <pt x="90" y="740" on="1"/>
        <pt x="542" y="740" on="1"/>
        <pt x="542" y="671" on="1"/>
        <pt x="167" y="671" on="1"/>
        <pt x="167" y="412" on="1"/>
        <pt x="495" y="412" on="1"/>
        <pt x="495" y="343" on="1"/>
        <pt x="167" y="343" on="1"/>
        <pt x="167" y="69" on="1"/>
        <pt x="548" y="69" on="1"/>
        <pt x="548" y="0" on="1"/>
      </contour>
    </TTGlyph>
    <TTGlyph name="Eogonek" xMin="90" yMin="-163" xMax="589" yMax="740">
      <contour>
        <pt x="90" y="0" on="1"/>
        <pt x="90" y="740" on="1"/>
        <pt x="542" y="740" on="1"/>
        <pt x="542" y="671" on="1"/>
        <pt x="167" y="671" on="1"/>
        <pt x="167" y="412" on="1"/>
        <pt x="495" y="412" on="1"/>
        <pt x="495" y="343" on="1"/>
        <pt x="167" y="343" on="1"/>
        <pt x="167" y="69" on="1"/>
        <pt x="548" y="69" on="1"/>
        <pt x="548" y="0" on="1"/>
        <pt x="548" y="0" on="0"/>
        <pt x="520" y="-14" on="0"/>
        <pt x="492" y="-44" on="0"/>
        <pt x="492" y="-66" on="1"/>
        <pt x="492" y="-85" on="0"/>
        <pt x="522" y="-111" on="0"/>
        <pt x="551" y="-111" on="1"/>
        <pt x="565" y="-111" on="0"/>
        <pt x="589" y="-106" on="0"/>
        <pt x="589" y="-106" on="1"/>
        <pt x="589" y="-157" on="1"/>
        <pt x="589" y="-157" on="0"/>
        <pt x="560" y="-163" on="0"/>
        <pt x="539" y="-163" on="1"/>
        <pt x="486" y="-163" on="0"/>
        <pt x="430" y="-114" on="0"/>
        <pt x="430" y="-78" on="1"/>
        <pt x="430" y="-49" on="0"/>
        <pt x="460" y="-11" on="0"/>
        <pt x="477" y="0" on="1"/>
      </contour>
    </TTGlyph>
    <TTGlyph name="Eth" xMin="37" yMin="0" xMax="720" yMax="740">
      <contour>
        <pt x="138" y="0" on="1"/>
        <pt x="138" y="335" on="1"/>
        <pt x="37" y="335" on="1"/>
        <pt x="37" y="405" on="1"/>
        <pt x="138" y="405" on="1"/>
        <pt x="138" y="740" on="1"/>
        <pt x="369" y="740" on="1"/>
        <pt x="457" y="740" on="0"/>
        <pt x="589" y="677" on="0"/>
        <pt x="676" y="571" on="0"/>
        <pt x="720" y="439" on="0"/>
        <pt x="720" y="370" on="1"/>
        <pt x="720" y="301" on="0"/>
        <pt x="676" y="169" on="0"/>
        <pt x="589" y="63" on="0"/>
        <pt x="457" y="0" on="0"/>
        <pt x="369" y="0" on="1"/>
      </contour>
      <contour>
        <pt x="377" y="335" on="1"/>
        <pt x="215" y="335" on="1"/>
        <pt x="215" y="69" on="1"/>
        <pt x="367" y="69" on="1"/>
        <pt x="436" y="69" on="0"/>
        <pt x="539" y="120" on="0"/>
        <pt x="608" y="206" on="0"/>
        <pt x="642" y="314" on="0"/>
        <pt x="642" y="370" on="1"/>
        <pt x="642" y="426" on="0"/>
        <pt x="608" y="534" on="0"/>
        <pt x="539" y="620" on="0"/>
        <pt x="436" y="671" on="0"/>
        <pt x="367" y="671" on="1"/>
        <pt x="215" y="671" on="1"/>
        <pt x="215" y="405" on="1"/>
        <pt x="377" y="405" on="1"/>
      </contour>
    </TTGlyph>
    <TTGlyph name="Euro" xMin="40" yMin="-10" xMax="679" yMax="750">
      <contour>
        <pt x="40" y="272" on="1"/>
        <pt x="40" y="330" on="1"/>
        <pt x="130" y="330" on="1"/>
        <pt x="128" y="350" on="0"/>
        <pt x="128" y="370" on="1"/>
        <pt x="128" y="390" on="0"/>
        <pt x="130" y="409" on="1"/>
        <pt x="40" y="409" on="1"/>
        <pt x="40" y="467" on="1"/>
        <pt x="139" y="467" on="1"/>
        <pt x="157" y="544" on="0"/>
        <pt x="250" y="672" on="0"/>
        <pt x="403" y="750" on="0"/>
        <pt x="509" y="750" on="1"/>
        <pt x="552" y="750" on="0"/>
        <pt x="630" y="739" on="0"/>
        <pt x="679" y="728" on="0"/>
        <pt x="679" y="728" on="1"/>
        <pt x="679" y="658" on="1"/>
        <pt x="679" y="658" on="0"/>
        <pt x="629" y="669" on="0"/>
        <pt x="552" y="680" on="0"/>
        <pt x="512" y="680" on="1"/>
        <pt x="429" y="680" on="0"/>
        <pt x="310" y="623" on="0"/>
        <pt x="236" y="526" on="0"/>
        <pt x="219" y="467" on="1"/>
        <pt x="543" y="467" on="1"/>
        <pt x="543" y="409" on="1"/>
        <pt x="208" y="409" on="1"/>
        <pt x="206" y="390" on="0"/>
        <pt x="206" y="370" on="1"/>
        <pt x="206" y="350" on="0"/>
        <pt x="208" y="330" on="1"/>
        <pt x="543" y="330" on="1"/>
        <pt x="543" y="272" on="1"/>
        <pt x="219" y="272" on="1"/>
        <pt x="236" y="213" on="0"/>
        <pt x="310" y="116" on="0"/>
        <pt x="429" y="59" on="0"/>
        <pt x="512" y="59" on="1"/>
        <pt x="552" y="59" on="0"/>
        <pt x="629" y="70" on="0"/>
        <pt x="679" y="81" on="0"/>
        <pt x="679" y="81" on="1"/>
        <pt x="679" y="11" on="1"/>
        <pt x="679" y="11" on="0"/>
        <pt x="630" y="0" on="0"/>
        <pt x="552" y="-10" on="0"/>
        <pt x="509" y="-10" on="1"/>
        <pt x="402" y="-10" on="0"/>
        <pt x="250" y="68" on="0"/>
        <pt x="157" y="196" on="0"/>
        <pt x="140" y="272" on="1"/>
      </contour>
    </TTGlyph>
    <TTGlyph name="F" xMin="83" yMin="0" xMax="551" yMax="740">
      <contour>
        <pt x="83" y="0" on="1"/>
        <pt x="83" y="740" on="1"/>
        <pt x="551" y="740" on="1"/>
        <pt x="551" y="671" on="1"/>
        <pt x="160" y="671" on="1"/>
        <pt x="160" y="402" on="1"/>
        <pt x="504" y="402" on="1"/>
        <pt x="504" y="333" on="1"/>
        <pt x="160" y="333" on="1"/>
        <pt x="160" y="0" on="1"/>
      </contour>
    </TTGlyph>
    <TTGlyph name="G" xMin="57" yMin="-10" xMax="723" yMax="750">
      <contour>
        <pt x="405" y="-10" on="1"/>
        <pt x="317" y="-10" on="0"/>
        <pt x="186" y="54" on="0"/>
        <pt x="100" y="163" on="0"/>
        <pt x="57" y="298" on="0"/>
        <pt x="57" y="369" on="1"/>
        <pt x="57" y="440" on="0"/>
        <pt x="100" y="576" on="0"/>
        <pt x="187" y="685" on="0"/>
        <pt x="319" y="750" on="0"/>
        <pt x="408" y="750" on="1"/>
        <pt x="477" y="750" on="0"/>
        <pt x="577" y="715" on="0"/>
        <pt x="645" y="660" on="0"/>
        <pt x="686" y="598" on="0"/>
        <pt x="708" y="543" on="0"/>
        <pt x="715" y="508" on="0"/>
        <pt x="715" y="508" on="1"/>
        <pt x="637" y="508" on="1"/>
        <pt x="637" y="508" on="0"/>
        <pt x="628" y="542" on="0"/>
        <pt x="602" y="594" on="0"/>
        <pt x="552" y="645" on="0"/>
        <pt x="469" y="679" on="0"/>
        <pt x="408" y="679" on="1"/>
        <pt x="339" y="679" on="0"/>
        <pt x="236" y="627" on="0"/>
        <pt x="168" y="538" on="0"/>
        <pt x="134" y="428" on="0"/>
        <pt x="134" y="371" on="1"/>
        <pt x="134" y="312" on="0"/>
        <pt x="168" y="201" on="0"/>
        <pt x="236" y="113" on="0"/>
        <pt x="338" y="61" on="0"/>
        <pt x="405" y="61" on="1"/>
        <pt x="482" y="61" on="0"/>
        <pt x="591" y="124" on="0"/>
        <pt x="649" y="238" on="0"/>
        <pt x="649" y="313" on="1"/>
        <pt x="416" y="313" on="1"/>
        <pt x="416" y="378" on="1"/>
        <pt x="723" y="378" on="1"/>
        <pt x="723" y="328" on="1"/>
        <pt x="723" y="223" on="0"/>
        <pt x="643" y="71" on="0"/>
        <pt x="499" y="-10" on="0"/>
      </contour>
    </TTGlyph>
    <TTGlyph name="Gbreve" xMin="57" yMin="-10" xMax="723" yMax="962">
      <contour>
        <pt x="408" y="818" on="1"/>
        <pt x="362" y="818" on="0"/>
        <pt x="305" y="847" on="0"/>
        <pt x="273" y="890" on="0"/>
        <pt x="259" y="933" on="0"/>
        <pt x="256" y="962" on="0"/>
        <pt x="256" y="962" on="1"/>
        <pt x="314" y="962" on="1"/>
        <pt x="314" y="962" on="0"/>
        <pt x="318" y="935" on="0"/>
        <pt x="335" y="898" on="0"/>
        <pt x="373" y="870" on="0"/>
        <pt x="408" y="870" on="1"/>
        <pt x="442" y="870" on="0"/>
        <pt x="481" y="898" on="0"/>
        <pt x="497" y="935" on="0"/>
        <pt x="501" y="962" on="0"/>
        <pt x="501" y="962" on="1"/>
        <pt x="559" y="962" on="1"/>
        <pt x="559" y="962" on="0"/>
        <pt x="556" y="933" on="0"/>
        <pt x="542" y="890" on="0"/>
        <pt x="510" y="847" on="0"/>
        <pt x="453" y="818" on="0"/>
      </contour>
      <contour>
        <pt x="405" y="-10" on="1"/>
        <pt x="317" y="-10" on="0"/>
        <pt x="186" y="54" on="0"/>
        <pt x="100" y="163" on="0"/>
        <pt x="57" y="298" on="0"/>
        <pt x="57" y="369" on="1"/>
        <pt x="57" y="440" on="0"/>
        <pt x="100" y="576" on="0"/>
        <pt x="187" y="685" on="0"/>
        <pt x="319" y="750" on="0"/>
        <pt x="408" y="750" on="1"/>
        <pt x="477" y="750" on="0"/>
        <pt x="577" y="715" on="0"/>
        <pt x="645" y="660" on="0"/>
        <pt x="686" y="598" on="0"/>
        <pt x="708" y="543" on="0"/>
        <pt x="715" y="508" on="0"/>
        <pt x="715" y="508" on="1"/>
        <pt x="637" y="508" on="1"/>
        <pt x="637" y="508" on="0"/>
        <pt x="628" y="542" on="0"/>
        <pt x="602" y="594" on="0"/>
        <pt x="552" y="645" on="0"/>
        <pt x="469" y="679" on="0"/>
        <pt x="408" y="679" on="1"/>
        <pt x="339" y="679" on="0"/>
        <pt x="236" y="627" on="0"/>
        <pt x="168" y="538" on="0"/>
        <pt x="134" y="428" on="0"/>
        <pt x="134" y="371" on="1"/>
        <pt x="134" y="312" on="0"/>
        <pt x="168" y="201" on="0"/>
        <pt x="236" y="113" on="0"/>
        <pt x="338" y="61" on="0"/>
        <pt x="405" y="61" on="1"/>
        <pt x="482" y="61" on="0"/>
        <pt x="591" y="124" on="0"/>
        <pt x="649" y="238" on="0"/>
        <pt x="649" y="313" on="1"/>
        <pt x="416" y="313" on="1"/>
        <pt x="416" y="378" on="1"/>
        <pt x="723" y="378" on="1"/>
        <pt x="723" y="328" on="1"/>
        <pt x="723" y="223" on="0"/>
        <pt x="643" y="71" on="0"/>
        <pt x="499" y="-10" on="0"/>
      </contour>
    </TTGlyph>
    <TTGlyph name="Gcaron" xMin="57" yMin="-10" xMax="723" yMax="971">
      <contour>
        <pt x="375" y="809" on="1"/>
        <pt x="257" y="971" on="1"/>
        <pt x="327" y="971" on="1"/>
        <pt x="408" y="858" on="1"/>
        <pt x="489" y="971" on="1"/>
        <pt x="559" y="971" on="1"/>
        <pt x="441" y="809" on="1"/>
      </contour>
      <contour>
        <pt x="405" y="-10" on="1"/>
        <pt x="317" y="-10" on="0"/>
        <pt x="186" y="54" on="0"/>
        <pt x="100" y="163" on="0"/>
        <pt x="57" y="298" on="0"/>
        <pt x="57" y="369" on="1"/>
        <pt x="57" y="440" on="0"/>
        <pt x="100" y="576" on="0"/>
        <pt x="187" y="685" on="0"/>
        <pt x="319" y="750" on="0"/>
        <pt x="408" y="750" on="1"/>
        <pt x="477" y="750" on="0"/>
        <pt x="577" y="715" on="0"/>
        <pt x="645" y="660" on="0"/>
        <pt x="686" y="598" on="0"/>
        <pt x="708" y="543" on="0"/>
        <pt x="715" y="508" on="0"/>
        <pt x="715" y="508" on="1"/>
        <pt x="637" y="508" on="1"/>
        <pt x="637" y="508" on="0"/>
        <pt x="628" y="542" on="0"/>
        <pt x="602" y="594" on="0"/>
        <pt x="552" y="645" on="0"/>
        <pt x="469" y="679" on="0"/>
        <pt x="408" y="679" on="1"/>
        <pt x="339" y="679" on="0"/>
        <pt x="236" y="627" on="0"/>
        <pt x="168" y="538" on="0"/>
        <pt x="134" y="428" on="0"/>
        <pt x="134" y="371" on="1"/>
        <pt x="134" y="312" on="0"/>
        <pt x="168" y="201" on="0"/>
        <pt x="236" y="113" on="0"/>
        <pt x="338" y="61" on="0"/>
        <pt x="405" y="61" on="1"/>
        <pt x="482" y="61" on="0"/>
        <pt x="591" y="124" on="0"/>
        <pt x="649" y="238" on="0"/>
        <pt x="649" y="313" on="1"/>
        <pt x="416" y="313" on="1"/>
        <pt x="416" y="378" on="1"/>
        <pt x="723" y="378" on="1"/>
        <pt x="723" y="328" on="1"/>
        <pt x="723" y="223" on="0"/>
        <pt x="643" y="71" on="0"/>
        <pt x="499" y="-10" on="0"/>
      </contour>
    </TTGlyph>
    <TTGlyph name="Gdotaccent" xMin="57" yMin="-10" xMax="723" yMax="948">
      <contour>
        <pt x="407" y="842" on="1"/>
        <pt x="384" y="842" on="0"/>
        <pt x="354" y="874" on="0"/>
        <pt x="354" y="895" on="1"/>
        <pt x="354" y="917" on="0"/>
        <pt x="384" y="948" on="0"/>
        <pt x="407" y="948" on="1"/>
        <pt x="430" y="948" on="0"/>
        <pt x="460" y="917" on="0"/>
        <pt x="460" y="895" on="1"/>
        <pt x="460" y="873" on="0"/>
        <pt x="430" y="842" on="0"/>
      </contour>
      <contour>
        <pt x="405" y="-10" on="1"/>
        <pt x="317" y="-10" on="0"/>
        <pt x="186" y="54" on="0"/>
        <pt x="100" y="163" on="0"/>
        <pt x="57" y="298" on="0"/>
        <pt x="57" y="369" on="1"/>
        <pt x="57" y="440" on="0"/>
        <pt x="100" y="576" on="0"/>
        <pt x="187" y="685" on="0"/>
        <pt x="319" y="750" on="0"/>
        <pt x="408" y="750" on="1"/>
        <pt x="477" y="750" on="0"/>
        <pt x="577" y="715" on="0"/>
        <pt x="645" y="660" on="0"/>
        <pt x="686" y="598" on="0"/>
        <pt x="708" y="543" on="0"/>
        <pt x="715" y="508" on="0"/>
        <pt x="715" y="508" on="1"/>
        <pt x="637" y="508" on="1"/>
        <pt x="637" y="508" on="0"/>
        <pt x="628" y="542" on="0"/>
        <pt x="602" y="594" on="0"/>
        <pt x="552" y="645" on="0"/>
        <pt x="469" y="679" on="0"/>
        <pt x="408" y="679" on="1"/>
        <pt x="339" y="679" on="0"/>
        <pt x="236" y="627" on="0"/>
        <pt x="168" y="538" on="0"/>
        <pt x="134" y="428" on="0"/>
        <pt x="134" y="371" on="1"/>
        <pt x="134" y="312" on="0"/>
        <pt x="168" y="201" on="0"/>
        <pt x="236" y="113" on="0"/>
        <pt x="338" y="61" on="0"/>
        <pt x="405" y="61" on="1"/>
        <pt x="482" y="61" on="0"/>
        <pt x="591" y="124" on="0"/>
        <pt x="649" y="238" on="0"/>
        <pt x="649" y="313" on="1"/>
        <pt x="416" y="313" on="1"/>
        <pt x="416" y="378" on="1"/>
        <pt x="723" y="378" on="1"/>
        <pt x="723" y="328" on="1"/>
        <pt x="723" y="223" on="0"/>
        <pt x="643" y="71" on="0"/>
        <pt x="499" y="-10" on="0"/>
      </contour>
    </TTGlyph>
    <TTGlyph name="H" xMin="83" yMin="0" xMax="608" yMax="740">
      <contour>
        <pt x="83" y="0" on="1"/>
        <pt x="83" y="740" on="1"/>
        <pt x="160" y="740" on="1"/>
        <pt x="160" y="415" on="1"/>
        <pt x="531" y="415" on="1"/>
        <pt x="531" y="740" on="1"/>
        <pt x="608" y="740" on="1"/>
        <pt x="608" y="0" on="1"/>
        <pt x="531" y="0" on="1"/>
        <pt x="531" y="345" on="1"/>
        <pt x="160" y="345" on="1"/>
        <pt x="160" y="0" on="1"/>
      </contour>
    </TTGlyph>
    <TTGlyph name="Hbar" xMin="33" yMin="0" xMax="736" yMax="740">
      <contour>
        <pt x="129" y="0" on="1"/>
        <pt x="129" y="593" on="1"/>
        <pt x="33" y="593" on="1"/>
        <pt x="33" y="663" on="1"/>
        <pt x="129" y="663" on="1"/>
        <pt x="129" y="740" on="1"/>
        <pt x="206" y="740" on="1"/>
        <pt x="206" y="663" on="1"/>
        <pt x="577" y="663" on="1"/>
        <pt x="577" y="740" on="1"/>
        <pt x="654" y="740" on="1"/>
        <pt x="654" y="663" on="1"/>
        <pt x="736" y="663" on="1"/>
        <pt x="736" y="593" on="1"/>
        <pt x="654" y="593" on="1"/>
        <pt x="654" y="0" on="1"/>
        <pt x="577" y="0" on="1"/>
        <pt x="577" y="345" on="1"/>
        <pt x="206" y="345" on="1"/>
        <pt x="206" y="0" on="1"/>
      </contour>
      <contour>
        <pt x="206" y="415" on="1"/>
        <pt x="577" y="415" on="1"/>
        <pt x="577" y="593" on="1"/>
        <pt x="206" y="593" on="1"/>
      </contour>
    </TTGlyph>
    <TTGlyph name="I" xMin="83" yMin="0" xMax="160" yMax="740">
      <contour>
        <pt x="83" y="0" on="1"/>
        <pt x="83" y="740" on="1"/>
        <pt x="160" y="740" on="1"/>
        <pt x="160" y="0" on="1"/>
      </contour>
    </TTGlyph>
    <TTGlyph name="Iacute" xMin="90" yMin="0" xMax="262" yMax="994">
      <contour>
        <pt x="163" y="823" on="1"/>
        <pt x="97" y="823" on="1"/>
        <pt x="183" y="994" on="1"/>
        <pt x="262" y="994" on="1"/>
      </contour>
      <contour>
        <pt x="90" y="0" on="1"/>
        <pt x="90" y="740" on="1"/>
        <pt x="167" y="740" on="1"/>
        <pt x="167" y="0" on="1"/>
      </contour>
    </TTGlyph>
    <TTGlyph name="Icircumflex" xMin="-22" yMin="0" xMax="280" yMax="979">
      <contour>
        <pt x="-22" y="817" on="1"/>
        <pt x="96" y="979" on="1"/>
        <pt x="162" y="979" on="1"/>
        <pt x="280" y="817" on="1"/>
        <pt x="210" y="817" on="1"/>
        <pt x="129" y="929" on="1"/>
        <pt x="48" y="817" on="1"/>
      </contour>
      <contour>
        <pt x="90" y="0" on="1"/>
        <pt x="90" y="740" on="1"/>
        <pt x="167" y="740" on="1"/>
        <pt x="167" y="0" on="1"/>
      </contour>
    </TTGlyph>
    <TTGlyph name="Idieresis" xMin="-11" yMin="0" xMax="268" yMax="933">
      <contour>
        <pt x="215" y="827" on="1"/>
        <pt x="192" y="827" on="0"/>
        <pt x="162" y="859" on="0"/>
        <pt x="162" y="880" on="1"/>
        <pt x="162" y="902" on="0"/>
        <pt x="192" y="933" on="0"/>
        <pt x="215" y="933" on="1"/>
        <pt x="238" y="933" on="0"/>
        <pt x="268" y="902" on="0"/>
        <pt x="268" y="880" on="1"/>
        <pt x="268" y="858" on="0"/>
        <pt x="238" y="827" on="0"/>
      </contour>
      <contour>
        <pt x="42" y="827" on="1"/>
        <pt x="19" y="827" on="0"/>
        <pt x="-11" y="859" on="0"/>
        <pt x="-11" y="880" on="1"/>
        <pt x="-11" y="902" on="0"/>
        <pt x="19" y="933" on="0"/>
        <pt x="42" y="933" on="1"/>
        <pt x="65" y="933" on="0"/>
        <pt x="95" y="902" on="0"/>
        <pt x="95" y="880" on="1"/>
        <pt x="95" y="858" on="0"/>
        <pt x="65" y="827" on="0"/>
      </contour>
      <contour>
        <pt x="90" y="0" on="1"/>
        <pt x="90" y="740" on="1"/>
        <pt x="167" y="740" on="1"/>
        <pt x="167" y="0" on="1"/>
      </contour>
    </TTGlyph>
    <TTGlyph name="Idotaccent" xMin="75" yMin="0" xMax="181" yMax="948">
      <contour>
        <pt x="128" y="842" on="1"/>
        <pt x="105" y="842" on="0"/>
        <pt x="75" y="874" on="0"/>
        <pt x="75" y="895" on="1"/>
        <pt x="75" y="917" on="0"/>
        <pt x="105" y="948" on="0"/>
        <pt x="128" y="948" on="1"/>
        <pt x="151" y="948" on="0"/>
        <pt x="181" y="917" on="0"/>
        <pt x="181" y="895" on="1"/>
        <pt x="181" y="873" on="0"/>
        <pt x="151" y="842" on="0"/>
      </contour>
      <contour>
        <pt x="90" y="0" on="1"/>
        <pt x="90" y="740" on="1"/>
        <pt x="167" y="740" on="1"/>
        <pt x="167" y="0" on="1"/>
      </contour>
    </TTGlyph>
    <TTGlyph name="Igrave" xMin="-1" yMin="0" xMax="167" yMax="994">
      <contour>
        <pt x="98" y="823" on="1"/>
        <pt x="-1" y="994" on="1"/>
        <pt x="78" y="994" on="1"/>
        <pt x="163" y="823" on="1"/>
      </contour>
      <contour>
        <pt x="90" y="0" on="1"/>
        <pt x="90" y="740" on="1"/>
        <pt x="167" y="740" on="1"/>
        <pt x="167" y="0" on="1"/>
      </contour>
    </TTGlyph>
    <TTGlyph name="Imacron" xMin="-19" yMin="0" xMax="277" yMax="898">
      <contour>
        <pt x="-19" y="840" on="1"/>
        <pt x="-19" y="898" on="1"/>
        <pt x="277" y="898" on="1"/>
        <pt x="277" y="840" on="1"/>
      </contour>
      <contour>
        <pt x="90" y="0" on="1"/>
        <pt x="90" y="740" on="1"/>
        <pt x="167" y="740" on="1"/>
        <pt x="167" y="0" on="1"/>
      </contour>
    </TTGlyph>
    <TTGlyph name="Iogonek" xMin="49" yMin="-163" xMax="208" yMax="740">
      <contour>
        <pt x="90" y="0" on="1"/>
        <pt x="90" y="740" on="1"/>
        <pt x="167" y="740" on="1"/>
        <pt x="167" y="0" on="1"/>
        <pt x="167" y="0" on="0"/>
        <pt x="139" y="-14" on="0"/>
        <pt x="112" y="-44" on="0"/>
        <pt x="112" y="-66" on="1"/>
        <pt x="112" y="-85" on="0"/>
        <pt x="141" y="-111" on="0"/>
        <pt x="170" y="-111" on="1"/>
        <pt x="184" y="-111" on="0"/>
        <pt x="208" y="-106" on="0"/>
        <pt x="208" y="-106" on="1"/>
        <pt x="208" y="-157" on="1"/>
        <pt x="208" y="-157" on="0"/>
        <pt x="179" y="-163" on="0"/>
        <pt x="158" y="-163" on="1"/>
        <pt x="105" y="-163" on="0"/>
        <pt x="49" y="-114" on="0"/>
        <pt x="49" y="-78" on="1"/>
        <pt x="49" y="-49" on="0"/>
        <pt x="79" y="-11" on="0"/>
        <pt x="97" y="0" on="1"/>
      </contour>
    </TTGlyph>
    <TTGlyph name="Itilde" xMin="-17" yMin="0" xMax="275" yMax="955">
      <contour>
        <pt x="194" y="828" on="1"/>
        <pt x="169" y="828" on="0"/>
        <pt x="134" y="850" on="0"/>
        <pt x="107" y="878" on="0"/>
        <pt x="83" y="899" on="0"/>
        <pt x="69" y="899" on="1"/>
        <pt x="51" y="899" on="0"/>
        <pt x="35" y="864" on="0"/>
        <pt x="35" y="834" on="1"/>
        <pt x="-17" y="834" on="1"/>
        <pt x="-17" y="864" on="0"/>
        <pt x="-3" y="920" on="0"/>
        <pt x="33" y="955" on="0"/>
        <pt x="65" y="955" on="1"/>
        <pt x="91" y="955" on="0"/>
        <pt x="127" y="934" on="0"/>
        <pt x="153" y="906" on="0"/>
        <pt x="176" y="885" on="0"/>
        <pt x="190" y="885" on="1"/>
        <pt x="207" y="885" on="0"/>
        <pt x="222" y="920" on="0"/>
        <pt x="222" y="950" on="1"/>
        <pt x="275" y="950" on="1"/>
        <pt x="275" y="920" on="0"/>
        <pt x="260" y="864" on="0"/>
        <pt x="225" y="828" on="0"/>
      </contour>
      <contour>
        <pt x="90" y="0" on="1"/>
        <pt x="90" y="740" on="1"/>
        <pt x="167" y="740" on="1"/>
        <pt x="167" y="0" on="1"/>
      </contour>
    </TTGlyph>
    <TTGlyph name="J" xMin="37" yMin="-10" xMax="364" yMax="740">
      <contour>
        <pt x="124" y="-10" on="1"/>
        <pt x="91" y="-10" on="0"/>
        <pt x="37" y="-3" on="0"/>
        <pt x="37" y="-3" on="1"/>
        <pt x="37" y="66" on="1"/>
        <pt x="37" y="66" on="0"/>
        <pt x="89" y="60" on="0"/>
        <pt x="116" y="60" on="1"/>
        <pt x="196" y="60" on="0"/>
        <pt x="287" y="142" on="0"/>
        <pt x="287" y="234" on="1"/>
        <pt x="287" y="740" on="1"/>
        <pt x="364" y="740" on="1"/>
        <pt x="364" y="234" on="1"/>
        <pt x="364" y="119" on="0"/>
        <pt x="241" y="-10" on="0"/>
      </contour>
    </TTGlyph>
    <TTGlyph name="K" xMin="83" yMin="0" xMax="613" yMax="740">
      <contour>
        <pt x="83" y="0" on="1"/>
        <pt x="83" y="740" on="1"/>
        <pt x="160" y="740" on="1"/>
        <pt x="160" y="403" on="1"/>
        <pt x="496" y="739" on="1"/>
        <pt x="598" y="739" on="1"/>
        <pt x="239" y="383" on="1"/>
        <pt x="613" y="0" on="1"/>
        <pt x="509" y="0" on="1"/>
        <pt x="160" y="357" on="1"/>
        <pt x="160" y="0" on="1"/>
      </contour>
    </TTGlyph>
    <TTGlyph name="L" xMin="83" yMin="0" xMax="547" yMax="740">
      <contour>
        <pt x="83" y="0" on="1"/>
        <pt x="83" y="740" on="1"/>
        <pt x="160" y="740" on="1"/>
        <pt x="160" y="69" on="1"/>
        <pt x="547" y="69" on="1"/>
        <pt x="547" y="0" on="1"/>
      </contour>
    </TTGlyph>
    <TTGlyph name="Lacute" xMin="90" yMin="0" xMax="554" yMax="994">
      <contour>
        <pt x="168" y="823" on="1"/>
        <pt x="103" y="823" on="1"/>
        <pt x="189" y="994" on="1"/>
        <pt x="268" y="994" on="1"/>
      </contour>
      <contour>
        <pt x="90" y="0" on="1"/>
        <pt x="90" y="740" on="1"/>
        <pt x="167" y="740" on="1"/>
        <pt x="167" y="69" on="1"/>
        <pt x="554" y="69" on="1"/>
        <pt x="554" y="0" on="1"/>
      </contour>
    </TTGlyph>
    <TTGlyph name="Lcaron" xMin="-16" yMin="0" xMax="554" yMax="971">
      <contour>
        <pt x="101" y="809" on="1"/>
        <pt x="-16" y="971" on="1"/>
        <pt x="53" y="971" on="1"/>
        <pt x="134" y="858" on="1"/>
        <pt x="216" y="971" on="1"/>
        <pt x="285" y="971" on="1"/>
        <pt x="168" y="809" on="1"/>
      </contour>
      <contour>
        <pt x="90" y="0" on="1"/>
        <pt x="90" y="740" on="1"/>
        <pt x="167" y="740" on="1"/>
        <pt x="167" y="69" on="1"/>
        <pt x="554" y="69" on="1"/>
        <pt x="554" y="0" on="1"/>
      </contour>
    </TTGlyph>
    <TTGlyph name="Lslash" xMin="14" yMin="0" xMax="571" yMax="740">
      <contour>
        <pt x="107" y="0" on="1"/>
        <pt x="107" y="331" on="1"/>
        <pt x="14" y="299" on="1"/>
        <pt x="14" y="365" on="1"/>
        <pt x="107" y="397" on="1"/>
        <pt x="107" y="740" on="1"/>
        <pt x="184" y="740" on="1"/>
        <pt x="184" y="423" on="1"/>
        <pt x="349" y="480" on="1"/>
        <pt x="349" y="414" on="1"/>
        <pt x="184" y="357" on="1"/>
        <pt x="184" y="69" on="1"/>
        <pt x="571" y="69" on="1"/>
        <pt x="571" y="0" on="1"/>
      </contour>
    </TTGlyph>
    <TTGlyph name="M" xMin="83" yMin="0" xMax="769" yMax="740">
      <contour>
        <pt x="83" y="0" on="1"/>
        <pt x="83" y="740" on="1"/>
        <pt x="186" y="740" on="1"/>
        <pt x="426" y="278" on="1"/>
        <pt x="666" y="740" on="1"/>
        <pt x="769" y="740" on="1"/>
        <pt x="769" y="0" on="1"/>
        <pt x="693" y="0" on="1"/>
        <pt x="693" y="630" on="1"/>
        <pt x="462" y="190" on="1"/>
        <pt x="390" y="190" on="1"/>
        <pt x="159" y="632" on="1"/>
        <pt x="159" y="0" on="1"/>
      </contour>
    </TTGlyph>
    <TTGlyph name="N" xMin="83" yMin="0" xMax="644" yMax="740">
      <contour>
        <pt x="83" y="0" on="1"/>
        <pt x="83" y="740" on="1"/>
        <pt x="154" y="740" on="1"/>
        <pt x="567" y="138" on="1"/>
        <pt x="567" y="740" on="1"/>
        <pt x="644" y="740" on="1"/>
        <pt x="644" y="0" on="1"/>
        <pt x="573" y="0" on="1"/>
        <pt x="160" y="602" on="1"/>
        <pt x="160" y="0" on="1"/>
      </contour>
    </TTGlyph>
    <TTGlyph name="Nacute" xMin="90" yMin="0" xMax="650" yMax="994">
      <contour>
        <pt x="407" y="823" on="1"/>
        <pt x="341" y="823" on="1"/>
        <pt x="427" y="994" on="1"/>
        <pt x="506" y="994" on="1"/>
      </contour>
      <contour>
        <pt x="90" y="0" on="1"/>
        <pt x="90" y="740" on="1"/>
        <pt x="161" y="740" on="1"/>
        <pt x="573" y="138" on="1"/>
        <pt x="573" y="740" on="1"/>
        <pt x="650" y="740" on="1"/>
        <pt x="650" y="0" on="1"/>
        <pt x="580" y="0" on="1"/>
        <pt x="167" y="602" on="1"/>
        <pt x="167" y="0" on="1"/>
      </contour>
    </TTGlyph>
    <TTGlyph name="Ncaron" xMin="90" yMin="0" xMax="650" yMax="971">
      <contour>
        <pt x="340" y="809" on="1"/>
        <pt x="222" y="971" on="1"/>
        <pt x="292" y="971" on="1"/>
        <pt x="373" y="858" on="1"/>
        <pt x="454" y="971" on="1"/>
        <pt x="524" y="971" on="1"/>
        <pt x="406" y="809" on="1"/>
      </contour>
      <contour>
        <pt x="90" y="0" on="1"/>
        <pt x="90" y="740" on="1"/>
        <pt x="161" y="740" on="1"/>
        <pt x="573" y="138" on="1"/>
        <pt x="573" y="740" on="1"/>
        <pt x="650" y="740" on="1"/>
        <pt x="650" y="0" on="1"/>
        <pt x="580" y="0" on="1"/>
        <pt x="167" y="602" on="1"/>
        <pt x="167" y="0" on="1"/>
      </contour>
    </TTGlyph>
    <TTGlyph name="Ntilde" xMin="90" yMin="0" xMax="650" yMax="955">
      <contour>
        <pt x="438" y="828" on="1"/>
        <pt x="413" y="828" on="0"/>
        <pt x="378" y="850" on="0"/>
        <pt x="351" y="878" on="0"/>
        <pt x="327" y="899" on="0"/>
        <pt x="313" y="899" on="1"/>
        <pt x="295" y="899" on="0"/>
        <pt x="279" y="864" on="0"/>
        <pt x="279" y="834" on="1"/>
        <pt x="227" y="834" on="1"/>
        <pt x="227" y="864" on="0"/>
        <pt x="241" y="920" on="0"/>
        <pt x="277" y="955" on="0"/>
        <pt x="309" y="955" on="1"/>
        <pt x="335" y="955" on="0"/>
        <pt x="371" y="934" on="0"/>
        <pt x="397" y="906" on="0"/>
        <pt x="420" y="885" on="0"/>
        <pt x="434" y="885" on="1"/>
        <pt x="451" y="885" on="0"/>
        <pt x="466" y="920" on="0"/>
        <pt x="466" y="950" on="1"/>
        <pt x="519" y="950" on="1"/>
        <pt x="519" y="920" on="0"/>
        <pt x="504" y="864" on="0"/>
        <pt x="469" y="828" on="0"/>
      </contour>
      <contour>
        <pt x="90" y="0" on="1"/>
        <pt x="90" y="740" on="1"/>
        <pt x="161" y="740" on="1"/>
        <pt x="573" y="138" on="1"/>
        <pt x="573" y="740" on="1"/>
        <pt x="650" y="740" on="1"/>
        <pt x="650" y="0" on="1"/>
        <pt x="580" y="0" on="1"/>
        <pt x="167" y="602" on="1"/>
        <pt x="167" y="0" on="1"/>
      </contour>
    </TTGlyph>
    <TTGlyph name="O" xMin="57" yMin="-10" xMax="765" yMax="750">
      <contour>
        <pt x="411" y="-10" on="1"/>
        <pt x="324" y="-10" on="0"/>
        <pt x="191" y="55" on="0"/>
        <pt x="102" y="164" on="0"/>
        <pt x="57" y="300" on="0"/>
        <pt x="57" y="371" on="1"/>
        <pt x="57" y="441" on="0"/>
        <pt x="102" y="577" on="0"/>
        <pt x="191" y="686" on="0"/>
        <pt x="324" y="750" on="0"/>
        <pt x="411" y="750" on="1"/>
        <pt x="498" y="750" on="0"/>
        <pt x="630" y="686" on="0"/>
        <pt x="719" y="577" on="0"/>
        <pt x="765" y="441" on="0"/>
        <pt x="765" y="371" on="1"/>
        <pt x="765" y="300" on="0"/>
        <pt x="719" y="164" on="0"/>
        <pt x="630" y="55" on="0"/>
        <pt x="498" y="-10" on="0"/>
      </contour>
      <contour>
        <pt x="411" y="62" on="1"/>
        <pt x="492" y="62" on="0"/>
        <pt x="616" y="143" on="0"/>
        <pt x="686" y="283" on="0"/>
        <pt x="686" y="371" on="1"/>
        <pt x="686" y="458" on="0"/>
        <pt x="616" y="597" on="0"/>
        <pt x="492" y="678" on="0"/>
        <pt x="411" y="678" on="1"/>
        <pt x="329" y="678" on="0"/>
        <pt x="205" y="597" on="0"/>
        <pt x="135" y="458" on="0"/>
        <pt x="135" y="371" on="1"/>
        <pt x="135" y="283" on="0"/>
        <pt x="205" y="143" on="0"/>
        <pt x="329" y="62" on="0"/>
      </contour>
    </TTGlyph>
    <TTGlyph name="OE" xMin="57" yMin="0" xMax="919" yMax="740">
      <contour>
        <pt x="913" y="740" on="1"/>
        <pt x="913" y="671" on="1"/>
        <pt x="545" y="671" on="1"/>
        <pt x="545" y="412" on="1"/>
        <pt x="866" y="412" on="1"/>
        <pt x="866" y="343" on="1"/>
        <pt x="545" y="343" on="1"/>
        <pt x="545" y="69" on="1"/>
        <pt x="919" y="69" on="1"/>
        <pt x="919" y="0" on="1"/>
        <pt x="430" y="0" on="1"/>
        <pt x="334" y="0" on="0"/>
        <pt x="193" y="63" on="0"/>
        <pt x="101" y="169" on="0"/>
        <pt x="57" y="301" on="0"/>
        <pt x="57" y="370" on="1"/>
        <pt x="57" y="439" on="0"/>
        <pt x="101" y="571" on="0"/>
        <pt x="193" y="677" on="0"/>
        <pt x="334" y="740" on="0"/>
        <pt x="430" y="740" on="1"/>
      </contour>
      <contour>
        <pt x="134" y="370" on="1"/>
        <pt x="134" y="314" on="0"/>
        <pt x="169" y="206" on="0"/>
        <pt x="242" y="120" on="0"/>
        <pt x="355" y="69" on="0"/>
        <pt x="433" y="69" on="1"/>
        <pt x="468" y="69" on="1"/>
        <pt x="468" y="671" on="1"/>
        <pt x="433" y="671" on="1"/>
        <pt x="355" y="671" on="0"/>
        <pt x="242" y="620" on="0"/>
        <pt x="169" y="534" on="0"/>
        <pt x="134" y="426" on="0"/>
      </contour>
    </TTGlyph>
    <TTGlyph name="Oacute" xMin="57" yMin="-10" xMax="765" yMax="1004">
      <contour>
        <pt x="445" y="833" on="1"/>
        <pt x="379" y="833" on="1"/>
        <pt x="465" y="1004" on="1"/>
        <pt x="544" y="1004" on="1"/>
      </contour>
      <contour>
        <pt x="411" y="-10" on="1"/>
        <pt x="324" y="-10" on="0"/>
        <pt x="191" y="55" on="0"/>
        <pt x="102" y="164" on="0"/>
        <pt x="57" y="300" on="0"/>
        <pt x="57" y="371" on="1"/>
        <pt x="57" y="441" on="0"/>
        <pt x="102" y="577" on="0"/>
        <pt x="191" y="686" on="0"/>
        <pt x="324" y="750" on="0"/>
        <pt x="411" y="750" on="1"/>
        <pt x="498" y="750" on="0"/>
        <pt x="630" y="686" on="0"/>
        <pt x="719" y="577" on="0"/>
        <pt x="765" y="441" on="0"/>
        <pt x="765" y="371" on="1"/>
        <pt x="765" y="300" on="0"/>
        <pt x="719" y="164" on="0"/>
        <pt x="630" y="55" on="0"/>
        <pt x="498" y="-10" on="0"/>
      </contour>
      <contour>
        <pt x="411" y="62" on="1"/>
        <pt x="492" y="62" on="0"/>
        <pt x="616" y="143" on="0"/>
        <pt x="686" y="283" on="0"/>
        <pt x="686" y="371" on="1"/>
        <pt x="686" y="458" on="0"/>
        <pt x="616" y="597" on="0"/>
        <pt x="492" y="678" on="0"/>
        <pt x="411" y="678" on="1"/>
        <pt x="329" y="678" on="0"/>
        <pt x="205" y="597" on="0"/>
        <pt x="135" y="458" on="0"/>
        <pt x="135" y="371" on="1"/>
        <pt x="135" y="283" on="0"/>
        <pt x="205" y="143" on="0"/>
        <pt x="329" y="62" on="0"/>
      </contour>
    </TTGlyph>
    <TTGlyph name="Ocircumflex" xMin="57" yMin="-10" xMax="765" yMax="971">
      <contour>
        <pt x="260" y="827" on="1"/>
        <pt x="378" y="971" on="1"/>
        <pt x="444" y="971" on="1"/>
        <pt x="562" y="827" on="1"/>
        <pt x="492" y="827" on="1"/>
        <pt x="411" y="926" on="1"/>
        <pt x="330" y="827" on="1"/>
      </contour>
      <contour>
        <pt x="411" y="-10" on="1"/>
        <pt x="324" y="-10" on="0"/>
        <pt x="191" y="55" on="0"/>
        <pt x="102" y="164" on="0"/>
        <pt x="57" y="300" on="0"/>
        <pt x="57" y="371" on="1"/>
        <pt x="57" y="441" on="0"/>
        <pt x="102" y="577" on="0"/>
        <pt x="191" y="686" on="0"/>
        <pt x="324" y="750" on="0"/>
        <pt x="411" y="750" on="1"/>
        <pt x="498" y="750" on="0"/>
        <pt x="630" y="686" on="0"/>
        <pt x="719" y="577" on="0"/>
        <pt x="765" y="441" on="0"/>
        <pt x="765" y="371" on="1"/>
        <pt x="765" y="300" on="0"/>
        <pt x="719" y="164" on="0"/>
        <pt x="630" y="55" on="0"/>
        <pt x="498" y="-10" on="0"/>
      </contour>
      <contour>
        <pt x="411" y="62" on="1"/>
        <pt x="492" y="62" on="0"/>
        <pt x="616" y="143" on="0"/>
        <pt x="686" y="283" on="0"/>
        <pt x="686" y="371" on="1"/>
        <pt x="686" y="458" on="0"/>
        <pt x="616" y="597" on="0"/>
        <pt x="492" y="678" on="0"/>
        <pt x="411" y="678" on="1"/>
        <pt x="329" y="678" on="0"/>
        <pt x="205" y="597" on="0"/>
        <pt x="135" y="458" on="0"/>
        <pt x="135" y="371" on="1"/>
        <pt x="135" y="283" on="0"/>
        <pt x="205" y="143" on="0"/>
        <pt x="329" y="62" on="0"/>
      </contour>
    </TTGlyph>
    <TTGlyph name="Odieresis" xMin="57" yMin="-10" xMax="765" yMax="943">
      <contour>
        <pt x="497" y="837" on="1"/>
        <pt x="474" y="837" on="0"/>
        <pt x="444" y="869" on="0"/>
        <pt x="444" y="890" on="1"/>
        <pt x="444" y="912" on="0"/>
        <pt x="474" y="943" on="0"/>
        <pt x="497" y="943" on="1"/>
        <pt x="520" y="943" on="0"/>
        <pt x="550" y="912" on="0"/>
        <pt x="550" y="890" on="1"/>
        <pt x="550" y="868" on="0"/>
        <pt x="520" y="837" on="0"/>
      </contour>
      <contour>
        <pt x="324" y="837" on="1"/>
        <pt x="301" y="837" on="0"/>
        <pt x="271" y="869" on="0"/>
        <pt x="271" y="890" on="1"/>
        <pt x="271" y="912" on="0"/>
        <pt x="301" y="943" on="0"/>
        <pt x="324" y="943" on="1"/>
        <pt x="347" y="943" on="0"/>
        <pt x="377" y="912" on="0"/>
        <pt x="377" y="890" on="1"/>
        <pt x="377" y="868" on="0"/>
        <pt x="347" y="837" on="0"/>
      </contour>
      <contour>
        <pt x="411" y="-10" on="1"/>
        <pt x="324" y="-10" on="0"/>
        <pt x="191" y="55" on="0"/>
        <pt x="102" y="164" on="0"/>
        <pt x="57" y="300" on="0"/>
        <pt x="57" y="371" on="1"/>
        <pt x="57" y="441" on="0"/>
        <pt x="102" y="577" on="0"/>
        <pt x="191" y="686" on="0"/>
        <pt x="324" y="750" on="0"/>
        <pt x="411" y="750" on="1"/>
        <pt x="498" y="750" on="0"/>
        <pt x="630" y="686" on="0"/>
        <pt x="719" y="577" on="0"/>
        <pt x="765" y="441" on="0"/>
        <pt x="765" y="371" on="1"/>
        <pt x="765" y="300" on="0"/>
        <pt x="719" y="164" on="0"/>
        <pt x="630" y="55" on="0"/>
        <pt x="498" y="-10" on="0"/>
      </contour>
      <contour>
        <pt x="411" y="62" on="1"/>
        <pt x="492" y="62" on="0"/>
        <pt x="616" y="143" on="0"/>
        <pt x="686" y="283" on="0"/>
        <pt x="686" y="371" on="1"/>
        <pt x="686" y="458" on="0"/>
        <pt x="616" y="597" on="0"/>
        <pt x="492" y="678" on="0"/>
        <pt x="411" y="678" on="1"/>
        <pt x="329" y="678" on="0"/>
        <pt x="205" y="597" on="0"/>
        <pt x="135" y="458" on="0"/>
        <pt x="135" y="371" on="1"/>
        <pt x="135" y="283" on="0"/>
        <pt x="205" y="143" on="0"/>
        <pt x="329" y="62" on="0"/>
      </contour>
    </TTGlyph>
    <TTGlyph name="Ograve" xMin="57" yMin="-10" xMax="765" yMax="1004">
      <contour>
        <pt x="380" y="833" on="1"/>
        <pt x="281" y="1004" on="1"/>
        <pt x="360" y="1004" on="1"/>
        <pt x="445" y="833" on="1"/>
      </contour>
      <contour>
        <pt x="411" y="-10" on="1"/>
        <pt x="324" y="-10" on="0"/>
        <pt x="191" y="55" on="0"/>
        <pt x="102" y="164" on="0"/>
        <pt x="57" y="300" on="0"/>
        <pt x="57" y="371" on="1"/>
        <pt x="57" y="441" on="0"/>
        <pt x="102" y="577" on="0"/>
        <pt x="191" y="686" on="0"/>
        <pt x="324" y="750" on="0"/>
        <pt x="411" y="750" on="1"/>
        <pt x="498" y="750" on="0"/>
        <pt x="630" y="686" on="0"/>
        <pt x="719" y="577" on="0"/>
        <pt x="765" y="441" on="0"/>
        <pt x="765" y="371" on="1"/>
        <pt x="765" y="300" on="0"/>
        <pt x="719" y="164" on="0"/>
        <pt x="630" y="55" on="0"/>
        <pt x="498" y="-10" on="0"/>
      </contour>
      <contour>
        <pt x="411" y="62" on="1"/>
        <pt x="492" y="62" on="0"/>
        <pt x="616" y="143" on="0"/>
        <pt x="686" y="283" on="0"/>
        <pt x="686" y="371" on="1"/>
        <pt x="686" y="458" on="0"/>
        <pt x="616" y="597" on="0"/>
        <pt x="492" y="678" on="0"/>
        <pt x="411" y="678" on="1"/>
        <pt x="329" y="678" on="0"/>
        <pt x="205" y="597" on="0"/>
        <pt x="135" y="458" on="0"/>
        <pt x="135" y="371" on="1"/>
        <pt x="135" y="283" on="0"/>
        <pt x="205" y="143" on="0"/>
        <pt x="329" y="62" on="0"/>
      </contour>
    </TTGlyph>
    <TTGlyph name="Ohorn" xMin="57" yMin="-10" xMax="765" yMax="847">
      <contour>
        <pt x="411" y="-10" on="1"/>
        <pt x="324" y="-10" on="0"/>
        <pt x="191" y="55" on="0"/>
        <pt x="102" y="164" on="0"/>
        <pt x="57" y="300" on="0"/>
        <pt x="57" y="371" on="1"/>
        <pt x="57" y="441" on="0"/>
        <pt x="102" y="577" on="0"/>
        <pt x="191" y="686" on="0"/>
        <pt x="324" y="750" on="0"/>
        <pt x="411" y="750" on="1"/>
        <pt x="419" y="750" on="0"/>
        <pt x="427" y="750" on="1"/>
        <pt x="573" y="750" on="1"/>
        <pt x="620" y="750" on="0"/>
        <pt x="620" y="799" on="1"/>
        <pt x="620" y="847" on="1"/>
        <pt x="691" y="847" on="1"/>
        <pt x="691" y="799" on="1"/>
        <pt x="691" y="753" on="0"/>
        <pt x="648" y="699" on="0"/>
        <pt x="603" y="696" on="1"/>
        <pt x="656" y="660" on="0"/>
        <pt x="728" y="557" on="0"/>
        <pt x="765" y="434" on="0"/>
        <pt x="765" y="371" on="1"/>
        <pt x="765" y="300" on="0"/>
        <pt x="719" y="164" on="0"/>
        <pt x="630" y="55" on="0"/>
        <pt x="498" y="-10" on="0"/>
      </contour>
      <contour>
        <pt x="411" y="62" on="1"/>
        <pt x="492" y="62" on="0"/>
        <pt x="616" y="143" on="0"/>
        <pt x="686" y="283" on="0"/>
        <pt x="686" y="371" on="1"/>
        <pt x="686" y="458" on="0"/>
        <pt x="616" y="597" on="0"/>
        <pt x="492" y="678" on="0"/>
        <pt x="411" y="678" on="1"/>
        <pt x="329" y="678" on="0"/>
        <pt x="205" y="597" on="0"/>
        <pt x="135" y="458" on="0"/>
        <pt x="135" y="371" on="1"/>
        <pt x="135" y="283" on="0"/>
        <pt x="205" y="143" on="0"/>
        <pt x="329" y="62" on="0"/>
      </contour>
    </TTGlyph>
    <TTGlyph name="Ohungarumlaut" xMin="57" yMin="-10" xMax="765" yMax="1004">
      <contour>
        <pt x="368" y="833" on="1"/>
        <pt x="303" y="833" on="1"/>
        <pt x="352" y="1004" on="1"/>
        <pt x="431" y="1004" on="1"/>
      </contour>
      <contour>
        <pt x="516" y="833" on="1"/>
        <pt x="450" y="833" on="1"/>
        <pt x="499" y="1004" on="1"/>
        <pt x="578" y="1004" on="1"/>
      </contour>
      <contour>
        <pt x="411" y="-10" on="1"/>
        <pt x="324" y="-10" on="0"/>
        <pt x="191" y="55" on="0"/>
        <pt x="102" y="164" on="0"/>
        <pt x="57" y="300" on="0"/>
        <pt x="57" y="371" on="1"/>
        <pt x="57" y="441" on="0"/>
        <pt x="102" y="577" on="0"/>
        <pt x="191" y="686" on="0"/>
        <pt x="324" y="750" on="0"/>
        <pt x="411" y="750" on="1"/>
        <pt x="498" y="750" on="0"/>
        <pt x="630" y="686" on="0"/>
        <pt x="719" y="577" on="0"/>
        <pt x="765" y="441" on="0"/>
        <pt x="765" y="371" on="1"/>
        <pt x="765" y="300" on="0"/>
        <pt x="719" y="164" on="0"/>
        <pt x="630" y="55" on="0"/>
        <pt x="498" y="-10" on="0"/>
      </contour>
      <contour>
        <pt x="411" y="62" on="1"/>
        <pt x="492" y="62" on="0"/>
        <pt x="616" y="143" on="0"/>
        <pt x="686" y="283" on="0"/>
        <pt x="686" y="371" on="1"/>
        <pt x="686" y="458" on="0"/>
        <pt x="616" y="597" on="0"/>
        <pt x="492" y="678" on="0"/>
        <pt x="411" y="678" on="1"/>
        <pt x="329" y="678" on="0"/>
        <pt x="205" y="597" on="0"/>
        <pt x="135" y="458" on="0"/>
        <pt x="135" y="371" on="1"/>
        <pt x="135" y="283" on="0"/>
        <pt x="205" y="143" on="0"/>
        <pt x="329" y="62" on="0"/>
      </contour>
    </TTGlyph>
    <TTGlyph name="Omacron" xMin="57" yMin="-10" xMax="765" yMax="908">
      <contour>
        <pt x="263" y="850" on="1"/>
        <pt x="263" y="908" on="1"/>
        <pt x="559" y="908" on="1"/>
        <pt x="559" y="850" on="1"/>
      </contour>
      <contour>
        <pt x="411" y="-10" on="1"/>
        <pt x="324" y="-10" on="0"/>
        <pt x="191" y="55" on="0"/>
        <pt x="102" y="164" on="0"/>
        <pt x="57" y="300" on="0"/>
        <pt x="57" y="371" on="1"/>
        <pt x="57" y="441" on="0"/>
        <pt x="102" y="577" on="0"/>
        <pt x="191" y="686" on="0"/>
        <pt x="324" y="750" on="0"/>
        <pt x="411" y="750" on="1"/>
        <pt x="498" y="750" on="0"/>
        <pt x="630" y="686" on="0"/>
        <pt x="719" y="577" on="0"/>
        <pt x="765" y="441" on="0"/>
        <pt x="765" y="371" on="1"/>
        <pt x="765" y="300" on="0"/>
        <pt x="719" y="164" on="0"/>
        <pt x="630" y="55" on="0"/>
        <pt x="498" y="-10" on="0"/>
      </contour>
      <contour>
        <pt x="411" y="62" on="1"/>
        <pt x="492" y="62" on="0"/>
        <pt x="616" y="143" on="0"/>
        <pt x="686" y="283" on="0"/>
        <pt x="686" y="371" on="1"/>
        <pt x="686" y="458" on="0"/>
        <pt x="616" y="597" on="0"/>
        <pt x="492" y="678" on="0"/>
        <pt x="411" y="678" on="1"/>
        <pt x="329" y="678" on="0"/>
        <pt x="205" y="597" on="0"/>
        <pt x="135" y="458" on="0"/>
        <pt x="135" y="371" on="1"/>
        <pt x="135" y="283" on="0"/>
        <pt x="205" y="143" on="0"/>
        <pt x="329" y="62" on="0"/>
      </contour>
    </TTGlyph>
    <TTGlyph name="Oslash" xMin="57" yMin="-24" xMax="765" yMax="763">
      <contour>
        <pt x="116" y="-24" on="1"/>
        <pt x="179" y="75" on="1"/>
        <pt x="118" y="130" on="0"/>
        <pt x="57" y="288" on="0"/>
        <pt x="57" y="371" on="1"/>
        <pt x="57" y="441" on="0"/>
        <pt x="102" y="577" on="0"/>
        <pt x="191" y="686" on="0"/>
        <pt x="324" y="750" on="0"/>
        <pt x="411" y="750" on="1"/>
        <pt x="461" y="750" on="0"/>
        <pt x="547" y="727" on="0"/>
        <pt x="584" y="707" on="1"/>
        <pt x="620" y="763" on="1"/>
        <pt x="703" y="763" on="1"/>
        <pt x="641" y="666" on="1"/>
        <pt x="702" y="611" on="0"/>
        <pt x="765" y="454" on="0"/>
        <pt x="765" y="371" on="1"/>
        <pt x="765" y="300" on="0"/>
        <pt x="719" y="164" on="0"/>
        <pt x="630" y="55" on="0"/>
        <pt x="498" y="-10" on="0"/>
        <pt x="411" y="-10" on="1"/>
        <pt x="360" y="-10" on="0"/>
        <pt x="273" y="13" on="0"/>
        <pt x="236" y="34" on="1"/>
        <pt x="199" y="-24" on="1"/>
      </contour>
      <contour>
        <pt x="135" y="371" on="1"/>
        <pt x="135" y="301" on="0"/>
        <pt x="180" y="182" on="0"/>
        <pt x="221" y="141" on="1"/>
        <pt x="543" y="644" on="1"/>
        <pt x="483" y="678" on="0"/>
        <pt x="411" y="678" on="1"/>
        <pt x="329" y="678" on="0"/>
        <pt x="205" y="597" on="0"/>
        <pt x="135" y="458" on="0"/>
      </contour>
      <contour>
        <pt x="411" y="62" on="1"/>
        <pt x="492" y="62" on="0"/>
        <pt x="616" y="143" on="0"/>
        <pt x="686" y="283" on="0"/>
        <pt x="686" y="371" on="1"/>
        <pt x="686" y="441" on="0"/>
        <pt x="640" y="559" on="0"/>
        <pt x="599" y="601" on="1"/>
        <pt x="277" y="97" on="1"/>
        <pt x="337" y="62" on="0"/>
      </contour>
    </TTGlyph>
    <TTGlyph name="Otilde" xMin="57" yMin="-10" xMax="765" yMax="965">
      <contour>
        <pt x="476" y="838" on="1"/>
        <pt x="451" y="838" on="0"/>
        <pt x="416" y="860" on="0"/>
        <pt x="389" y="888" on="0"/>
        <pt x="365" y="909" on="0"/>
        <pt x="351" y="909" on="1"/>
        <pt x="333" y="909" on="0"/>
        <pt x="317" y="874" on="0"/>
        <pt x="317" y="844" on="1"/>
        <pt x="265" y="844" on="1"/>
        <pt x="265" y="874" on="0"/>
        <pt x="279" y="930" on="0"/>
        <pt x="315" y="965" on="0"/>
        <pt x="347" y="965" on="1"/>
        <pt x="373" y="965" on="0"/>
        <pt x="409" y="944" on="0"/>
        <pt x="435" y="916" on="0"/>
        <pt x="458" y="895" on="0"/>
        <pt x="472" y="895" on="1"/>
        <pt x="489" y="895" on="0"/>
        <pt x="504" y="930" on="0"/>
        <pt x="504" y="960" on="1"/>
        <pt x="557" y="960" on="1"/>
        <pt x="557" y="930" on="0"/>
        <pt x="542" y="874" on="0"/>
        <pt x="507" y="838" on="0"/>
      </contour>
      <contour>
        <pt x="411" y="-10" on="1"/>
        <pt x="324" y="-10" on="0"/>
        <pt x="191" y="55" on="0"/>
        <pt x="102" y="164" on="0"/>
        <pt x="57" y="300" on="0"/>
        <pt x="57" y="371" on="1"/>
        <pt x="57" y="441" on="0"/>
        <pt x="102" y="577" on="0"/>
        <pt x="191" y="686" on="0"/>
        <pt x="324" y="750" on="0"/>
        <pt x="411" y="750" on="1"/>
        <pt x="498" y="750" on="0"/>
        <pt x="630" y="686" on="0"/>
        <pt x="719" y="577" on="0"/>
        <pt x="765" y="441" on="0"/>
        <pt x="765" y="371" on="1"/>
        <pt x="765" y="300" on="0"/>
        <pt x="719" y="164" on="0"/>
        <pt x="630" y="55" on="0"/>
        <pt x="498" y="-10" on="0"/>
      </contour>
      <contour>
        <pt x="411" y="62" on="1"/>
        <pt x="492" y="62" on="0"/>
        <pt x="616" y="143" on="0"/>
        <pt x="686" y="283" on="0"/>
        <pt x="686" y="371" on="1"/>
        <pt x="686" y="458" on="0"/>
        <pt x="616" y="597" on="0"/>
        <pt x="492" y="678" on="0"/>
        <pt x="411" y="678" on="1"/>
        <pt x="329" y="678" on="0"/>
        <pt x="205" y="597" on="0"/>
        <pt x="135" y="458" on="0"/>
        <pt x="135" y="371" on="1"/>
        <pt x="135" y="283" on="0"/>
        <pt x="205" y="143" on="0"/>
        <pt x="329" y="62" on="0"/>
      </contour>
    </TTGlyph>
    <TTGlyph name="P" xMin="83" yMin="0" xMax="588" yMax="740">
      <contour>
        <pt x="83" y="0" on="1"/>
        <pt x="83" y="740" on="1"/>
        <pt x="341" y="740" on="1"/>
        <pt x="423" y="740" on="0"/>
        <pt x="533" y="671" on="0"/>
        <pt x="588" y="563" on="0"/>
        <pt x="588" y="505" on="1"/>
        <pt x="588" y="445" on="0"/>
        <pt x="533" y="337" on="0"/>
        <pt x="423" y="268" on="0"/>
        <pt x="341" y="268" on="1"/>
        <pt x="160" y="268" on="1"/>
        <pt x="160" y="0" on="1"/>
      </contour>
      <contour>
        <pt x="341" y="671" on="1"/>
        <pt x="160" y="671" on="1"/>
        <pt x="160" y="337" on="1"/>
        <pt x="341" y="337" on="1"/>
        <pt x="398" y="337" on="0"/>
        <pt x="474" y="385" on="0"/>
        <pt x="512" y="462" on="0"/>
        <pt x="512" y="504" on="1"/>
        <pt x="512" y="546" on="0"/>
        <pt x="474" y="623" on="0"/>
        <pt x="398" y="671" on="0"/>
      </contour>
    </TTGlyph>
    <TTGlyph name="Q" xMin="57" yMin="-10" xMax="772" yMax="750">
      <contour>
        <pt x="411" y="-10" on="1"/>
        <pt x="324" y="-10" on="0"/>
        <pt x="191" y="55" on="0"/>
        <pt x="102" y="164" on="0"/>
        <pt x="57" y="300" on="0"/>
        <pt x="57" y="371" on="1"/>
        <pt x="57" y="441" on="0"/>
        <pt x="102" y="577" on="0"/>
        <pt x="191" y="686" on="0"/>
        <pt x="324" y="750" on="0"/>
        <pt x="411" y="750" on="1"/>
        <pt x="498" y="750" on="0"/>
        <pt x="630" y="686" on="0"/>
        <pt x="719" y="577" on="0"/>
        <pt x="765" y="441" on="0"/>
        <pt x="765" y="371" on="1"/>
        <pt x="765" y="297" on="0"/>
        <pt x="716" y="156" on="0"/>
        <pt x="669" y="102" on="1"/>
        <pt x="772" y="0" on="1"/>
        <pt x="676" y="0" on="1"/>
        <pt x="619" y="56" on="1"/>
        <pt x="578" y="25" on="0"/>
        <pt x="474" y="-10" on="0"/>
      </contour>
      <contour>
        <pt x="411" y="62" on="1"/>
        <pt x="455" y="62" on="0"/>
        <pt x="532" y="87" on="0"/>
        <pt x="564" y="110" on="1"/>
        <pt x="434" y="238" on="1"/>
        <pt x="485" y="285" on="1"/>
        <pt x="615" y="156" on="1"/>
        <pt x="649" y="197" on="0"/>
        <pt x="686" y="307" on="0"/>
        <pt x="686" y="371" on="1"/>
        <pt x="686" y="458" on="0"/>
        <pt x="616" y="597" on="0"/>
        <pt x="492" y="678" on="0"/>
        <pt x="411" y="678" on="1"/>
        <pt x="329" y="678" on="0"/>
        <pt x="205" y="597" on="0"/>
        <pt x="135" y="458" on="0"/>
        <pt x="135" y="371" on="1"/>
        <pt x="135" y="283" on="0"/>
        <pt x="205" y="143" on="0"/>
        <pt x="329" y="62" on="0"/>
      </contour>
    </TTGlyph>
    <TTGlyph name="R" xMin="83" yMin="0" xMax="586" yMax="740">
      <contour>
        <pt x="83" y="0" on="1"/>
        <pt x="83" y="740" on="1"/>
        <pt x="333" y="740" on="1"/>
        <pt x="409" y="740" on="0"/>
        <pt x="511" y="679" on="0"/>
        <pt x="561" y="584" on="0"/>
        <pt x="561" y="531" on="1"/>
        <pt x="561" y="486" on="0"/>
        <pt x="524" y="402" on="0"/>
        <pt x="450" y="340" on="0"/>
        <pt x="394" y="328" on="1"/>
        <pt x="586" y="0" on="1"/>
        <pt x="499" y="0" on="1"/>
        <pt x="312" y="322" on="1"/>
        <pt x="160" y="322" on="1"/>
        <pt x="160" y="0" on="1"/>
      </contour>
      <contour>
        <pt x="332" y="671" on="1"/>
        <pt x="160" y="671" on="1"/>
        <pt x="160" y="389" on="1"/>
        <pt x="332" y="389" on="1"/>
        <pt x="383" y="389" on="0"/>
        <pt x="449" y="430" on="0"/>
        <pt x="483" y="495" on="0"/>
        <pt x="483" y="530" on="1"/>
        <pt x="483" y="565" on="0"/>
        <pt x="449" y="630" on="0"/>
        <pt x="383" y="671" on="0"/>
      </contour>
    </TTGlyph>
    <TTGlyph name="Racute" xMin="90" yMin="0" xMax="593" yMax="994">
      <contour>
        <pt x="313" y="823" on="1"/>
        <pt x="248" y="823" on="1"/>
        <pt x="333" y="994" on="1"/>
        <pt x="412" y="994" on="1"/>
      </contour>
      <contour>
        <pt x="90" y="0" on="1"/>
        <pt x="90" y="740" on="1"/>
        <pt x="340" y="740" on="1"/>
        <pt x="416" y="740" on="0"/>
        <pt x="517" y="679" on="0"/>
        <pt x="568" y="584" on="0"/>
        <pt x="568" y="531" on="1"/>
        <pt x="568" y="486" on="0"/>
        <pt x="531" y="402" on="0"/>
        <pt x="456" y="340" on="0"/>
        <pt x="400" y="328" on="1"/>
        <pt x="593" y="0" on="1"/>
        <pt x="505" y="0" on="1"/>
        <pt x="318" y="322" on="1"/>
        <pt x="167" y="322" on="1"/>
        <pt x="167" y="0" on="1"/>
      </contour>
      <contour>
        <pt x="339" y="671" on="1"/>
        <pt x="167" y="671" on="1"/>
        <pt x="167" y="389" on="1"/>
        <pt x="339" y="389" on="1"/>
        <pt x="389" y="389" on="0"/>
        <pt x="456" y="430" on="0"/>
        <pt x="489" y="495" on="0"/>
        <pt x="489" y="530" on="1"/>
        <pt x="489" y="565" on="0"/>
        <pt x="456" y="630" on="0"/>
        <pt x="389" y="671" on="0"/>
      </contour>
    </TTGlyph>
    <TTGlyph name="Rcaron" xMin="90" yMin="0" xMax="593" yMax="971">
      <contour>
        <pt x="246" y="809" on="1"/>
        <pt x="128" y="971" on="1"/>
        <pt x="198" y="971" on="1"/>
        <pt x="279" y="858" on="1"/>
        <pt x="360" y="971" on="1"/>
        <pt x="430" y="971" on="1"/>
        <pt x="312" y="809" on="1"/>
      </contour>
      <contour>
        <pt x="90" y="0" on="1"/>
        <pt x="90" y="740" on="1"/>
        <pt x="340" y="740" on="1"/>
        <pt x="416" y="740" on="0"/>
        <pt x="517" y="679" on="0"/>
        <pt x="568" y="584" on="0"/>
        <pt x="568" y="531" on="1"/>
        <pt x="568" y="486" on="0"/>
        <pt x="531" y="402" on="0"/>
        <pt x="456" y="340" on="0"/>
        <pt x="400" y="328" on="1"/>
        <pt x="593" y="0" on="1"/>
        <pt x="505" y="0" on="1"/>
        <pt x="318" y="322" on="1"/>
        <pt x="167" y="322" on="1"/>
        <pt x="167" y="0" on="1"/>
      </contour>
      <contour>
        <pt x="339" y="671" on="1"/>
        <pt x="167" y="671" on="1"/>
        <pt x="167" y="389" on="1"/>
        <pt x="339" y="389" on="1"/>
        <pt x="389" y="389" on="0"/>
        <pt x="456" y="430" on="0"/>
        <pt x="489" y="495" on="0"/>
        <pt x="489" y="530" on="1"/>
        <pt x="489" y="565" on="0"/>
        <pt x="456" y="630" on="0"/>
        <pt x="389" y="671" on="0"/>
      </contour>
    </TTGlyph>
    <TTGlyph name="S" xMin="54" yMin="-10" xMax="573" yMax="750">
      <contour>
        <pt x="324" y="-10" on="1"/>
        <pt x="259" y="-10" on="0"/>
        <pt x="168" y="23" on="0"/>
        <pt x="109" y="75" on="0"/>
        <pt x="74" y="133" on="0"/>
        <pt x="58" y="185" on="0"/>
        <pt x="54" y="218" on="0"/>
        <pt x="54" y="218" on="1"/>
        <pt x="132" y="218" on="1"/>
        <pt x="132" y="218" on="0"/>
        <pt x="137" y="186" on="0"/>
        <pt x="156" y="139" on="0"/>
        <pt x="198" y="92" on="0"/>
        <pt x="270" y="61" on="0"/>
        <pt x="326" y="61" on="1"/>
        <pt x="402" y="61" on="0"/>
        <pt x="496" y="139" on="0"/>
        <pt x="496" y="201" on="1"/>
        <pt x="496" y="259" on="0"/>
        <pt x="421" y="319" on="0"/>
        <pt x="360" y="334" on="1"/>
        <pt x="265" y="357" on="1"/>
        <pt x="211" y="371" on="0"/>
        <pt x="125" y="418" on="0"/>
        <pt x="75" y="493" on="0"/>
        <pt x="75" y="548" on="1"/>
        <pt x="75" y="611" on="0"/>
        <pt x="137" y="701" on="0"/>
        <pt x="243" y="750" on="0"/>
        <pt x="311" y="750" on="1"/>
        <pt x="379" y="750" on="0"/>
        <pt x="467" y="708" on="0"/>
        <pt x="519" y="647" on="0"/>
        <pt x="544" y="585" on="0"/>
        <pt x="551" y="543" on="0"/>
        <pt x="551" y="543" on="1"/>
        <pt x="475" y="543" on="1"/>
        <pt x="475" y="543" on="0"/>
        <pt x="471" y="571" on="0"/>
        <pt x="454" y="612" on="0"/>
        <pt x="418" y="653" on="0"/>
        <pt x="356" y="681" on="0"/>
        <pt x="309" y="681" on="1"/>
        <pt x="231" y="681" on="0"/>
        <pt x="151" y="604" on="0"/>
        <pt x="151" y="553" on="1"/>
        <pt x="151" y="506" on="0"/>
        <pt x="216" y="450" on="0"/>
        <pt x="274" y="436" on="1"/>
        <pt x="375" y="411" on="1"/>
        <pt x="432" y="397" on="0"/>
        <pt x="521" y="345" on="0"/>
        <pt x="573" y="263" on="0"/>
        <pt x="573" y="205" on="1"/>
        <pt x="573" y="147" on="0"/>
        <pt x="514" y="49" on="0"/>
        <pt x="403" y="-10" on="0"/>
      </contour>
    </TTGlyph>
    <TTGlyph name="Sacute" xMin="54" yMin="-10" xMax="573" yMax="994">
      <contour>
        <pt x="347" y="823" on="1"/>
        <pt x="282" y="823" on="1"/>
        <pt x="367" y="994" on="1"/>
        <pt x="446" y="994" on="1"/>
      </contour>
      <contour>
        <pt x="324" y="-10" on="1"/>
        <pt x="259" y="-10" on="0"/>
        <pt x="168" y="23" on="0"/>
        <pt x="109" y="75" on="0"/>
        <pt x="74" y="133" on="0"/>
        <pt x="58" y="185" on="0"/>
        <pt x="54" y="218" on="0"/>
        <pt x="54" y="218" on="1"/>
        <pt x="132" y="218" on="1"/>
        <pt x="132" y="218" on="0"/>
        <pt x="137" y="186" on="0"/>
        <pt x="156" y="139" on="0"/>
        <pt x="198" y="92" on="0"/>
        <pt x="270" y="61" on="0"/>
        <pt x="326" y="61" on="1"/>
        <pt x="402" y="61" on="0"/>
        <pt x="496" y="139" on="0"/>
        <pt x="496" y="201" on="1"/>
        <pt x="496" y="259" on="0"/>
        <pt x="421" y="319" on="0"/>
        <pt x="360" y="334" on="1"/>
        <pt x="265" y="357" on="1"/>
        <pt x="211" y="371" on="0"/>
        <pt x="125" y="418" on="0"/>
        <pt x="75" y="493" on="0"/>
        <pt x="75" y="548" on="1"/>
        <pt x="75" y="611" on="0"/>
        <pt x="137" y="701" on="0"/>
        <pt x="243" y="750" on="0"/>
        <pt x="311" y="750" on="1"/>
        <pt x="379" y="750" on="0"/>
        <pt x="467" y="708" on="0"/>
        <pt x="519" y="647" on="0"/>
        <pt x="544" y="585" on="0"/>
        <pt x="551" y="543" on="0"/>
        <pt x="551" y="543" on="1"/>
        <pt x="475" y="543" on="1"/>
        <pt x="475" y="543" on="0"/>
        <pt x="471" y="571" on="0"/>
        <pt x="454" y="612" on="0"/>
        <pt x="418" y="653" on="0"/>
        <pt x="356" y="681" on="0"/>
        <pt x="309" y="681" on="1"/>
        <pt x="231" y="681" on="0"/>
        <pt x="151" y="604" on="0"/>
        <pt x="151" y="553" on="1"/>
        <pt x="151" y="506" on="0"/>
        <pt x="216" y="450" on="0"/>
        <pt x="274" y="436" on="1"/>
        <pt x="375" y="411" on="1"/>
        <pt x="432" y="397" on="0"/>
        <pt x="521" y="345" on="0"/>
        <pt x="573" y="263" on="0"/>
        <pt x="573" y="205" on="1"/>
        <pt x="573" y="147" on="0"/>
        <pt x="514" y="49" on="0"/>
        <pt x="403" y="-10" on="0"/>
      </contour>
    </TTGlyph>
    <TTGlyph name="Scaron" xMin="54" yMin="-10" xMax="573" yMax="971">
      <contour>
        <pt x="280" y="809" on="1"/>
        <pt x="162" y="971" on="1"/>
        <pt x="232" y="971" on="1"/>
        <pt x="313" y="858" on="1"/>
        <pt x="394" y="971" on="1"/>
        <pt x="464" y="971" on="1"/>
        <pt x="346" y="809" on="1"/>
      </contour>
      <contour>
        <pt x="324" y="-10" on="1"/>
        <pt x="259" y="-10" on="0"/>
        <pt x="168" y="23" on="0"/>
        <pt x="109" y="75" on="0"/>
        <pt x="74" y="133" on="0"/>
        <pt x="58" y="185" on="0"/>
        <pt x="54" y="218" on="0"/>
        <pt x="54" y="218" on="1"/>
        <pt x="132" y="218" on="1"/>
        <pt x="132" y="218" on="0"/>
        <pt x="137" y="186" on="0"/>
        <pt x="156" y="139" on="0"/>
        <pt x="198" y="92" on="0"/>
        <pt x="270" y="61" on="0"/>
        <pt x="326" y="61" on="1"/>
        <pt x="402" y="61" on="0"/>
        <pt x="496" y="139" on="0"/>
        <pt x="496" y="201" on="1"/>
        <pt x="496" y="259" on="0"/>
        <pt x="421" y="319" on="0"/>
        <pt x="360" y="334" on="1"/>
        <pt x="265" y="357" on="1"/>
        <pt x="211" y="371" on="0"/>
        <pt x="125" y="418" on="0"/>
        <pt x="75" y="493" on="0"/>
        <pt x="75" y="548" on="1"/>
        <pt x="75" y="611" on="0"/>
        <pt x="137" y="701" on="0"/>
        <pt x="243" y="750" on="0"/>
        <pt x="311" y="750" on="1"/>
        <pt x="379" y="750" on="0"/>
        <pt x="467" y="708" on="0"/>
        <pt x="519" y="647" on="0"/>
        <pt x="544" y="585" on="0"/>
        <pt x="551" y="543" on="0"/>
        <pt x="551" y="543" on="1"/>
        <pt x="475" y="543" on="1"/>
        <pt x="475" y="543" on="0"/>
        <pt x="471" y="571" on="0"/>
        <pt x="454" y="612" on="0"/>
        <pt x="418" y="653" on="0"/>
        <pt x="356" y="681" on="0"/>
        <pt x="309" y="681" on="1"/>
        <pt x="231" y="681" on="0"/>
        <pt x="151" y="604" on="0"/>
        <pt x="151" y="553" on="1"/>
        <pt x="151" y="506" on="0"/>
        <pt x="216" y="450" on="0"/>
        <pt x="274" y="436" on="1"/>
        <pt x="375" y="411" on="1"/>
        <pt x="432" y="397" on="0"/>
        <pt x="521" y="345" on="0"/>
        <pt x="573" y="263" on="0"/>
        <pt x="573" y="205" on="1"/>
        <pt x="573" y="147" on="0"/>
        <pt x="514" y="49" on="0"/>
        <pt x="403" y="-10" on="0"/>
      </contour>
    </TTGlyph>
    <TTGlyph name="Scedilla" xMin="54" yMin="-256" xMax="573" yMax="750">
      <contour>
        <pt x="297" y="-256" on="1"/>
        <pt x="272" y="-256" on="0"/>
        <pt x="229" y="-249" on="0"/>
        <pt x="229" y="-249" on="1"/>
        <pt x="229" y="-200" on="1"/>
        <pt x="229" y="-200" on="0"/>
        <pt x="273" y="-207" on="0"/>
        <pt x="294" y="-207" on="1"/>
        <pt x="336" y="-207" on="0"/>
        <pt x="368" y="-171" on="0"/>
        <pt x="368" y="-152" on="1"/>
        <pt x="368" y="-134" on="0"/>
        <pt x="340" y="-105" on="0"/>
        <pt x="311" y="-105" on="1"/>
        <pt x="286" y="-105" on="0"/>
        <pt x="254" y="-125" on="0"/>
        <pt x="254" y="-125" on="1"/>
        <pt x="223" y="-94" on="1"/>
        <pt x="273" y="-7" on="1"/>
        <pt x="210" y="2" on="0"/>
        <pt x="128" y="52" on="0"/>
        <pt x="81" y="116" on="0"/>
        <pt x="60" y="177" on="0"/>
        <pt x="54" y="218" on="0"/>
        <pt x="54" y="218" on="1"/>
        <pt x="132" y="218" on="1"/>
        <pt x="132" y="218" on="0"/>
        <pt x="137" y="186" on="0"/>
        <pt x="156" y="139" on="0"/>
        <pt x="198" y="92" on="0"/>
        <pt x="270" y="61" on="0"/>
        <pt x="326" y="61" on="1"/>
        <pt x="402" y="61" on="0"/>
        <pt x="496" y="139" on="0"/>
        <pt x="496" y="201" on="1"/>
        <pt x="496" y="259" on="0"/>
        <pt x="421" y="319" on="0"/>
        <pt x="360" y="334" on="1"/>
        <pt x="265" y="357" on="1"/>
        <pt x="211" y="371" on="0"/>
        <pt x="125" y="418" on="0"/>
        <pt x="75" y="493" on="0"/>
        <pt x="75" y="548" on="1"/>
        <pt x="75" y="611" on="0"/>
        <pt x="137" y="701" on="0"/>
        <pt x="243" y="750" on="0"/>
        <pt x="311" y="750" on="1"/>
        <pt x="379" y="750" on="0"/>
        <pt x="467" y="708" on="0"/>
        <pt x="519" y="647" on="0"/>
        <pt x="544" y="585" on="0"/>
        <pt x="551" y="543" on="0"/>
        <pt x="551" y="543" on="1"/>
        <pt x="475" y="543" on="1"/>
        <pt x="475" y="543" on="0"/>
        <pt x="471" y="571" on="0"/>
        <pt x="454" y="612" on="0"/>
        <pt x="418" y="653" on="0"/>
        <pt x="356" y="681" on="0"/>
        <pt x="309" y="681" on="1"/>
        <pt x="231" y="681" on="0"/>
        <pt x="151" y="604" on="0"/>
        <pt x="151" y="553" on="1"/>
        <pt x="151" y="506" on="0"/>
        <pt x="216" y="450" on="0"/>
        <pt x="274" y="436" on="1"/>
        <pt x="375" y="411" on="1"/>
        <pt x="432" y="397" on="0"/>
        <pt x="521" y="345" on="0"/>
        <pt x="573" y="263" on="0"/>
        <pt x="573" y="205" on="1"/>
        <pt x="573" y="147" on="0"/>
        <pt x="514" y="49" on="0"/>
        <pt x="404" y="-10" on="0"/>
        <pt x="326" y="-10" on="1"/>
        <pt x="294" y="-64" on="1"/>
        <pt x="309" y="-59" on="0"/>
        <pt x="327" y="-59" on="1"/>
        <pt x="374" y="-59" on="0"/>
        <pt x="423" y="-115" on="0"/>
        <pt x="423" y="-151" on="1"/>
        <pt x="423" y="-176" on="0"/>
        <pt x="398" y="-224" on="0"/>
        <pt x="342" y="-256" on="0"/>
      </contour>
    </TTGlyph>
    <TTGlyph name="T" xMin="43" yMin="0" xMax="600" yMax="740">
      <contour>
        <pt x="283" y="0" on="1"/>
        <pt x="283" y="671" on="1"/>
        <pt x="43" y="671" on="1"/>
        <pt x="43" y="740" on="1"/>
        <pt x="600" y="740" on="1"/>
        <pt x="600" y="671" on="1"/>
        <pt x="360" y="671" on="1"/>
        <pt x="360" y="0" on="1"/>
      </contour>
    </TTGlyph>
    <TTGlyph name="Tbar" xMin="43" yMin="0" xMax="600" yMax="740">
      <contour>
        <pt x="283" y="0" on="1"/>
        <pt x="283" y="340" on="1"/>
        <pt x="85" y="340" on="1"/>
        <pt x="85" y="410" on="1"/>
        <pt x="283" y="410" on="1"/>
        <pt x="283" y="671" on="1"/>
        <pt x="43" y="671" on="1"/>
        <pt x="43" y="740" on="1"/>
        <pt x="600" y="740" on="1"/>
        <pt x="600" y="671" on="1"/>
        <pt x="360" y="671" on="1"/>
        <pt x="360" y="410" on="1"/>
        <pt x="558" y="410" on="1"/>
        <pt x="558" y="340" on="1"/>
        <pt x="360" y="340" on="1"/>
        <pt x="360" y="0" on="1"/>
      </contour>
    </TTGlyph>
    <TTGlyph name="Tcaron" xMin="43" yMin="0" xMax="600" yMax="969">
      <contour>
        <pt x="289" y="807" on="1"/>
        <pt x="171" y="969" on="1"/>
        <pt x="241" y="969" on="1"/>
        <pt x="322" y="856" on="1"/>
        <pt x="403" y="969" on="1"/>
        <pt x="473" y="969" on="1"/>
        <pt x="355" y="807" on="1"/>
      </contour>
      <contour>
        <pt x="283" y="0" on="1"/>
        <pt x="283" y="671" on="1"/>
        <pt x="43" y="671" on="1"/>
        <pt x="43" y="740" on="1"/>
        <pt x="600" y="740" on="1"/>
        <pt x="600" y="671" on="1"/>
        <pt x="360" y="671" on="1"/>
        <pt x="360" y="0" on="1"/>
      </contour>
    </TTGlyph>
    <TTGlyph name="Thorn" xMin="83" yMin="0" xMax="588" yMax="740">
      <contour>
        <pt x="83" y="0" on="1"/>
        <pt x="83" y="740" on="1"/>
        <pt x="160" y="740" on="1"/>
        <pt x="160" y="606" on="1"/>
        <pt x="341" y="606" on="1"/>
        <pt x="423" y="606" on="0"/>
        <pt x="533" y="537" on="0"/>
        <pt x="588" y="429" on="0"/>
        <pt x="588" y="371" on="1"/>
        <pt x="588" y="311" on="0"/>
        <pt x="533" y="203" on="0"/>
        <pt x="423" y="134" on="0"/>
        <pt x="341" y="134" on="1"/>
        <pt x="160" y="134" on="1"/>
        <pt x="160" y="0" on="1"/>
      </contour>
      <contour>
        <pt x="341" y="537" on="1"/>
        <pt x="160" y="537" on="1"/>
        <pt x="160" y="203" on="1"/>
        <pt x="341" y="203" on="1"/>
        <pt x="398" y="203" on="0"/>
        <pt x="474" y="251" on="0"/>
        <pt x="512" y="328" on="0"/>
        <pt x="512" y="370" on="1"/>
        <pt x="512" y="412" on="0"/>
        <pt x="474" y="489" on="0"/>
        <pt x="398" y="537" on="0"/>
      </contour>
    </TTGlyph>
    <TTGlyph name="U" xMin="83" yMin="-10" xMax="631" yMax="740">
      <contour>
        <pt x="357" y="-10" on="1"/>
        <pt x="268" y="-10" on="0"/>
        <pt x="146" y="60" on="0"/>
        <pt x="83" y="184" on="0"/>
        <pt x="83" y="266" on="1"/>
        <pt x="83" y="740" on="1"/>
        <pt x="160" y="740" on="1"/>
        <pt x="160" y="266" on="1"/>
        <pt x="160" y="176" on="0"/>
        <pt x="258" y="63" on="0"/>
        <pt x="357" y="63" on="1"/>
        <pt x="457" y="63" on="0"/>
        <pt x="554" y="176" on="0"/>
        <pt x="554" y="266" on="1"/>
        <pt x="554" y="740" on="1"/>
        <pt x="631" y="740" on="1"/>
        <pt x="631" y="266" on="1"/>
        <pt x="631" y="184" on="0"/>
        <pt x="568" y="60" on="0"/>
        <pt x="446" y="-10" on="0"/>
      </contour>
    </TTGlyph>
    <TTGlyph name="Uacute" xMin="90" yMin="-10" xMax="638" yMax="994">
      <contour>
        <pt x="395" y="823" on="1"/>
        <pt x="330" y="823" on="1"/>
        <pt x="415" y="994" on="1"/>
        <pt x="494" y="994" on="1"/>
      </contour>
      <contour>
        <pt x="364" y="-10" on="1"/>
        <pt x="275" y="-10" on="0"/>
        <pt x="153" y="60" on="0"/>
        <pt x="90" y="184" on="0"/>
        <pt x="90" y="266" on="1"/>
        <pt x="90" y="740" on="1"/>
        <pt x="167" y="740" on="1"/>
        <pt x="167" y="266" on="1"/>
        <pt x="167" y="176" on="0"/>
        <pt x="265" y="63" on="0"/>
        <pt x="364" y="63" on="1"/>
        <pt x="463" y="63" on="0"/>
        <pt x="561" y="176" on="0"/>
        <pt x="561" y="266" on="1"/>
        <pt x="561" y="740" on="1"/>
        <pt x="638" y="740" on="1"/>
        <pt x="638" y="266" on="1"/>
        <pt x="638" y="184" on="0"/>
        <pt x="575" y="60" on="0"/>
        <pt x="453" y="-10" on="0"/>
      </contour>
    </TTGlyph>
    <TTGlyph name="Ucircumflex" xMin="90" yMin="-10" xMax="638" yMax="979">
      <contour>
        <pt x="211" y="817" on="1"/>
        <pt x="328" y="979" on="1"/>
        <pt x="395" y="979" on="1"/>
        <pt x="512" y="817" on="1"/>
        <pt x="443" y="817" on="1"/>
        <pt x="361" y="929" on="1"/>
        <pt x="280" y="817" on="1"/>
      </contour>
      <contour>
        <pt x="364" y="-10" on="1"/>
        <pt x="275" y="-10" on="0"/>
        <pt x="153" y="60" on="0"/>
        <pt x="90" y="184" on="0"/>
        <pt x="90" y="266" on="1"/>
        <pt x="90" y="740" on="1"/>
        <pt x="167" y="740" on="1"/>
        <pt x="167" y="266" on="1"/>
        <pt x="167" y="176" on="0"/>
        <pt x="265" y="63" on="0"/>
        <pt x="364" y="63" on="1"/>
        <pt x="463" y="63" on="0"/>
        <pt x="561" y="176" on="0"/>
        <pt x="561" y="266" on="1"/>
        <pt x="561" y="740" on="1"/>
        <pt x="638" y="740" on="1"/>
        <pt x="638" y="266" on="1"/>
        <pt x="638" y="184" on="0"/>
        <pt x="575" y="60" on="0"/>
        <pt x="453" y="-10" on="0"/>
      </contour>
    </TTGlyph>
    <TTGlyph name="Udieresis" xMin="90" yMin="-10" xMax="638" yMax="933">
      <contour>
        <pt x="447" y="827" on="1"/>
        <pt x="424" y="827" on="0"/>
        <pt x="394" y="859" on="0"/>
        <pt x="394" y="880" on="1"/>
        <pt x="394" y="902" on="0"/>
        <pt x="424" y="933" on="0"/>
        <pt x="447" y="933" on="1"/>
        <pt x="470" y="933" on="0"/>
        <pt x="500" y="902" on="0"/>
        <pt x="500" y="880" on="1"/>
        <pt x="500" y="858" on="0"/>
        <pt x="470" y="827" on="0"/>
      </contour>
      <contour>
        <pt x="274" y="827" on="1"/>
        <pt x="251" y="827" on="0"/>
        <pt x="221" y="859" on="0"/>
        <pt x="221" y="880" on="1"/>
        <pt x="221" y="902" on="0"/>
        <pt x="251" y="933" on="0"/>
        <pt x="274" y="933" on="1"/>
        <pt x="297" y="933" on="0"/>
        <pt x="327" y="902" on="0"/>
        <pt x="327" y="880" on="1"/>
        <pt x="327" y="858" on="0"/>
        <pt x="297" y="827" on="0"/>
      </contour>
      <contour>
        <pt x="364" y="-10" on="1"/>
        <pt x="275" y="-10" on="0"/>
        <pt x="153" y="60" on="0"/>
        <pt x="90" y="184" on="0"/>
        <pt x="90" y="266" on="1"/>
        <pt x="90" y="740" on="1"/>
        <pt x="167" y="740" on="1"/>
        <pt x="167" y="266" on="1"/>
        <pt x="167" y="176" on="0"/>
        <pt x="265" y="63" on="0"/>
        <pt x="364" y="63" on="1"/>
        <pt x="463" y="63" on="0"/>
        <pt x="561" y="176" on="0"/>
        <pt x="561" y="266" on="1"/>
        <pt x="561" y="740" on="1"/>
        <pt x="638" y="740" on="1"/>
        <pt x="638" y="266" on="1"/>
        <pt x="638" y="184" on="0"/>
        <pt x="575" y="60" on="0"/>
        <pt x="453" y="-10" on="0"/>
      </contour>
    </TTGlyph>
    <TTGlyph name="Ugrave" xMin="90" yMin="-10" xMax="638" yMax="994">
      <contour>
        <pt x="330" y="823" on="1"/>
        <pt x="231" y="994" on="1"/>
        <pt x="310" y="994" on="1"/>
        <pt x="396" y="823" on="1"/>
      </contour>
      <contour>
        <pt x="364" y="-10" on="1"/>
        <pt x="275" y="-10" on="0"/>
        <pt x="153" y="60" on="0"/>
        <pt x="90" y="184" on="0"/>
        <pt x="90" y="266" on="1"/>
        <pt x="90" y="740" on="1"/>
        <pt x="167" y="740" on="1"/>
        <pt x="167" y="266" on="1"/>
        <pt x="167" y="176" on="0"/>
        <pt x="265" y="63" on="0"/>
        <pt x="364" y="63" on="1"/>
        <pt x="463" y="63" on="0"/>
        <pt x="561" y="176" on="0"/>
        <pt x="561" y="266" on="1"/>
        <pt x="561" y="740" on="1"/>
        <pt x="638" y="740" on="1"/>
        <pt x="638" y="266" on="1"/>
        <pt x="638" y="184" on="0"/>
        <pt x="575" y="60" on="0"/>
        <pt x="453" y="-10" on="0"/>
      </contour>
    </TTGlyph>
    <TTGlyph name="Uhorn" xMin="90" yMin="-10" xMax="747" yMax="837">
      <contour>
        <pt x="364" y="-10" on="1"/>
        <pt x="275" y="-10" on="0"/>
        <pt x="153" y="60" on="0"/>
        <pt x="90" y="184" on="0"/>
        <pt x="90" y="266" on="1"/>
        <pt x="90" y="740" on="1"/>
        <pt x="167" y="740" on="1"/>
        <pt x="167" y="266" on="1"/>
        <pt x="167" y="176" on="0"/>
        <pt x="265" y="63" on="0"/>
        <pt x="364" y="63" on="1"/>
        <pt x="463" y="63" on="0"/>
        <pt x="561" y="176" on="0"/>
        <pt x="561" y="266" on="1"/>
        <pt x="561" y="740" on="1"/>
        <pt x="629" y="740" on="1"/>
        <pt x="675" y="740" on="0"/>
        <pt x="675" y="787" on="1"/>
        <pt x="675" y="837" on="1"/>
        <pt x="747" y="837" on="1"/>
        <pt x="747" y="788" on="1"/>
        <pt x="747" y="744" on="0"/>
        <pt x="698" y="688" on="0"/>
        <pt x="649" y="688" on="1"/>
        <pt x="638" y="688" on="1"/>
        <pt x="638" y="266" on="1"/>
        <pt x="638" y="184" on="0"/>
        <pt x="575" y="60" on="0"/>
        <pt x="453" y="-10" on="0"/>
      </contour>
    </TTGlyph>
    <TTGlyph name="Uhungarumlaut" xMin="90" yMin="-10" xMax="638" yMax="994">
      <contour>
        <pt x="319" y="823" on="1"/>
        <pt x="253" y="823" on="1"/>
        <pt x="302" y="994" on="1"/>
        <pt x="381" y="994" on="1"/>
      </contour>
      <contour>
        <pt x="466" y="823" on="1"/>
        <pt x="401" y="823" on="1"/>
        <pt x="450" y="994" on="1"/>
        <pt x="529" y="994" on="1"/>
      </contour>
      <contour>
        <pt x="364" y="-10" on="1"/>
        <pt x="275" y="-10" on="0"/>
        <pt x="153" y="60" on="0"/>
        <pt x="90" y="184" on="0"/>
        <pt x="90" y="266" on="1"/>
        <pt x="90" y="740" on="1"/>
        <pt x="167" y="740" on="1"/>
        <pt x="167" y="266" on="1"/>
        <pt x="167" y="176" on="0"/>
        <pt x="265" y="63" on="0"/>
        <pt x="364" y="63" on="1"/>
        <pt x="463" y="63" on="0"/>
        <pt x="561" y="176" on="0"/>
        <pt x="561" y="266" on="1"/>
        <pt x="561" y="740" on="1"/>
        <pt x="638" y="740" on="1"/>
        <pt x="638" y="266" on="1"/>
        <pt x="638" y="184" on="0"/>
        <pt x="575" y="60" on="0"/>
        <pt x="453" y="-10" on="0"/>
      </contour>
    </TTGlyph>
    <TTGlyph name="Umacron" xMin="90" yMin="-10" xMax="638" yMax="898">
      <contour>
        <pt x="213" y="840" on="1"/>
        <pt x="213" y="898" on="1"/>
        <pt x="509" y="898" on="1"/>
        <pt x="509" y="840" on="1"/>
      </contour>
      <contour>
        <pt x="364" y="-10" on="1"/>
        <pt x="275" y="-10" on="0"/>
        <pt x="153" y="60" on="0"/>
        <pt x="90" y="184" on="0"/>
        <pt x="90" y="266" on="1"/>
        <pt x="90" y="740" on="1"/>
        <pt x="167" y="740" on="1"/>
        <pt x="167" y="266" on="1"/>
        <pt x="167" y="176" on="0"/>
        <pt x="265" y="63" on="0"/>
        <pt x="364" y="63" on="1"/>
        <pt x="463" y="63" on="0"/>
        <pt x="561" y="176" on="0"/>
        <pt x="561" y="266" on="1"/>
        <pt x="561" y="740" on="1"/>
        <pt x="638" y="740" on="1"/>
        <pt x="638" y="266" on="1"/>
        <pt x="638" y="184" on="0"/>
        <pt x="575" y="60" on="0"/>
        <pt x="453" y="-10" on="0"/>
      </contour>
    </TTGlyph>
    <TTGlyph name="Uogonek" xMin="90" yMin="-169" xMax="638" yMax="740">
      <contour>
        <pt x="400" y="-169" on="1"/>
        <pt x="347" y="-169" on="0"/>
        <pt x="291" y="-121" on="0"/>
        <pt x="291" y="-85" on="1"/>
        <pt x="291" y="-57" on="0"/>
        <pt x="318" y="-20" on="0"/>
        <pt x="335" y="-9" on="1"/>
        <pt x="216" y="0" on="0"/>
        <pt x="90" y="150" on="0"/>
        <pt x="90" y="266" on="1"/>
        <pt x="90" y="740" on="1"/>
        <pt x="167" y="740" on="1"/>
        <pt x="167" y="266" on="1"/>
        <pt x="167" y="176" on="0"/>
        <pt x="265" y="63" on="0"/>
        <pt x="364" y="63" on="1"/>
        <pt x="463" y="63" on="0"/>
        <pt x="561" y="176" on="0"/>
        <pt x="561" y="266" on="1"/>
        <pt x="561" y="740" on="1"/>
        <pt x="638" y="740" on="1"/>
        <pt x="638" y="266" on="1"/>
        <pt x="638" y="154" on="0"/>
        <pt x="519" y="5" on="0"/>
        <pt x="406" y="-8" on="1"/>
        <pt x="400" y="-10" on="0"/>
        <pt x="375" y="-27" on="0"/>
        <pt x="354" y="-53" on="0"/>
        <pt x="354" y="-72" on="1"/>
        <pt x="354" y="-91" on="0"/>
        <pt x="383" y="-117" on="0"/>
        <pt x="412" y="-117" on="1"/>
        <pt x="426" y="-117" on="0"/>
        <pt x="450" y="-112" on="0"/>
        <pt x="450" y="-112" on="1"/>
        <pt x="450" y="-163" on="1"/>
        <pt x="450" y="-163" on="0"/>
        <pt x="421" y="-169" on="0"/>
      </contour>
    </TTGlyph>
    <TTGlyph name="Uring" xMin="90" yMin="-10" xMax="638" yMax="1049">
      <contour>
        <pt x="361" y="816" on="1"/>
        <pt x="329" y="816" on="0"/>
        <pt x="276" y="847" on="0"/>
        <pt x="244" y="900" on="0"/>
        <pt x="244" y="932" on="1"/>
        <pt x="244" y="965" on="0"/>
        <pt x="276" y="1018" on="0"/>
        <pt x="329" y="1049" on="0"/>
        <pt x="361" y="1049" on="1"/>
        <pt x="393" y="1049" on="0"/>
        <pt x="446" y="1018" on="0"/>
        <pt x="477" y="965" on="0"/>
        <pt x="477" y="932" on="1"/>
        <pt x="477" y="900" on="0"/>
        <pt x="446" y="847" on="0"/>
        <pt x="393" y="816" on="0"/>
      </contour>
      <contour>
        <pt x="361" y="871" on="1"/>
        <pt x="386" y="871" on="0"/>
        <pt x="422" y="907" on="0"/>
        <pt x="422" y="932" on="1"/>
        <pt x="422" y="958" on="0"/>
        <pt x="386" y="994" on="0"/>
        <pt x="361" y="994" on="1"/>
        <pt x="335" y="994" on="0"/>
        <pt x="299" y="958" on="0"/>
        <pt x="299" y="932" on="1"/>
        <pt x="299" y="907" on="0"/>
        <pt x="335" y="871" on="0"/>
      </contour>
      <contour>
        <pt x="364" y="-10" on="1"/>
        <pt x="275" y="-10" on="0"/>
        <pt x="153" y="60" on="0"/>
        <pt x="90" y="184" on="0"/>
        <pt x="90" y="266" on="1"/>
        <pt x="90" y="740" on="1"/>
        <pt x="167" y="740" on="1"/>
        <pt x="167" y="266" on="1"/>
        <pt x="167" y="176" on="0"/>
        <pt x="265" y="63" on="0"/>
        <pt x="364" y="63" on="1"/>
        <pt x="463" y="63" on="0"/>
        <pt x="561" y="176" on="0"/>
        <pt x="561" y="266" on="1"/>
        <pt x="561" y="740" on="1"/>
        <pt x="638" y="740" on="1"/>
        <pt x="638" y="266" on="1"/>
        <pt x="638" y="184" on="0"/>
        <pt x="575" y="60" on="0"/>
        <pt x="453" y="-10" on="0"/>
      </contour>
    </TTGlyph>
    <TTGlyph name="Utilde" xMin="90" yMin="-10" xMax="638" yMax="955">
      <contour>
        <pt x="426" y="828" on="1"/>
        <pt x="401" y="828" on="0"/>
        <pt x="366" y="850" on="0"/>
        <pt x="340" y="878" on="0"/>
        <pt x="316" y="899" on="0"/>
        <pt x="301" y="899" on="1"/>
        <pt x="283" y="899" on="0"/>
        <pt x="268" y="864" on="0"/>
        <pt x="268" y="834" on="1"/>
        <pt x="215" y="834" on="1"/>
        <pt x="215" y="864" on="0"/>
        <pt x="230" y="920" on="0"/>
        <pt x="266" y="955" on="0"/>
        <pt x="297" y="955" on="1"/>
        <pt x="323" y="955" on="0"/>
        <pt x="359" y="934" on="0"/>
        <pt x="385" y="906" on="0"/>
        <pt x="408" y="885" on="0"/>
        <pt x="422" y="885" on="1"/>
        <pt x="439" y="885" on="0"/>
        <pt x="455" y="920" on="0"/>
        <pt x="455" y="950" on="1"/>
        <pt x="507" y="950" on="1"/>
        <pt x="507" y="920" on="0"/>
        <pt x="493" y="864" on="0"/>
        <pt x="457" y="828" on="0"/>
      </contour>
      <contour>
        <pt x="364" y="-10" on="1"/>
        <pt x="275" y="-10" on="0"/>
        <pt x="153" y="60" on="0"/>
        <pt x="90" y="184" on="0"/>
        <pt x="90" y="266" on="1"/>
        <pt x="90" y="740" on="1"/>
        <pt x="167" y="740" on="1"/>
        <pt x="167" y="266" on="1"/>
        <pt x="167" y="176" on="0"/>
        <pt x="265" y="63" on="0"/>
        <pt x="364" y="63" on="1"/>
        <pt x="463" y="63" on="0"/>
        <pt x="561" y="176" on="0"/>
        <pt x="561" y="266" on="1"/>
        <pt x="561" y="740" on="1"/>
        <pt x="638" y="740" on="1"/>
        <pt x="638" y="266" on="1"/>
        <pt x="638" y="184" on="0"/>
        <pt x="575" y="60" on="0"/>
        <pt x="453" y="-10" on="0"/>
      </contour>
    </TTGlyph>
    <TTGlyph name="V" xMin="37" yMin="0" xMax="659" yMax="740">
      <contour>
        <pt x="300" y="0" on="1"/>
        <pt x="37" y="740" on="1"/>
        <pt x="118" y="740" on="1"/>
        <pt x="348" y="89" on="1"/>
        <pt x="577" y="740" on="1"/>
        <pt x="659" y="740" on="1"/>
        <pt x="395" y="0" on="1"/>
      </contour>
    </TTGlyph>
    <TTGlyph name="W" xMin="47" yMin="0" xMax="960" yMax="740">
      <contour>
        <pt x="247" y="0" on="1"/>
        <pt x="47" y="740" on="1"/>
        <pt x="126" y="740" on="1"/>
        <pt x="292" y="113" on="1"/>
        <pt x="466" y="740" on="1"/>
        <pt x="542" y="740" on="1"/>
        <pt x="716" y="115" on="1"/>
        <pt x="881" y="740" on="1"/>
        <pt x="960" y="740" on="1"/>
        <pt x="760" y="0" on="1"/>
        <pt x="672" y="0" on="1"/>
        <pt x="504" y="608" on="1"/>
        <pt x="335" y="0" on="1"/>
      </contour>
    </TTGlyph>
    <TTGlyph name="Wacute" xMin="23" yMin="0" xMax="937" yMax="994">
      <contour>
        <pt x="514" y="823" on="1"/>
        <pt x="449" y="823" on="1"/>
        <pt x="535" y="994" on="1"/>
        <pt x="614" y="994" on="1"/>
      </contour>
      <contour>
        <pt x="224" y="0" on="1"/>
        <pt x="23" y="740" on="1"/>
        <pt x="103" y="740" on="1"/>
        <pt x="268" y="113" on="1"/>
        <pt x="442" y="740" on="1"/>
        <pt x="519" y="740" on="1"/>
        <pt x="692" y="115" on="1"/>
        <pt x="857" y="740" on="1"/>
        <pt x="937" y="740" on="1"/>
        <pt x="737" y="0" on="1"/>
        <pt x="649" y="0" on="1"/>
        <pt x="481" y="608" on="1"/>
        <pt x="312" y="0" on="1"/>
      </contour>
    </TTGlyph>
    <TTGlyph name="Wcircumflex" xMin="23" yMin="0" xMax="937" yMax="979">
      <contour>
        <pt x="330" y="817" on="1"/>
        <pt x="448" y="979" on="1"/>
        <pt x="514" y="979" on="1"/>
        <pt x="632" y="817" on="1"/>
        <pt x="562" y="817" on="1"/>
        <pt x="481" y="929" on="1"/>
        <pt x="400" y="817" on="1"/>
      </contour>
      <contour>
        <pt x="224" y="0" on="1"/>
        <pt x="23" y="740" on="1"/>
        <pt x="103" y="740" on="1"/>
        <pt x="268" y="113" on="1"/>
        <pt x="442" y="740" on="1"/>
        <pt x="519" y="740" on="1"/>
        <pt x="692" y="115" on="1"/>
        <pt x="857" y="740" on="1"/>
        <pt x="937" y="740" on="1"/>
        <pt x="737" y="0" on="1"/>
        <pt x="649" y="0" on="1"/>
        <pt x="481" y="608" on="1"/>
        <pt x="312" y="0" on="1"/>
      </contour>
    </TTGlyph>
    <TTGlyph name="Wdieresis" xMin="23" yMin="0" xMax="937" yMax="933">
      <contour>
        <pt x="567" y="827" on="1"/>
        <pt x="544" y="827" on="0"/>
        <pt x="514" y="859" on="0"/>
        <pt x="514" y="880" on="1"/>
        <pt x="514" y="902" on="0"/>
        <pt x="544" y="933" on="0"/>
        <pt x="567" y="933" on="1"/>
        <pt x="589" y="933" on="0"/>
        <pt x="620" y="902" on="0"/>
        <pt x="620" y="880" on="1"/>
        <pt x="620" y="858" on="0"/>
        <pt x="589" y="827" on="0"/>
      </contour>
      <contour>
        <pt x="394" y="827" on="1"/>
        <pt x="371" y="827" on="0"/>
        <pt x="341" y="859" on="0"/>
        <pt x="341" y="880" on="1"/>
        <pt x="341" y="902" on="0"/>
        <pt x="371" y="933" on="0"/>
        <pt x="394" y="933" on="1"/>
        <pt x="416" y="933" on="0"/>
        <pt x="447" y="902" on="0"/>
        <pt x="447" y="880" on="1"/>
        <pt x="447" y="858" on="0"/>
        <pt x="416" y="827" on="0"/>
      </contour>
      <contour>
        <pt x="224" y="0" on="1"/>
        <pt x="23" y="740" on="1"/>
        <pt x="103" y="740" on="1"/>
        <pt x="268" y="113" on="1"/>
        <pt x="442" y="740" on="1"/>
        <pt x="519" y="740" on="1"/>
        <pt x="692" y="115" on="1"/>
        <pt x="857" y="740" on="1"/>
        <pt x="937" y="740" on="1"/>
        <pt x="737" y="0" on="1"/>
        <pt x="649" y="0" on="1"/>
        <pt x="481" y="608" on="1"/>
        <pt x="312" y="0" on="1"/>
      </contour>
    </TTGlyph>
    <TTGlyph name="Wgrave" xMin="23" yMin="0" xMax="937" yMax="994">
      <contour>
        <pt x="450" y="823" on="1"/>
        <pt x="350" y="994" on="1"/>
        <pt x="429" y="994" on="1"/>
        <pt x="515" y="823" on="1"/>
      </contour>
      <contour>
        <pt x="224" y="0" on="1"/>
        <pt x="23" y="740" on="1"/>
        <pt x="103" y="740" on="1"/>
        <pt x="268" y="113" on="1"/>
        <pt x="442" y="740" on="1"/>
        <pt x="519" y="740" on="1"/>
        <pt x="692" y="115" on="1"/>
        <pt x="857" y="740" on="1"/>
        <pt x="937" y="740" on="1"/>
        <pt x="737" y="0" on="1"/>
        <pt x="649" y="0" on="1"/>
        <pt x="481" y="608" on="1"/>
        <pt x="312" y="0" on="1"/>
      </contour>
    </TTGlyph>
    <TTGlyph name="X" xMin="53" yMin="0" xMax="643" yMax="740">
      <contour>
        <pt x="53" y="0" on="1"/>
        <pt x="296" y="370" on="1"/>
        <pt x="53" y="740" on="1"/>
        <pt x="145" y="740" on="1"/>
        <pt x="348" y="428" on="1"/>
        <pt x="551" y="740" on="1"/>
        <pt x="643" y="740" on="1"/>
        <pt x="399" y="370" on="1"/>
        <pt x="643" y="0" on="1"/>
        <pt x="551" y="0" on="1"/>
        <pt x="348" y="312" on="1"/>
        <pt x="145" y="0" on="1"/>
      </contour>
    </TTGlyph>
    <TTGlyph name="Y" xMin="28" yMin="0" xMax="635" yMax="740">
      <contour>
        <pt x="294" y="0" on="1"/>
        <pt x="294" y="268" on="1"/>
        <pt x="28" y="740" on="1"/>
        <pt x="113" y="740" on="1"/>
        <pt x="332" y="346" on="1"/>
        <pt x="551" y="740" on="1"/>
        <pt x="635" y="740" on="1"/>
        <pt x="370" y="268" on="1"/>
        <pt x="370" y="0" on="1"/>
      </contour>
    </TTGlyph>
    <TTGlyph name="Yacute" xMin="28" yMin="0" xMax="635" yMax="979">
      <contour>
        <pt x="370" y="807" on="1"/>
        <pt x="305" y="808" on="1"/>
        <pt x="390" y="979" on="1"/>
        <pt x="469" y="979" on="1"/>
      </contour>
      <contour>
        <pt x="294" y="0" on="1"/>
        <pt x="294" y="268" on="1"/>
        <pt x="28" y="740" on="1"/>
        <pt x="113" y="740" on="1"/>
        <pt x="332" y="346" on="1"/>
        <pt x="551" y="740" on="1"/>
        <pt x="635" y="740" on="1"/>
        <pt x="370" y="268" on="1"/>
        <pt x="370" y="0" on="1"/>
      </contour>
    </TTGlyph>
    <TTGlyph name="Ycircumflex" xMin="28" yMin="0" xMax="635" yMax="963">
      <contour>
        <pt x="186" y="801" on="1"/>
        <pt x="303" y="963" on="1"/>
        <pt x="370" y="963" on="1"/>
        <pt x="487" y="801" on="1"/>
        <pt x="418" y="801" on="1"/>
        <pt x="336" y="914" on="1"/>
        <pt x="255" y="801" on="1"/>
      </contour>
      <contour>
        <pt x="294" y="0" on="1"/>
        <pt x="294" y="268" on="1"/>
        <pt x="28" y="740" on="1"/>
        <pt x="113" y="740" on="1"/>
        <pt x="332" y="346" on="1"/>
        <pt x="551" y="740" on="1"/>
        <pt x="635" y="740" on="1"/>
        <pt x="370" y="268" on="1"/>
        <pt x="370" y="0" on="1"/>
      </contour>
    </TTGlyph>
    <TTGlyph name="Ydieresis" xMin="28" yMin="0" xMax="635" yMax="918">
      <contour>
        <pt x="422" y="812" on="1"/>
        <pt x="399" y="812" on="0"/>
        <pt x="369" y="843" on="0"/>
        <pt x="369" y="865" on="1"/>
        <pt x="369" y="887" on="0"/>
        <pt x="399" y="918" on="0"/>
        <pt x="422" y="918" on="1"/>
        <pt x="445" y="918" on="0"/>
        <pt x="475" y="887" on="0"/>
        <pt x="475" y="865" on="1"/>
        <pt x="475" y="843" on="0"/>
        <pt x="445" y="812" on="0"/>
      </contour>
      <contour>
        <pt x="249" y="812" on="1"/>
        <pt x="226" y="812" on="0"/>
        <pt x="196" y="843" on="0"/>
        <pt x="196" y="865" on="1"/>
        <pt x="196" y="887" on="0"/>
        <pt x="226" y="918" on="0"/>
        <pt x="249" y="918" on="1"/>
        <pt x="272" y="918" on="0"/>
        <pt x="302" y="887" on="0"/>
        <pt x="302" y="865" on="1"/>
        <pt x="302" y="843" on="0"/>
        <pt x="272" y="812" on="0"/>
      </contour>
      <contour>
        <pt x="294" y="0" on="1"/>
        <pt x="294" y="268" on="1"/>
        <pt x="28" y="740" on="1"/>
        <pt x="113" y="740" on="1"/>
        <pt x="332" y="346" on="1"/>
        <pt x="551" y="740" on="1"/>
        <pt x="635" y="740" on="1"/>
        <pt x="370" y="268" on="1"/>
        <pt x="370" y="0" on="1"/>
      </contour>
    </TTGlyph>
    <TTGlyph name="Ygrave" xMin="28" yMin="0" xMax="635" yMax="979">
      <contour>
        <pt x="305" y="807" on="1"/>
        <pt x="206" y="979" on="1"/>
        <pt x="285" y="979" on="1"/>
        <pt x="371" y="808" on="1"/>
      </contour>
      <contour>
        <pt x="294" y="0" on="1"/>
        <pt x="294" y="268" on="1"/>
        <pt x="28" y="740" on="1"/>
        <pt x="113" y="740" on="1"/>
        <pt x="332" y="346" on="1"/>
        <pt x="551" y="740" on="1"/>
        <pt x="635" y="740" on="1"/>
        <pt x="370" y="268" on="1"/>
        <pt x="370" y="0" on="1"/>
      </contour>
    </TTGlyph>
    <TTGlyph name="Z" xMin="66" yMin="0" xMax="581" yMax="740">
      <contour>
        <pt x="66" y="0" on="1"/>
        <pt x="66" y="61" on="1"/>
        <pt x="486" y="671" on="1"/>
        <pt x="66" y="671" on="1"/>
        <pt x="66" y="740" on="1"/>
        <pt x="581" y="740" on="1"/>
        <pt x="581" y="679" on="1"/>
        <pt x="160" y="69" on="1"/>
        <pt x="581" y="69" on="1"/>
        <pt x="581" y="0" on="1"/>
      </contour>
    </TTGlyph>
    <TTGlyph name="Zacute" xMin="66" yMin="0" xMax="581" yMax="994">
      <contour>
        <pt x="351" y="823" on="1"/>
        <pt x="286" y="823" on="1"/>
        <pt x="372" y="994" on="1"/>
        <pt x="451" y="994" on="1"/>
      </contour>
      <contour>
        <pt x="66" y="0" on="1"/>
        <pt x="66" y="61" on="1"/>
        <pt x="486" y="671" on="1"/>
        <pt x="66" y="671" on="1"/>
        <pt x="66" y="740" on="1"/>
        <pt x="581" y="740" on="1"/>
        <pt x="581" y="679" on="1"/>
        <pt x="160" y="69" on="1"/>
        <pt x="581" y="69" on="1"/>
        <pt x="581" y="0" on="1"/>
      </contour>
    </TTGlyph>
    <TTGlyph name="Zcaron" xMin="66" yMin="0" xMax="581" yMax="971">
      <contour>
        <pt x="284" y="809" on="1"/>
        <pt x="167" y="971" on="1"/>
        <pt x="236" y="971" on="1"/>
        <pt x="317" y="858" on="1"/>
        <pt x="399" y="971" on="1"/>
        <pt x="468" y="971" on="1"/>
        <pt x="351" y="809" on="1"/>
      </contour>
      <contour>
        <pt x="66" y="0" on="1"/>
        <pt x="66" y="61" on="1"/>
        <pt x="486" y="671" on="1"/>
        <pt x="66" y="671" on="1"/>
        <pt x="66" y="740" on="1"/>
        <pt x="581" y="740" on="1"/>
        <pt x="581" y="679" on="1"/>
        <pt x="160" y="69" on="1"/>
        <pt x="581" y="69" on="1"/>
        <pt x="581" y="0" on="1"/>
      </contour>
    </TTGlyph>
    <TTGlyph name="Zdotaccent" xMin="66" yMin="0" xMax="581" yMax="948">
      <contour>
        <pt x="317" y="842" on="1"/>
        <pt x="294" y="842" on="0"/>
        <pt x="264" y="874" on="0"/>
        <pt x="264" y="895" on="1"/>
        <pt x="264" y="917" on="0"/>
        <pt x="294" y="948" on="0"/>
        <pt x="317" y="948" on="1"/>
        <pt x="340" y="948" on="0"/>
        <pt x="370" y="917" on="0"/>
        <pt x="370" y="895" on="1"/>
        <pt x="370" y="873" on="0"/>
        <pt x="340" y="842" on="0"/>
      </contour>
      <contour>
        <pt x="66" y="0" on="1"/>
        <pt x="66" y="61" on="1"/>
        <pt x="486" y="671" on="1"/>
        <pt x="66" y="671" on="1"/>
        <pt x="66" y="740" on="1"/>
        <pt x="581" y="740" on="1"/>
        <pt x="581" y="679" on="1"/>
        <pt x="160" y="69" on="1"/>
        <pt x="581" y="69" on="1"/>
        <pt x="581" y="0" on="1"/>
      </contour>
    </TTGlyph>
    <TTGlyph name="a" xMin="62" yMin="-10" xMax="561" yMax="540">
      <contour>
        <pt x="301" y="540" on="1"/>
        <pt x="356" y="540" on="0"/>
        <pt x="428" y="503" on="0"/>
        <pt x="471" y="453" on="0"/>
        <pt x="481" y="435" on="1"/>
        <pt x="487" y="435" on="1"/>
        <pt x="487" y="530" on="1"/>
        <pt x="561" y="530" on="1"/>
        <pt x="561" y="0" on="1"/>
        <pt x="487" y="0" on="1"/>
        <pt x="487" y="95" on="1"/>
        <pt x="481" y="95" on="1"/>
        <pt x="471" y="76" on="0"/>
        <pt x="428" y="27" on="0"/>
        <pt x="356" y="-10" on="0"/>
        <pt x="301" y="-10" on="1"/>
        <pt x="241" y="-10" on="0"/>
        <pt x="151" y="37" on="0"/>
        <pt x="91" y="116" on="0"/>
        <pt x="62" y="214" on="0"/>
        <pt x="62" y="265" on="1"/>
        <pt x="62" y="316" on="0"/>
        <pt x="91" y="414" on="0"/>
        <pt x="151" y="493" on="0"/>
        <pt x="241" y="540" on="0"/>
      </contour>
      <contour>
        <pt x="312" y="475" on="1"/>
        <pt x="253" y="475" on="0"/>
        <pt x="175" y="413" on="0"/>
        <pt x="137" y="317" on="0"/>
        <pt x="137" y="265" on="1"/>
        <pt x="137" y="213" on="0"/>
        <pt x="175" y="117" on="0"/>
        <pt x="253" y="55" on="0"/>
        <pt x="312" y="55" on="1"/>
        <pt x="370" y="55" on="0"/>
        <pt x="447" y="117" on="0"/>
        <pt x="486" y="213" on="0"/>
        <pt x="486" y="265" on="1"/>
        <pt x="486" y="317" on="0"/>
        <pt x="447" y="413" on="0"/>
        <pt x="370" y="475" on="0"/>
      </contour>
    </TTGlyph>
    <TTGlyph name="a.ss01" xMin="57" yMin="-10" xMax="483" yMax="540">
      <contour>
        <pt x="400" y="82" on="1"/>
        <pt x="400" y="82" on="0"/>
        <pt x="382" y="54" on="0"/>
        <pt x="342" y="18" on="0"/>
        <pt x="277" y="-10" on="0"/>
        <pt x="231" y="-10" on="1"/>
        <pt x="182" y="-10" on="0"/>
        <pt x="103" y="26" on="0"/>
        <pt x="57" y="93" on="0"/>
        <pt x="57" y="140" on="1"/>
        <pt x="57" y="193" on="0"/>
        <pt x="110" y="257" on="0"/>
        <pt x="194" y="291" on="0"/>
        <pt x="240" y="298" on="1"/>
        <pt x="408" y="322" on="1"/>
        <pt x="408" y="342" on="1"/>
        <pt x="408" y="368" on="0"/>
        <pt x="388" y="431" on="0"/>
        <pt x="331" y="476" on="0"/>
        <pt x="277" y="476" on="1"/>
        <pt x="231" y="476" on="0"/>
        <pt x="176" y="444" on="0"/>
        <pt x="150" y="403" on="0"/>
        <pt x="142" y="372" on="0"/>
        <pt x="142" y="372" on="1"/>
        <pt x="69" y="372" on="1"/>
        <pt x="69" y="372" on="0"/>
        <pt x="76" y="406" on="0"/>
        <pt x="98" y="456" on="0"/>
        <pt x="144" y="506" on="0"/>
        <pt x="219" y="540" on="0"/>
        <pt x="276" y="540" on="1"/>
        <pt x="375" y="540" on="0"/>
        <pt x="483" y="429" on="0"/>
        <pt x="483" y="342" on="1"/>
        <pt x="483" y="0" on="1"/>
        <pt x="408" y="0" on="1"/>
        <pt x="408" y="82" on="1"/>
      </contour>
      <contour>
        <pt x="131" y="143" on="1"/>
        <pt x="131" y="95" on="0"/>
        <pt x="200" y="50" on="0"/>
        <pt x="244" y="50" on="1"/>
        <pt x="293" y="50" on="0"/>
        <pt x="367" y="99" on="0"/>
        <pt x="408" y="185" on="0"/>
        <pt x="408" y="238" on="1"/>
        <pt x="408" y="261" on="1"/>
        <pt x="249" y="238" on="1"/>
        <pt x="198" y="231" on="0"/>
        <pt x="131" y="189" on="0"/>
      </contour>
    </TTGlyph>
    <TTGlyph name="aacute" xMin="67" yMin="-10" xMax="566" yMax="784">
      <contour>
        <pt x="355" y="613" on="1"/>
        <pt x="290" y="613" on="1"/>
        <pt x="375" y="784" on="1"/>
        <pt x="454" y="784" on="1"/>
      </contour>
      <contour>
        <pt x="306" y="540" on="1"/>
        <pt x="361" y="540" on="0"/>
        <pt x="433" y="503" on="0"/>
        <pt x="476" y="453" on="0"/>
        <pt x="486" y="435" on="1"/>
        <pt x="492" y="435" on="1"/>
        <pt x="492" y="530" on="1"/>
        <pt x="566" y="530" on="1"/>
        <pt x="566" y="0" on="1"/>
        <pt x="492" y="0" on="1"/>
        <pt x="492" y="95" on="1"/>
        <pt x="486" y="95" on="1"/>
        <pt x="476" y="76" on="0"/>
        <pt x="433" y="27" on="0"/>
        <pt x="361" y="-10" on="0"/>
        <pt x="306" y="-10" on="1"/>
        <pt x="246" y="-10" on="0"/>
        <pt x="156" y="37" on="0"/>
        <pt x="96" y="116" on="0"/>
        <pt x="67" y="214" on="0"/>
        <pt x="67" y="265" on="1"/>
        <pt x="67" y="316" on="0"/>
        <pt x="96" y="414" on="0"/>
        <pt x="156" y="493" on="0"/>
        <pt x="246" y="540" on="0"/>
      </contour>
      <contour>
        <pt x="317" y="475" on="1"/>
        <pt x="258" y="475" on="0"/>
        <pt x="180" y="413" on="0"/>
        <pt x="142" y="317" on="0"/>
        <pt x="142" y="265" on="1"/>
        <pt x="142" y="213" on="0"/>
        <pt x="180" y="117" on="0"/>
        <pt x="258" y="55" on="0"/>
        <pt x="317" y="55" on="1"/>
        <pt x="375" y="55" on="0"/>
        <pt x="452" y="117" on="0"/>
        <pt x="491" y="213" on="0"/>
        <pt x="491" y="265" on="1"/>
        <pt x="491" y="317" on="0"/>
        <pt x="452" y="413" on="0"/>
        <pt x="375" y="475" on="0"/>
      </contour>
    </TTGlyph>
    <TTGlyph name="aacute.ss01" xMin="73" yMin="-10" xMax="499" yMax="784">
      <contour>
        <pt x="328" y="613" on="1"/>
        <pt x="263" y="613" on="1"/>
        <pt x="348" y="784" on="1"/>
        <pt x="427" y="784" on="1"/>
      </contour>
      <contour>
        <pt x="416" y="82" on="1"/>
        <pt x="416" y="82" on="0"/>
        <pt x="398" y="54" on="0"/>
        <pt x="358" y="18" on="0"/>
        <pt x="294" y="-10" on="0"/>
        <pt x="247" y="-10" on="1"/>
        <pt x="198" y="-10" on="0"/>
        <pt x="119" y="26" on="0"/>
        <pt x="73" y="93" on="0"/>
        <pt x="73" y="140" on="1"/>
        <pt x="73" y="193" on="0"/>
        <pt x="126" y="257" on="0"/>
        <pt x="210" y="291" on="0"/>
        <pt x="256" y="298" on="1"/>
        <pt x="424" y="322" on="1"/>
        <pt x="424" y="342" on="1"/>
        <pt x="424" y="361" on="0"/>
        <pt x="414" y="407" on="0"/>
        <pt x="386" y="449" on="0"/>
        <pt x="334" y="476" on="0"/>
        <pt x="293" y="476" on="1"/>
        <pt x="247" y="476" on="0"/>
        <pt x="193" y="444" on="0"/>
        <pt x="166" y="403" on="0"/>
        <pt x="158" y="372" on="0"/>
        <pt x="158" y="372" on="1"/>
        <pt x="85" y="372" on="1"/>
        <pt x="85" y="372" on="0"/>
        <pt x="92" y="406" on="0"/>
        <pt x="115" y="456" on="0"/>
        <pt x="160" y="506" on="0"/>
        <pt x="236" y="540" on="0"/>
        <pt x="293" y="540" on="1"/>
        <pt x="391" y="540" on="0"/>
        <pt x="499" y="429" on="0"/>
        <pt x="499" y="342" on="1"/>
        <pt x="499" y="0" on="1"/>
        <pt x="424" y="0" on="1"/>
        <pt x="424" y="82" on="1"/>
      </contour>
      <contour>
        <pt x="147" y="143" on="1"/>
        <pt x="147" y="95" on="0"/>
        <pt x="217" y="50" on="0"/>
        <pt x="260" y="50" on="1"/>
        <pt x="309" y="50" on="0"/>
        <pt x="383" y="99" on="0"/>
        <pt x="424" y="185" on="0"/>
        <pt x="424" y="238" on="1"/>
        <pt x="424" y="261" on="1"/>
        <pt x="266" y="238" on="1"/>
        <pt x="215" y="231" on="0"/>
        <pt x="147" y="189" on="0"/>
      </contour>
    </TTGlyph>
    <TTGlyph name="abreve" xMin="67" yMin="-10" xMax="566" yMax="752">
      <contour>
        <pt x="321" y="608" on="1"/>
        <pt x="276" y="608" on="0"/>
        <pt x="218" y="637" on="0"/>
        <pt x="186" y="680" on="0"/>
        <pt x="173" y="723" on="0"/>
        <pt x="170" y="752" on="0"/>
        <pt x="170" y="752" on="1"/>
        <pt x="228" y="752" on="1"/>
        <pt x="228" y="752" on="0"/>
        <pt x="231" y="725" on="0"/>
        <pt x="248" y="688" on="0"/>
        <pt x="286" y="660" on="0"/>
        <pt x="321" y="660" on="1"/>
        <pt x="356" y="660" on="0"/>
        <pt x="394" y="688" on="0"/>
        <pt x="411" y="725" on="0"/>
        <pt x="414" y="752" on="0"/>
        <pt x="414" y="752" on="1"/>
        <pt x="472" y="752" on="1"/>
        <pt x="472" y="752" on="0"/>
        <pt x="469" y="723" on="0"/>
        <pt x="456" y="680" on="0"/>
        <pt x="424" y="637" on="0"/>
        <pt x="366" y="608" on="0"/>
      </contour>
      <contour>
        <pt x="306" y="540" on="1"/>
        <pt x="361" y="540" on="0"/>
        <pt x="433" y="503" on="0"/>
        <pt x="476" y="453" on="0"/>
        <pt x="486" y="435" on="1"/>
        <pt x="492" y="435" on="1"/>
        <pt x="492" y="530" on="1"/>
        <pt x="566" y="530" on="1"/>
        <pt x="566" y="0" on="1"/>
        <pt x="492" y="0" on="1"/>
        <pt x="492" y="95" on="1"/>
        <pt x="486" y="95" on="1"/>
        <pt x="476" y="76" on="0"/>
        <pt x="433" y="27" on="0"/>
        <pt x="361" y="-10" on="0"/>
        <pt x="306" y="-10" on="1"/>
        <pt x="246" y="-10" on="0"/>
        <pt x="156" y="37" on="0"/>
        <pt x="96" y="116" on="0"/>
        <pt x="67" y="214" on="0"/>
        <pt x="67" y="265" on="1"/>
        <pt x="67" y="316" on="0"/>
        <pt x="96" y="414" on="0"/>
        <pt x="156" y="493" on="0"/>
        <pt x="246" y="540" on="0"/>
      </contour>
      <contour>
        <pt x="317" y="475" on="1"/>
        <pt x="258" y="475" on="0"/>
        <pt x="180" y="413" on="0"/>
        <pt x="142" y="317" on="0"/>
        <pt x="142" y="265" on="1"/>
        <pt x="142" y="213" on="0"/>
        <pt x="180" y="117" on="0"/>
        <pt x="258" y="55" on="0"/>
        <pt x="317" y="55" on="1"/>
        <pt x="375" y="55" on="0"/>
        <pt x="452" y="117" on="0"/>
        <pt x="491" y="213" on="0"/>
        <pt x="491" y="265" on="1"/>
        <pt x="491" y="317" on="0"/>
        <pt x="452" y="413" on="0"/>
        <pt x="375" y="475" on="0"/>
      </contour>
    </TTGlyph>
    <TTGlyph name="abreve.ss01" xMin="73" yMin="-10" xMax="499" yMax="752">
      <contour>
        <pt x="294" y="608" on="1"/>
        <pt x="249" y="608" on="0"/>
        <pt x="191" y="637" on="0"/>
        <pt x="159" y="680" on="0"/>
        <pt x="146" y="723" on="0"/>
        <pt x="143" y="752" on="0"/>
        <pt x="143" y="752" on="1"/>
        <pt x="201" y="752" on="1"/>
        <pt x="201" y="752" on="0"/>
        <pt x="204" y="725" on="0"/>
        <pt x="221" y="688" on="0"/>
        <pt x="259" y="660" on="0"/>
        <pt x="294" y="660" on="1"/>
        <pt x="329" y="660" on="0"/>
        <pt x="367" y="688" on="0"/>
        <pt x="384" y="725" on="0"/>
        <pt x="387" y="752" on="0"/>
        <pt x="387" y="752" on="1"/>
        <pt x="445" y="752" on="1"/>
        <pt x="445" y="752" on="0"/>
        <pt x="442" y="723" on="0"/>
        <pt x="429" y="680" on="0"/>
        <pt x="397" y="637" on="0"/>
        <pt x="339" y="608" on="0"/>
      </contour>
      <contour>
        <pt x="416" y="82" on="1"/>
        <pt x="416" y="82" on="0"/>
        <pt x="398" y="54" on="0"/>
        <pt x="358" y="18" on="0"/>
        <pt x="294" y="-10" on="0"/>
        <pt x="247" y="-10" on="1"/>
        <pt x="198" y="-10" on="0"/>
        <pt x="119" y="26" on="0"/>
        <pt x="73" y="93" on="0"/>
        <pt x="73" y="140" on="1"/>
        <pt x="73" y="193" on="0"/>
        <pt x="126" y="257" on="0"/>
        <pt x="210" y="291" on="0"/>
        <pt x="256" y="298" on="1"/>
        <pt x="424" y="322" on="1"/>
        <pt x="424" y="342" on="1"/>
        <pt x="424" y="361" on="0"/>
        <pt x="414" y="407" on="0"/>
        <pt x="386" y="449" on="0"/>
        <pt x="334" y="476" on="0"/>
        <pt x="293" y="476" on="1"/>
        <pt x="247" y="476" on="0"/>
        <pt x="193" y="444" on="0"/>
        <pt x="166" y="403" on="0"/>
        <pt x="158" y="372" on="0"/>
        <pt x="158" y="372" on="1"/>
        <pt x="85" y="372" on="1"/>
        <pt x="85" y="372" on="0"/>
        <pt x="92" y="406" on="0"/>
        <pt x="115" y="456" on="0"/>
        <pt x="160" y="506" on="0"/>
        <pt x="236" y="540" on="0"/>
        <pt x="293" y="540" on="1"/>
        <pt x="391" y="540" on="0"/>
        <pt x="499" y="429" on="0"/>
        <pt x="499" y="342" on="1"/>
        <pt x="499" y="0" on="1"/>
        <pt x="424" y="0" on="1"/>
        <pt x="424" y="82" on="1"/>
      </contour>
      <contour>
        <pt x="147" y="143" on="1"/>
        <pt x="147" y="95" on="0"/>
        <pt x="217" y="50" on="0"/>
        <pt x="260" y="50" on="1"/>
        <pt x="309" y="50" on="0"/>
        <pt x="383" y="99" on="0"/>
        <pt x="424" y="185" on="0"/>
        <pt x="424" y="238" on="1"/>
        <pt x="424" y="261" on="1"/>
        <pt x="266" y="238" on="1"/>
        <pt x="215" y="231" on="0"/>
        <pt x="147" y="189" on="0"/>
      </contour>
    </TTGlyph>
    <TTGlyph name="acircumflex" xMin="67" yMin="-10" xMax="566" yMax="769">
      <contour>
        <pt x="171" y="607" on="1"/>
        <pt x="288" y="769" on="1"/>
        <pt x="355" y="769" on="1"/>
        <pt x="472" y="607" on="1"/>
        <pt x="403" y="607" on="1"/>
        <pt x="321" y="719" on="1"/>
        <pt x="240" y="607" on="1"/>
      </contour>
      <contour>
        <pt x="306" y="540" on="1"/>
        <pt x="361" y="540" on="0"/>
        <pt x="433" y="503" on="0"/>
        <pt x="476" y="453" on="0"/>
        <pt x="486" y="435" on="1"/>
        <pt x="492" y="435" on="1"/>
        <pt x="492" y="530" on="1"/>
        <pt x="566" y="530" on="1"/>
        <pt x="566" y="0" on="1"/>
        <pt x="492" y="0" on="1"/>
        <pt x="492" y="95" on="1"/>
        <pt x="486" y="95" on="1"/>
        <pt x="476" y="76" on="0"/>
        <pt x="433" y="27" on="0"/>
        <pt x="361" y="-10" on="0"/>
        <pt x="306" y="-10" on="1"/>
        <pt x="246" y="-10" on="0"/>
        <pt x="156" y="37" on="0"/>
        <pt x="96" y="116" on="0"/>
        <pt x="67" y="214" on="0"/>
        <pt x="67" y="265" on="1"/>
        <pt x="67" y="316" on="0"/>
        <pt x="96" y="414" on="0"/>
        <pt x="156" y="493" on="0"/>
        <pt x="246" y="540" on="0"/>
      </contour>
      <contour>
        <pt x="317" y="475" on="1"/>
        <pt x="258" y="475" on="0"/>
        <pt x="180" y="413" on="0"/>
        <pt x="142" y="317" on="0"/>
        <pt x="142" y="265" on="1"/>
        <pt x="142" y="213" on="0"/>
        <pt x="180" y="117" on="0"/>
        <pt x="258" y="55" on="0"/>
        <pt x="317" y="55" on="1"/>
        <pt x="375" y="55" on="0"/>
        <pt x="452" y="117" on="0"/>
        <pt x="491" y="213" on="0"/>
        <pt x="491" y="265" on="1"/>
        <pt x="491" y="317" on="0"/>
        <pt x="452" y="413" on="0"/>
        <pt x="375" y="475" on="0"/>
      </contour>
    </TTGlyph>
    <TTGlyph name="acircumflex.ss01" xMin="73" yMin="-10" xMax="499" yMax="769">
      <contour>
        <pt x="144" y="607" on="1"/>
        <pt x="261" y="769" on="1"/>
        <pt x="328" y="769" on="1"/>
        <pt x="445" y="607" on="1"/>
        <pt x="376" y="607" on="1"/>
        <pt x="294" y="719" on="1"/>
        <pt x="213" y="607" on="1"/>
      </contour>
      <contour>
        <pt x="416" y="82" on="1"/>
        <pt x="416" y="82" on="0"/>
        <pt x="398" y="54" on="0"/>
        <pt x="358" y="18" on="0"/>
        <pt x="294" y="-10" on="0"/>
        <pt x="247" y="-10" on="1"/>
        <pt x="198" y="-10" on="0"/>
        <pt x="119" y="26" on="0"/>
        <pt x="73" y="93" on="0"/>
        <pt x="73" y="140" on="1"/>
        <pt x="73" y="193" on="0"/>
        <pt x="126" y="257" on="0"/>
        <pt x="210" y="291" on="0"/>
        <pt x="256" y="298" on="1"/>
        <pt x="424" y="322" on="1"/>
        <pt x="424" y="342" on="1"/>
        <pt x="424" y="361" on="0"/>
        <pt x="414" y="407" on="0"/>
        <pt x="386" y="449" on="0"/>
        <pt x="334" y="476" on="0"/>
        <pt x="293" y="476" on="1"/>
        <pt x="247" y="476" on="0"/>
        <pt x="193" y="444" on="0"/>
        <pt x="166" y="403" on="0"/>
        <pt x="158" y="372" on="0"/>
        <pt x="158" y="372" on="1"/>
        <pt x="85" y="372" on="1"/>
        <pt x="85" y="372" on="0"/>
        <pt x="92" y="406" on="0"/>
        <pt x="115" y="456" on="0"/>
        <pt x="160" y="506" on="0"/>
        <pt x="236" y="540" on="0"/>
        <pt x="293" y="540" on="1"/>
        <pt x="391" y="540" on="0"/>
        <pt x="499" y="429" on="0"/>
        <pt x="499" y="342" on="1"/>
        <pt x="499" y="0" on="1"/>
        <pt x="424" y="0" on="1"/>
        <pt x="424" y="82" on="1"/>
      </contour>
      <contour>
        <pt x="147" y="143" on="1"/>
        <pt x="147" y="95" on="0"/>
        <pt x="217" y="50" on="0"/>
        <pt x="260" y="50" on="1"/>
        <pt x="309" y="50" on="0"/>
        <pt x="383" y="99" on="0"/>
        <pt x="424" y="185" on="0"/>
        <pt x="424" y="238" on="1"/>
        <pt x="424" y="261" on="1"/>
        <pt x="266" y="238" on="1"/>
        <pt x="215" y="231" on="0"/>
        <pt x="147" y="189" on="0"/>
      </contour>
    </TTGlyph>
    <TTGlyph name="acute" xMin="-1" yMin="613" xMax="163" yMax="784">
      <contour>
        <pt x="64" y="613" on="1"/>
        <pt x="-1" y="613" on="1"/>
        <pt x="84" y="784" on="1"/>
        <pt x="163" y="784" on="1"/>
      </contour>
    </TTGlyph>
    <TTGlyph name="acutecomb" xMin="29" yMin="613" xMax="193" yMax="784">
      <contour>
        <pt x="94" y="613" on="1"/>
        <pt x="29" y="613" on="1"/>
        <pt x="114" y="784" on="1"/>
        <pt x="193" y="784" on="1"/>
      </contour>
    </TTGlyph>
    <TTGlyph name="adieresis" xMin="67" yMin="-10" xMax="566" yMax="723">
      <contour>
        <pt x="407" y="617" on="1"/>
        <pt x="384" y="617" on="0"/>
        <pt x="354" y="649" on="0"/>
        <pt x="354" y="670" on="1"/>
        <pt x="354" y="692" on="0"/>
        <pt x="384" y="723" on="0"/>
        <pt x="407" y="723" on="1"/>
        <pt x="430" y="723" on="0"/>
        <pt x="461" y="692" on="0"/>
        <pt x="461" y="670" on="1"/>
        <pt x="461" y="648" on="0"/>
        <pt x="430" y="617" on="0"/>
      </contour>
      <contour>
        <pt x="234" y="617" on="1"/>
        <pt x="211" y="617" on="0"/>
        <pt x="181" y="649" on="0"/>
        <pt x="181" y="670" on="1"/>
        <pt x="181" y="692" on="0"/>
        <pt x="211" y="723" on="0"/>
        <pt x="234" y="723" on="1"/>
        <pt x="257" y="723" on="0"/>
        <pt x="288" y="692" on="0"/>
        <pt x="288" y="670" on="1"/>
        <pt x="288" y="648" on="0"/>
        <pt x="257" y="617" on="0"/>
      </contour>
      <contour>
        <pt x="306" y="540" on="1"/>
        <pt x="361" y="540" on="0"/>
        <pt x="433" y="503" on="0"/>
        <pt x="476" y="453" on="0"/>
        <pt x="486" y="435" on="1"/>
        <pt x="492" y="435" on="1"/>
        <pt x="492" y="530" on="1"/>
        <pt x="566" y="530" on="1"/>
        <pt x="566" y="0" on="1"/>
        <pt x="492" y="0" on="1"/>
        <pt x="492" y="95" on="1"/>
        <pt x="486" y="95" on="1"/>
        <pt x="476" y="76" on="0"/>
        <pt x="433" y="27" on="0"/>
        <pt x="361" y="-10" on="0"/>
        <pt x="306" y="-10" on="1"/>
        <pt x="246" y="-10" on="0"/>
        <pt x="156" y="37" on="0"/>
        <pt x="96" y="116" on="0"/>
        <pt x="67" y="214" on="0"/>
        <pt x="67" y="265" on="1"/>
        <pt x="67" y="316" on="0"/>
        <pt x="96" y="414" on="0"/>
        <pt x="156" y="493" on="0"/>
        <pt x="246" y="540" on="0"/>
      </contour>
      <contour>
        <pt x="317" y="475" on="1"/>
        <pt x="258" y="475" on="0"/>
        <pt x="180" y="413" on="0"/>
        <pt x="142" y="317" on="0"/>
        <pt x="142" y="265" on="1"/>
        <pt x="142" y="213" on="0"/>
        <pt x="180" y="117" on="0"/>
        <pt x="258" y="55" on="0"/>
        <pt x="317" y="55" on="1"/>
        <pt x="375" y="55" on="0"/>
        <pt x="452" y="117" on="0"/>
        <pt x="491" y="213" on="0"/>
        <pt x="491" y="265" on="1"/>
        <pt x="491" y="317" on="0"/>
        <pt x="452" y="413" on="0"/>
        <pt x="375" y="475" on="0"/>
      </contour>
    </TTGlyph>
    <TTGlyph name="adieresis.ss01" xMin="73" yMin="-10" xMax="499" yMax="723">
      <contour>
        <pt x="380" y="617" on="1"/>
        <pt x="357" y="617" on="0"/>
        <pt x="327" y="649" on="0"/>
        <pt x="327" y="670" on="1"/>
        <pt x="327" y="692" on="0"/>
        <pt x="357" y="723" on="0"/>
        <pt x="380" y="723" on="1"/>
        <pt x="403" y="723" on="0"/>
        <pt x="433" y="692" on="0"/>
        <pt x="433" y="670" on="1"/>
        <pt x="433" y="648" on="0"/>
        <pt x="403" y="617" on="0"/>
      </contour>
      <contour>
        <pt x="207" y="617" on="1"/>
        <pt x="184" y="617" on="0"/>
        <pt x="154" y="649" on="0"/>
        <pt x="154" y="670" on="1"/>
        <pt x="154" y="692" on="0"/>
        <pt x="184" y="723" on="0"/>
        <pt x="207" y="723" on="1"/>
        <pt x="230" y="723" on="0"/>
        <pt x="260" y="692" on="0"/>
        <pt x="260" y="670" on="1"/>
        <pt x="260" y="648" on="0"/>
        <pt x="230" y="617" on="0"/>
      </contour>
      <contour>
        <pt x="416" y="82" on="1"/>
        <pt x="416" y="82" on="0"/>
        <pt x="398" y="54" on="0"/>
        <pt x="358" y="18" on="0"/>
        <pt x="294" y="-10" on="0"/>
        <pt x="247" y="-10" on="1"/>
        <pt x="198" y="-10" on="0"/>
        <pt x="119" y="26" on="0"/>
        <pt x="73" y="93" on="0"/>
        <pt x="73" y="140" on="1"/>
        <pt x="73" y="193" on="0"/>
        <pt x="126" y="257" on="0"/>
        <pt x="210" y="291" on="0"/>
        <pt x="256" y="298" on="1"/>
        <pt x="424" y="322" on="1"/>
        <pt x="424" y="342" on="1"/>
        <pt x="424" y="361" on="0"/>
        <pt x="414" y="407" on="0"/>
        <pt x="386" y="449" on="0"/>
        <pt x="334" y="476" on="0"/>
        <pt x="293" y="476" on="1"/>
        <pt x="247" y="476" on="0"/>
        <pt x="193" y="444" on="0"/>
        <pt x="166" y="403" on="0"/>
        <pt x="158" y="372" on="0"/>
        <pt x="158" y="372" on="1"/>
        <pt x="85" y="372" on="1"/>
        <pt x="85" y="372" on="0"/>
        <pt x="92" y="406" on="0"/>
        <pt x="115" y="456" on="0"/>
        <pt x="160" y="506" on="0"/>
        <pt x="236" y="540" on="0"/>
        <pt x="293" y="540" on="1"/>
        <pt x="391" y="540" on="0"/>
        <pt x="499" y="429" on="0"/>
        <pt x="499" y="342" on="1"/>
        <pt x="499" y="0" on="1"/>
        <pt x="424" y="0" on="1"/>
        <pt x="424" y="82" on="1"/>
      </contour>
      <contour>
        <pt x="147" y="143" on="1"/>
        <pt x="147" y="95" on="0"/>
        <pt x="217" y="50" on="0"/>
        <pt x="260" y="50" on="1"/>
        <pt x="309" y="50" on="0"/>
        <pt x="383" y="99" on="0"/>
        <pt x="424" y="185" on="0"/>
        <pt x="424" y="238" on="1"/>
        <pt x="424" y="261" on="1"/>
        <pt x="266" y="238" on="1"/>
        <pt x="215" y="231" on="0"/>
        <pt x="147" y="189" on="0"/>
      </contour>
    </TTGlyph>
    <TTGlyph name="ae" xMin="60" yMin="-10" xMax="902" yMax="540">
      <contour>
        <pt x="241" y="-10" on="1"/>
        <pt x="192" y="-10" on="0"/>
        <pt x="109" y="25" on="0"/>
        <pt x="60" y="95" on="0"/>
        <pt x="60" y="146" on="1"/>
        <pt x="60" y="220" on="0"/>
        <pt x="171" y="302" on="0"/>
        <pt x="257" y="302" on="1"/>
        <pt x="417" y="302" on="1"/>
        <pt x="417" y="339" on="1"/>
        <pt x="417" y="359" on="0"/>
        <pt x="407" y="407" on="0"/>
        <pt x="378" y="450" on="0"/>
        <pt x="325" y="478" on="0"/>
        <pt x="282" y="478" on="1"/>
        <pt x="235" y="478" on="0"/>
        <pt x="179" y="446" on="0"/>
        <pt x="152" y="404" on="0"/>
        <pt x="144" y="372" on="0"/>
        <pt x="144" y="372" on="1"/>
        <pt x="71" y="372" on="1"/>
        <pt x="71" y="372" on="0"/>
        <pt x="79" y="406" on="0"/>
        <pt x="102" y="456" on="0"/>
        <pt x="147" y="506" on="0"/>
        <pt x="223" y="540" on="0"/>
        <pt x="279" y="540" on="1"/>
        <pt x="356" y="540" on="0"/>
        <pt x="450" y="472" on="0"/>
        <pt x="464" y="421" on="1"/>
        <pt x="467" y="421" on="1"/>
        <pt x="489" y="468" on="0"/>
        <pt x="588" y="540" on="0"/>
        <pt x="669" y="540" on="1"/>
        <pt x="736" y="540" on="0"/>
        <pt x="841" y="478" on="0"/>
        <pt x="902" y="354" on="0"/>
        <pt x="902" y="262" on="1"/>
        <pt x="902" y="240" on="1"/>
        <pt x="494" y="240" on="1"/>
        <pt x="496" y="190" on="0"/>
        <pt x="539" y="105" on="0"/>
        <pt x="618" y="53" on="0"/>
        <pt x="672" y="53" on="1"/>
        <pt x="717" y="53" on="0"/>
        <pt x="776" y="84" on="0"/>
        <pt x="809" y="126" on="0"/>
        <pt x="823" y="157" on="0"/>
        <pt x="823" y="157" on="1"/>
        <pt x="895" y="157" on="1"/>
        <pt x="895" y="157" on="0"/>
        <pt x="884" y="124" on="0"/>
        <pt x="857" y="74" on="0"/>
        <pt x="806" y="24" on="0"/>
        <pt x="727" y="-10" on="0"/>
        <pt x="670" y="-10" on="1"/>
        <pt x="606" y="-10" on="0"/>
        <pt x="518" y="34" on="0"/>
        <pt x="464" y="97" on="0"/>
        <pt x="452" y="126" on="1"/>
        <pt x="447" y="126" on="1"/>
        <pt x="447" y="126" on="0"/>
        <pt x="436" y="99" on="0"/>
        <pt x="409" y="58" on="0"/>
        <pt x="363" y="17" on="0"/>
        <pt x="291" y="-10" on="0"/>
      </contour>
      <contour>
        <pt x="494" y="300" on="1"/>
        <pt x="827" y="300" on="1"/>
        <pt x="824" y="367" on="0"/>
        <pt x="779" y="444" on="0"/>
        <pt x="709" y="478" on="0"/>
        <pt x="668" y="478" on="1"/>
        <pt x="593" y="478" on="0"/>
        <pt x="499" y="382" on="0"/>
      </contour>
      <contour>
        <pt x="253" y="50" on="1"/>
        <pt x="305" y="50" on="0"/>
        <pt x="378" y="100" on="0"/>
        <pt x="417" y="181" on="0"/>
        <pt x="417" y="229" on="1"/>
        <pt x="417" y="242" on="1"/>
        <pt x="257" y="242" on="1"/>
        <pt x="194" y="242" on="0"/>
        <pt x="133" y="188" on="0"/>
        <pt x="133" y="146" on="1"/>
        <pt x="133" y="97" on="0"/>
        <pt x="206" y="50" on="0"/>
      </contour>
    </TTGlyph>
    <TTGlyph name="agrave" xMin="67" yMin="-10" xMax="566" yMax="784">
      <contour>
        <pt x="290" y="613" on="1"/>
        <pt x="191" y="784" on="1"/>
        <pt x="270" y="784" on="1"/>
        <pt x="356" y="613" on="1"/>
      </contour>
      <contour>
        <pt x="306" y="540" on="1"/>
        <pt x="361" y="540" on="0"/>
        <pt x="433" y="503" on="0"/>
        <pt x="476" y="453" on="0"/>
        <pt x="486" y="435" on="1"/>
        <pt x="492" y="435" on="1"/>
        <pt x="492" y="530" on="1"/>
        <pt x="566" y="530" on="1"/>
        <pt x="566" y="0" on="1"/>
        <pt x="492" y="0" on="1"/>
        <pt x="492" y="95" on="1"/>
        <pt x="486" y="95" on="1"/>
        <pt x="476" y="76" on="0"/>
        <pt x="433" y="27" on="0"/>
        <pt x="361" y="-10" on="0"/>
        <pt x="306" y="-10" on="1"/>
        <pt x="246" y="-10" on="0"/>
        <pt x="156" y="37" on="0"/>
        <pt x="96" y="116" on="0"/>
        <pt x="67" y="214" on="0"/>
        <pt x="67" y="265" on="1"/>
        <pt x="67" y="316" on="0"/>
        <pt x="96" y="414" on="0"/>
        <pt x="156" y="493" on="0"/>
        <pt x="246" y="540" on="0"/>
      </contour>
      <contour>
        <pt x="317" y="475" on="1"/>
        <pt x="258" y="475" on="0"/>
        <pt x="180" y="413" on="0"/>
        <pt x="142" y="317" on="0"/>
        <pt x="142" y="265" on="1"/>
        <pt x="142" y="213" on="0"/>
        <pt x="180" y="117" on="0"/>
        <pt x="258" y="55" on="0"/>
        <pt x="317" y="55" on="1"/>
        <pt x="375" y="55" on="0"/>
        <pt x="452" y="117" on="0"/>
        <pt x="491" y="213" on="0"/>
        <pt x="491" y="265" on="1"/>
        <pt x="491" y="317" on="0"/>
        <pt x="452" y="413" on="0"/>
        <pt x="375" y="475" on="0"/>
      </contour>
    </TTGlyph>
    <TTGlyph name="agrave.ss01" xMin="73" yMin="-10" xMax="499" yMax="784">
      <contour>
        <pt x="263" y="613" on="1"/>
        <pt x="164" y="784" on="1"/>
        <pt x="243" y="784" on="1"/>
        <pt x="329" y="613" on="1"/>
      </contour>
      <contour>
        <pt x="416" y="82" on="1"/>
        <pt x="416" y="82" on="0"/>
        <pt x="398" y="54" on="0"/>
        <pt x="358" y="18" on="0"/>
        <pt x="294" y="-10" on="0"/>
        <pt x="247" y="-10" on="1"/>
        <pt x="198" y="-10" on="0"/>
        <pt x="119" y="26" on="0"/>
        <pt x="73" y="93" on="0"/>
        <pt x="73" y="140" on="1"/>
        <pt x="73" y="193" on="0"/>
        <pt x="126" y="257" on="0"/>
        <pt x="210" y="291" on="0"/>
        <pt x="256" y="298" on="1"/>
        <pt x="424" y="322" on="1"/>
        <pt x="424" y="342" on="1"/>
        <pt x="424" y="361" on="0"/>
        <pt x="414" y="407" on="0"/>
        <pt x="386" y="449" on="0"/>
        <pt x="334" y="476" on="0"/>
        <pt x="293" y="476" on="1"/>
        <pt x="247" y="476" on="0"/>
        <pt x="193" y="444" on="0"/>
        <pt x="166" y="403" on="0"/>
        <pt x="158" y="372" on="0"/>
        <pt x="158" y="372" on="1"/>
        <pt x="85" y="372" on="1"/>
        <pt x="85" y="372" on="0"/>
        <pt x="92" y="406" on="0"/>
        <pt x="115" y="456" on="0"/>
        <pt x="160" y="506" on="0"/>
        <pt x="236" y="540" on="0"/>
        <pt x="293" y="540" on="1"/>
        <pt x="391" y="540" on="0"/>
        <pt x="499" y="429" on="0"/>
        <pt x="499" y="342" on="1"/>
        <pt x="499" y="0" on="1"/>
        <pt x="424" y="0" on="1"/>
        <pt x="424" y="82" on="1"/>
      </contour>
      <contour>
        <pt x="147" y="143" on="1"/>
        <pt x="147" y="95" on="0"/>
        <pt x="217" y="50" on="0"/>
        <pt x="260" y="50" on="1"/>
        <pt x="309" y="50" on="0"/>
        <pt x="383" y="99" on="0"/>
        <pt x="424" y="185" on="0"/>
        <pt x="424" y="238" on="1"/>
        <pt x="424" y="261" on="1"/>
        <pt x="266" y="238" on="1"/>
        <pt x="215" y="231" on="0"/>
        <pt x="147" y="189" on="0"/>
      </contour>
    </TTGlyph>
    <TTGlyph name="amacron" xMin="67" yMin="-10" xMax="566" yMax="688">
      <contour>
        <pt x="173" y="630" on="1"/>
        <pt x="173" y="688" on="1"/>
        <pt x="469" y="688" on="1"/>
        <pt x="469" y="630" on="1"/>
      </contour>
      <contour>
        <pt x="306" y="540" on="1"/>
        <pt x="361" y="540" on="0"/>
        <pt x="433" y="503" on="0"/>
        <pt x="476" y="453" on="0"/>
        <pt x="486" y="435" on="1"/>
        <pt x="492" y="435" on="1"/>
        <pt x="492" y="530" on="1"/>
        <pt x="566" y="530" on="1"/>
        <pt x="566" y="0" on="1"/>
        <pt x="492" y="0" on="1"/>
        <pt x="492" y="95" on="1"/>
        <pt x="486" y="95" on="1"/>
        <pt x="476" y="76" on="0"/>
        <pt x="433" y="27" on="0"/>
        <pt x="361" y="-10" on="0"/>
        <pt x="306" y="-10" on="1"/>
        <pt x="246" y="-10" on="0"/>
        <pt x="156" y="37" on="0"/>
        <pt x="96" y="116" on="0"/>
        <pt x="67" y="214" on="0"/>
        <pt x="67" y="265" on="1"/>
        <pt x="67" y="316" on="0"/>
        <pt x="96" y="414" on="0"/>
        <pt x="156" y="493" on="0"/>
        <pt x="246" y="540" on="0"/>
      </contour>
      <contour>
        <pt x="317" y="475" on="1"/>
        <pt x="258" y="475" on="0"/>
        <pt x="180" y="413" on="0"/>
        <pt x="142" y="317" on="0"/>
        <pt x="142" y="265" on="1"/>
        <pt x="142" y="213" on="0"/>
        <pt x="180" y="117" on="0"/>
        <pt x="258" y="55" on="0"/>
        <pt x="317" y="55" on="1"/>
        <pt x="375" y="55" on="0"/>
        <pt x="452" y="117" on="0"/>
        <pt x="491" y="213" on="0"/>
        <pt x="491" y="265" on="1"/>
        <pt x="491" y="317" on="0"/>
        <pt x="452" y="413" on="0"/>
        <pt x="375" y="475" on="0"/>
      </contour>
    </TTGlyph>
    <TTGlyph name="amacron.ss01" xMin="73" yMin="-10" xMax="499" yMax="688">
      <contour>
        <pt x="146" y="630" on="1"/>
        <pt x="146" y="688" on="1"/>
        <pt x="442" y="688" on="1"/>
        <pt x="442" y="630" on="1"/>
      </contour>
      <contour>
        <pt x="416" y="82" on="1"/>
        <pt x="416" y="82" on="0"/>
        <pt x="398" y="54" on="0"/>
        <pt x="358" y="18" on="0"/>
        <pt x="294" y="-10" on="0"/>
        <pt x="247" y="-10" on="1"/>
        <pt x="198" y="-10" on="0"/>
        <pt x="119" y="26" on="0"/>
        <pt x="73" y="93" on="0"/>
        <pt x="73" y="140" on="1"/>
        <pt x="73" y="193" on="0"/>
        <pt x="126" y="257" on="0"/>
        <pt x="210" y="291" on="0"/>
        <pt x="256" y="298" on="1"/>
        <pt x="424" y="322" on="1"/>
        <pt x="424" y="342" on="1"/>
        <pt x="424" y="361" on="0"/>
        <pt x="414" y="407" on="0"/>
        <pt x="386" y="449" on="0"/>
        <pt x="334" y="476" on="0"/>
        <pt x="293" y="476" on="1"/>
        <pt x="247" y="476" on="0"/>
        <pt x="193" y="444" on="0"/>
        <pt x="166" y="403" on="0"/>
        <pt x="158" y="372" on="0"/>
        <pt x="158" y="372" on="1"/>
        <pt x="85" y="372" on="1"/>
        <pt x="85" y="372" on="0"/>
        <pt x="92" y="406" on="0"/>
        <pt x="115" y="456" on="0"/>
        <pt x="160" y="506" on="0"/>
        <pt x="236" y="540" on="0"/>
        <pt x="293" y="540" on="1"/>
        <pt x="391" y="540" on="0"/>
        <pt x="499" y="429" on="0"/>
        <pt x="499" y="342" on="1"/>
        <pt x="499" y="0" on="1"/>
        <pt x="424" y="0" on="1"/>
        <pt x="424" y="82" on="1"/>
      </contour>
      <contour>
        <pt x="147" y="143" on="1"/>
        <pt x="147" y="95" on="0"/>
        <pt x="217" y="50" on="0"/>
        <pt x="260" y="50" on="1"/>
        <pt x="309" y="50" on="0"/>
        <pt x="383" y="99" on="0"/>
        <pt x="424" y="185" on="0"/>
        <pt x="424" y="238" on="1"/>
        <pt x="424" y="261" on="1"/>
        <pt x="266" y="238" on="1"/>
        <pt x="215" y="231" on="0"/>
        <pt x="147" y="189" on="0"/>
      </contour>
    </TTGlyph>
    <TTGlyph name="ampersand" xMin="60" yMin="-10" xMax="676" yMax="750">
      <contour>
        <pt x="308" y="-10" on="1"/>
        <pt x="240" y="-10" on="0"/>
        <pt x="127" y="41" on="0"/>
        <pt x="60" y="135" on="0"/>
        <pt x="60" y="201" on="1"/>
        <pt x="60" y="276" on="0"/>
        <pt x="150" y="379" on="0"/>
        <pt x="217" y="416" on="1"/>
        <pt x="214" y="419" on="1"/>
        <pt x="199" y="437" on="0"/>
        <pt x="163" y="484" on="0"/>
        <pt x="137" y="546" on="0"/>
        <pt x="137" y="584" on="1"/>
        <pt x="137" y="639" on="0"/>
        <pt x="186" y="712" on="0"/>
        <pt x="265" y="750" on="0"/>
        <pt x="310" y="750" on="1"/>
        <pt x="352" y="750" on="0"/>
        <pt x="427" y="715" on="0"/>
        <pt x="475" y="646" on="0"/>
        <pt x="475" y="597" on="1"/>
        <pt x="475" y="536" on="0"/>
        <pt x="396" y="440" on="0"/>
        <pt x="320" y="403" on="1"/>
        <pt x="519" y="179" on="1"/>
        <pt x="544" y="224" on="0"/>
        <pt x="572" y="347" on="0"/>
        <pt x="572" y="427" on="1"/>
        <pt x="637" y="427" on="1"/>
        <pt x="637" y="329" on="0"/>
        <pt x="598" y="180" on="0"/>
        <pt x="564" y="128" on="1"/>
        <pt x="676" y="1" on="1"/>
        <pt x="581" y="1" on="1"/>
        <pt x="518" y="72" on="1"/>
        <pt x="474" y="30" on="0"/>
        <pt x="366" y="-10" on="0"/>
      </contour>
      <contour>
        <pt x="275" y="454" on="1"/>
        <pt x="281" y="447" on="1"/>
        <pt x="292" y="453" on="1"/>
        <pt x="348" y="479" on="0"/>
        <pt x="408" y="548" on="0"/>
        <pt x="408" y="593" on="1"/>
        <pt x="408" y="640" on="0"/>
        <pt x="348" y="689" on="0"/>
        <pt x="310" y="689" on="1"/>
        <pt x="268" y="689" on="0"/>
        <pt x="204" y="635" on="0"/>
        <pt x="204" y="586" on="1"/>
        <pt x="204" y="546" on="0"/>
        <pt x="250" y="482" on="0"/>
      </contour>
      <contour>
        <pt x="131" y="206" on="1"/>
        <pt x="131" y="158" on="0"/>
        <pt x="181" y="91" on="0"/>
        <pt x="263" y="55" on="0"/>
        <pt x="312" y="55" on="1"/>
        <pt x="358" y="55" on="0"/>
        <pt x="442" y="87" on="0"/>
        <pt x="475" y="121" on="1"/>
        <pt x="256" y="372" on="1"/>
        <pt x="206" y="345" on="0"/>
        <pt x="131" y="266" on="0"/>
      </contour>
    </TTGlyph>
    <TTGlyph name="aogonek" xMin="67" yMin="-163" xMax="608" yMax="540">
      <contour>
        <pt x="558" y="-163" on="1"/>
        <pt x="504" y="-163" on="0"/>
        <pt x="449" y="-114" on="0"/>
        <pt x="449" y="-78" on="1"/>
        <pt x="449" y="-49" on="0"/>
        <pt x="479" y="-11" on="0"/>
        <pt x="496" y="0" on="1"/>
        <pt x="492" y="0" on="1"/>
        <pt x="492" y="95" on="1"/>
        <pt x="486" y="95" on="1"/>
        <pt x="476" y="76" on="0"/>
        <pt x="433" y="27" on="0"/>
        <pt x="361" y="-10" on="0"/>
        <pt x="306" y="-10" on="1"/>
        <pt x="246" y="-10" on="0"/>
        <pt x="156" y="37" on="0"/>
        <pt x="96" y="116" on="0"/>
        <pt x="67" y="214" on="0"/>
        <pt x="67" y="265" on="1"/>
        <pt x="67" y="316" on="0"/>
        <pt x="96" y="414" on="0"/>
        <pt x="156" y="493" on="0"/>
        <pt x="246" y="540" on="0"/>
        <pt x="306" y="540" on="1"/>
        <pt x="361" y="540" on="0"/>
        <pt x="433" y="503" on="0"/>
        <pt x="476" y="453" on="0"/>
        <pt x="486" y="435" on="1"/>
        <pt x="492" y="435" on="1"/>
        <pt x="492" y="530" on="1"/>
        <pt x="566" y="530" on="1"/>
        <pt x="566" y="0" on="1"/>
        <pt x="566" y="0" on="0"/>
        <pt x="539" y="-14" on="0"/>
        <pt x="511" y="-44" on="0"/>
        <pt x="511" y="-66" on="1"/>
        <pt x="511" y="-85" on="0"/>
        <pt x="540" y="-111" on="0"/>
        <pt x="570" y="-111" on="1"/>
        <pt x="584" y="-111" on="0"/>
        <pt x="608" y="-106" on="0"/>
        <pt x="608" y="-106" on="1"/>
        <pt x="608" y="-157" on="1"/>
        <pt x="608" y="-157" on="0"/>
        <pt x="579" y="-163" on="0"/>
      </contour>
      <contour>
        <pt x="317" y="475" on="1"/>
        <pt x="258" y="475" on="0"/>
        <pt x="180" y="413" on="0"/>
        <pt x="142" y="317" on="0"/>
        <pt x="142" y="265" on="1"/>
        <pt x="142" y="213" on="0"/>
        <pt x="180" y="117" on="0"/>
        <pt x="258" y="55" on="0"/>
        <pt x="317" y="55" on="1"/>
        <pt x="375" y="55" on="0"/>
        <pt x="452" y="117" on="0"/>
        <pt x="491" y="213" on="0"/>
        <pt x="491" y="265" on="1"/>
        <pt x="491" y="317" on="0"/>
        <pt x="452" y="413" on="0"/>
        <pt x="375" y="475" on="0"/>
      </contour>
    </TTGlyph>
    <TTGlyph name="aogonek.ss01" xMin="73" yMin="-163" xMax="541" yMax="540">
      <contour>
        <pt x="491" y="-163" on="1"/>
        <pt x="437" y="-163" on="0"/>
        <pt x="382" y="-114" on="0"/>
        <pt x="382" y="-78" on="1"/>
        <pt x="382" y="-49" on="0"/>
        <pt x="412" y="-11" on="0"/>
        <pt x="429" y="0" on="1"/>
        <pt x="424" y="0" on="1"/>
        <pt x="424" y="82" on="1"/>
        <pt x="416" y="82" on="1"/>
        <pt x="416" y="82" on="0"/>
        <pt x="398" y="54" on="0"/>
        <pt x="358" y="18" on="0"/>
        <pt x="294" y="-10" on="0"/>
        <pt x="247" y="-10" on="1"/>
        <pt x="198" y="-10" on="0"/>
        <pt x="119" y="26" on="0"/>
        <pt x="73" y="93" on="0"/>
        <pt x="73" y="140" on="1"/>
        <pt x="73" y="193" on="0"/>
        <pt x="126" y="257" on="0"/>
        <pt x="210" y="291" on="0"/>
        <pt x="256" y="298" on="1"/>
        <pt x="424" y="322" on="1"/>
        <pt x="424" y="342" on="1"/>
        <pt x="424" y="361" on="0"/>
        <pt x="414" y="407" on="0"/>
        <pt x="386" y="449" on="0"/>
        <pt x="334" y="476" on="0"/>
        <pt x="293" y="476" on="1"/>
        <pt x="247" y="476" on="0"/>
        <pt x="193" y="444" on="0"/>
        <pt x="166" y="403" on="0"/>
        <pt x="158" y="372" on="0"/>
        <pt x="158" y="372" on="1"/>
        <pt x="85" y="372" on="1"/>
        <pt x="85" y="372" on="0"/>
        <pt x="92" y="406" on="0"/>
        <pt x="115" y="456" on="0"/>
        <pt x="160" y="506" on="0"/>
        <pt x="236" y="540" on="0"/>
        <pt x="293" y="540" on="1"/>
        <pt x="391" y="540" on="0"/>
        <pt x="499" y="429" on="0"/>
        <pt x="499" y="342" on="1"/>
        <pt x="499" y="0" on="1"/>
        <pt x="499" y="0" on="0"/>
        <pt x="472" y="-14" on="0"/>
        <pt x="444" y="-44" on="0"/>
        <pt x="444" y="-66" on="1"/>
        <pt x="444" y="-85" on="0"/>
        <pt x="473" y="-111" on="0"/>
        <pt x="503" y="-111" on="1"/>
        <pt x="517" y="-111" on="0"/>
        <pt x="541" y="-106" on="0"/>
        <pt x="541" y="-106" on="1"/>
        <pt x="541" y="-157" on="1"/>
        <pt x="541" y="-157" on="0"/>
        <pt x="512" y="-163" on="0"/>
      </contour>
      <contour>
        <pt x="147" y="143" on="1"/>
        <pt x="147" y="95" on="0"/>
        <pt x="217" y="50" on="0"/>
        <pt x="260" y="50" on="1"/>
        <pt x="309" y="50" on="0"/>
        <pt x="383" y="99" on="0"/>
        <pt x="424" y="185" on="0"/>
        <pt x="424" y="238" on="1"/>
        <pt x="424" y="261" on="1"/>
        <pt x="266" y="238" on="1"/>
        <pt x="215" y="231" on="0"/>
        <pt x="147" y="189" on="0"/>
      </contour>
    </TTGlyph>
    <TTGlyph name="approxequal" xMin="118" yMin="163" xMax="430" yMax="492">
      <contour>
        <pt x="343" y="368" on="1"/>
        <pt x="316" y="368" on="0"/>
        <pt x="279" y="389" on="0"/>
        <pt x="251" y="418" on="0"/>
        <pt x="225" y="439" on="0"/>
        <pt x="208" y="439" on="1"/>
        <pt x="188" y="439" on="0"/>
        <pt x="171" y="404" on="0"/>
        <pt x="171" y="373" on="1"/>
        <pt x="118" y="373" on="1"/>
        <pt x="118" y="403" on="0"/>
        <pt x="134" y="457" on="0"/>
        <pt x="172" y="492" on="0"/>
        <pt x="205" y="492" on="1"/>
        <pt x="233" y="492" on="0"/>
        <pt x="271" y="471" on="0"/>
        <pt x="299" y="442" on="0"/>
        <pt x="325" y="421" on="0"/>
        <pt x="341" y="421" on="1"/>
        <pt x="360" y="421" on="0"/>
        <pt x="377" y="456" on="0"/>
        <pt x="377" y="487" on="1"/>
        <pt x="430" y="487" on="1"/>
        <pt x="430" y="457" on="0"/>
        <pt x="414" y="403" on="0"/>
        <pt x="376" y="368" on="0"/>
      </contour>
      <contour>
        <pt x="343" y="163" on="1"/>
        <pt x="316" y="163" on="0"/>
        <pt x="279" y="184" on="0"/>
        <pt x="251" y="213" on="0"/>
        <pt x="225" y="234" on="0"/>
        <pt x="208" y="234" on="1"/>
        <pt x="188" y="234" on="0"/>
        <pt x="171" y="198" on="0"/>
        <pt x="171" y="168" on="1"/>
        <pt x="118" y="168" on="1"/>
        <pt x="118" y="198" on="0"/>
        <pt x="134" y="252" on="0"/>
        <pt x="172" y="287" on="0"/>
        <pt x="205" y="287" on="1"/>
        <pt x="233" y="287" on="0"/>
        <pt x="271" y="266" on="0"/>
        <pt x="299" y="237" on="0"/>
        <pt x="325" y="216" on="0"/>
        <pt x="341" y="216" on="1"/>
        <pt x="360" y="216" on="0"/>
        <pt x="377" y="251" on="0"/>
        <pt x="377" y="282" on="1"/>
        <pt x="430" y="282" on="1"/>
        <pt x="430" y="252" on="0"/>
        <pt x="414" y="198" on="0"/>
        <pt x="376" y="163" on="0"/>
      </contour>
    </TTGlyph>
    <TTGlyph name="aring" xMin="67" yMin="-10" xMax="566" yMax="839">
      <contour>
        <pt x="321" y="606" on="1"/>
        <pt x="289" y="606" on="0"/>
        <pt x="236" y="637" on="0"/>
        <pt x="204" y="690" on="0"/>
        <pt x="204" y="722" on="1"/>
        <pt x="204" y="755" on="0"/>
        <pt x="236" y="808" on="0"/>
        <pt x="289" y="839" on="0"/>
        <pt x="321" y="839" on="1"/>
        <pt x="353" y="839" on="0"/>
        <pt x="406" y="808" on="0"/>
        <pt x="437" y="755" on="0"/>
        <pt x="437" y="722" on="1"/>
        <pt x="437" y="690" on="0"/>
        <pt x="406" y="637" on="0"/>
        <pt x="353" y="606" on="0"/>
      </contour>
      <contour>
        <pt x="321" y="661" on="1"/>
        <pt x="346" y="661" on="0"/>
        <pt x="382" y="697" on="0"/>
        <pt x="382" y="722" on="1"/>
        <pt x="382" y="748" on="0"/>
        <pt x="346" y="784" on="0"/>
        <pt x="321" y="784" on="1"/>
        <pt x="295" y="784" on="0"/>
        <pt x="259" y="748" on="0"/>
        <pt x="259" y="722" on="1"/>
        <pt x="259" y="697" on="0"/>
        <pt x="295" y="661" on="0"/>
      </contour>
      <contour>
        <pt x="306" y="540" on="1"/>
        <pt x="361" y="540" on="0"/>
        <pt x="433" y="503" on="0"/>
        <pt x="476" y="453" on="0"/>
        <pt x="486" y="435" on="1"/>
        <pt x="492" y="435" on="1"/>
        <pt x="492" y="530" on="1"/>
        <pt x="566" y="530" on="1"/>
        <pt x="566" y="0" on="1"/>
        <pt x="492" y="0" on="1"/>
        <pt x="492" y="95" on="1"/>
        <pt x="486" y="95" on="1"/>
        <pt x="476" y="76" on="0"/>
        <pt x="433" y="27" on="0"/>
        <pt x="361" y="-10" on="0"/>
        <pt x="306" y="-10" on="1"/>
        <pt x="246" y="-10" on="0"/>
        <pt x="156" y="37" on="0"/>
        <pt x="96" y="116" on="0"/>
        <pt x="67" y="214" on="0"/>
        <pt x="67" y="265" on="1"/>
        <pt x="67" y="316" on="0"/>
        <pt x="96" y="414" on="0"/>
        <pt x="156" y="493" on="0"/>
        <pt x="246" y="540" on="0"/>
      </contour>
      <contour>
        <pt x="317" y="475" on="1"/>
        <pt x="258" y="475" on="0"/>
        <pt x="180" y="413" on="0"/>
        <pt x="142" y="317" on="0"/>
        <pt x="142" y="265" on="1"/>
        <pt x="142" y="213" on="0"/>
        <pt x="180" y="117" on="0"/>
        <pt x="258" y="55" on="0"/>
        <pt x="317" y="55" on="1"/>
        <pt x="375" y="55" on="0"/>
        <pt x="452" y="117" on="0"/>
        <pt x="491" y="213" on="0"/>
        <pt x="491" y="265" on="1"/>
        <pt x="491" y="317" on="0"/>
        <pt x="452" y="413" on="0"/>
        <pt x="375" y="475" on="0"/>
      </contour>
    </TTGlyph>
    <TTGlyph name="aring.ss01" xMin="73" yMin="-10" xMax="499" yMax="839">
      <contour>
        <pt x="294" y="606" on="1"/>
        <pt x="262" y="606" on="0"/>
        <pt x="209" y="637" on="0"/>
        <pt x="177" y="690" on="0"/>
        <pt x="177" y="722" on="1"/>
        <pt x="177" y="755" on="0"/>
        <pt x="209" y="808" on="0"/>
        <pt x="262" y="839" on="0"/>
        <pt x="294" y="839" on="1"/>
        <pt x="326" y="839" on="0"/>
        <pt x="379" y="808" on="0"/>
        <pt x="410" y="755" on="0"/>
        <pt x="410" y="722" on="1"/>
        <pt x="410" y="690" on="0"/>
        <pt x="379" y="637" on="0"/>
        <pt x="326" y="606" on="0"/>
      </contour>
      <contour>
        <pt x="294" y="661" on="1"/>
        <pt x="319" y="661" on="0"/>
        <pt x="355" y="697" on="0"/>
        <pt x="355" y="722" on="1"/>
        <pt x="355" y="748" on="0"/>
        <pt x="319" y="784" on="0"/>
        <pt x="294" y="784" on="1"/>
        <pt x="268" y="784" on="0"/>
        <pt x="232" y="748" on="0"/>
        <pt x="232" y="722" on="1"/>
        <pt x="232" y="697" on="0"/>
        <pt x="268" y="661" on="0"/>
      </contour>
      <contour>
        <pt x="416" y="82" on="1"/>
        <pt x="416" y="82" on="0"/>
        <pt x="398" y="54" on="0"/>
        <pt x="358" y="18" on="0"/>
        <pt x="294" y="-10" on="0"/>
        <pt x="247" y="-10" on="1"/>
        <pt x="198" y="-10" on="0"/>
        <pt x="119" y="26" on="0"/>
        <pt x="73" y="93" on="0"/>
        <pt x="73" y="140" on="1"/>
        <pt x="73" y="193" on="0"/>
        <pt x="126" y="257" on="0"/>
        <pt x="210" y="291" on="0"/>
        <pt x="256" y="298" on="1"/>
        <pt x="424" y="322" on="1"/>
        <pt x="424" y="342" on="1"/>
        <pt x="424" y="361" on="0"/>
        <pt x="414" y="407" on="0"/>
        <pt x="386" y="449" on="0"/>
        <pt x="334" y="476" on="0"/>
        <pt x="293" y="476" on="1"/>
        <pt x="247" y="476" on="0"/>
        <pt x="193" y="444" on="0"/>
        <pt x="166" y="403" on="0"/>
        <pt x="158" y="372" on="0"/>
        <pt x="158" y="372" on="1"/>
        <pt x="85" y="372" on="1"/>
        <pt x="85" y="372" on="0"/>
        <pt x="92" y="406" on="0"/>
        <pt x="115" y="456" on="0"/>
        <pt x="160" y="506" on="0"/>
        <pt x="236" y="540" on="0"/>
        <pt x="293" y="540" on="1"/>
        <pt x="391" y="540" on="0"/>
        <pt x="499" y="429" on="0"/>
        <pt x="499" y="342" on="1"/>
        <pt x="499" y="0" on="1"/>
        <pt x="424" y="0" on="1"/>
        <pt x="424" y="82" on="1"/>
      </contour>
      <contour>
        <pt x="147" y="143" on="1"/>
        <pt x="147" y="95" on="0"/>
        <pt x="217" y="50" on="0"/>
        <pt x="260" y="50" on="1"/>
        <pt x="309" y="50" on="0"/>
        <pt x="383" y="99" on="0"/>
        <pt x="424" y="185" on="0"/>
        <pt x="424" y="238" on="1"/>
        <pt x="424" y="261" on="1"/>
        <pt x="266" y="238" on="1"/>
        <pt x="215" y="231" on="0"/>
        <pt x="147" y="189" on="0"/>
      </contour>
    </TTGlyph>
    <TTGlyph name="asciicircum" xMin="118" yMin="578" xMax="420" yMax="740">
      <contour>
        <pt x="118" y="578" on="1"/>
        <pt x="236" y="740" on="1"/>
        <pt x="302" y="740" on="1"/>
        <pt x="420" y="578" on="1"/>
        <pt x="350" y="578" on="1"/>
        <pt x="269" y="691" on="1"/>
        <pt x="188" y="578" on="1"/>
      </contour>
    </TTGlyph>
    <TTGlyph name="asciitilde" xMin="72" yMin="319" xMax="383" yMax="443">
      <contour>
        <pt x="296" y="319" on="1"/>
        <pt x="269" y="319" on="0"/>
        <pt x="233" y="340" on="0"/>
        <pt x="205" y="369" on="0"/>
        <pt x="178" y="390" on="0"/>
        <pt x="162" y="390" on="1"/>
        <pt x="142" y="390" on="0"/>
        <pt x="125" y="355" on="0"/>
        <pt x="125" y="324" on="1"/>
        <pt x="72" y="324" on="1"/>
        <pt x="72" y="354" on="0"/>
        <pt x="88" y="408" on="0"/>
        <pt x="126" y="443" on="0"/>
        <pt x="159" y="443" on="1"/>
        <pt x="187" y="443" on="0"/>
        <pt x="225" y="422" on="0"/>
        <pt x="253" y="393" on="0"/>
        <pt x="279" y="372" on="0"/>
        <pt x="295" y="372" on="1"/>
        <pt x="313" y="372" on="0"/>
        <pt x="330" y="407" on="0"/>
        <pt x="330" y="438" on="1"/>
        <pt x="383" y="438" on="1"/>
        <pt x="383" y="408" on="0"/>
        <pt x="367" y="354" on="0"/>
        <pt x="329" y="319" on="0"/>
      </contour>
    </TTGlyph>
    <TTGlyph name="asterisk" xMin="43" yMin="351" xMax="453" yMax="740">
      <contour>
        <pt x="153" y="351" on="1"/>
        <pt x="102" y="387" on="1"/>
        <pt x="200" y="519" on="1"/>
        <pt x="43" y="569" on="1"/>
        <pt x="62" y="628" on="1"/>
        <pt x="218" y="576" on="1"/>
        <pt x="217" y="740" on="1"/>
        <pt x="279" y="740" on="1"/>
        <pt x="278" y="576" on="1"/>
        <pt x="434" y="628" on="1"/>
        <pt x="453" y="569" on="1"/>
        <pt x="297" y="519" on="1"/>
        <pt x="394" y="387" on="1"/>
        <pt x="344" y="351" on="1"/>
        <pt x="248" y="484" on="1"/>
      </contour>
    </TTGlyph>
    <TTGlyph name="at" xMin="57" yMin="-118" xMax="924" yMax="747">
      <contour>
        <pt x="504" y="-118" on="1"/>
        <pt x="391" y="-118" on="0"/>
        <pt x="223" y="-46" on="0"/>
        <pt x="112" y="76" on="0"/>
        <pt x="57" y="230" on="0"/>
        <pt x="57" y="312" on="1"/>
        <pt x="57" y="394" on="0"/>
        <pt x="112" y="550" on="0"/>
        <pt x="221" y="674" on="0"/>
        <pt x="384" y="747" on="0"/>
        <pt x="492" y="747" on="1"/>
        <pt x="578" y="747" on="0"/>
        <pt x="733" y="691" on="0"/>
        <pt x="854" y="584" on="0"/>
        <pt x="924" y="429" on="0"/>
        <pt x="924" y="329" on="1"/>
        <pt x="924" y="261" on="0"/>
        <pt x="886" y="153" on="0"/>
        <pt x="812" y="91" on="0"/>
        <pt x="759" y="91" on="1"/>
        <pt x="702" y="91" on="0"/>
        <pt x="632" y="151" on="0"/>
        <pt x="620" y="191" on="1"/>
        <pt x="615" y="191" on="1"/>
        <pt x="608" y="174" on="0"/>
        <pt x="571" y="127" on="0"/>
        <pt x="506" y="91" on="0"/>
        <pt x="456" y="91" on="1"/>
        <pt x="393" y="91" on="0"/>
        <pt x="309" y="155" on="0"/>
        <pt x="267" y="256" on="0"/>
        <pt x="267" y="311" on="1"/>
        <pt x="267" y="366" on="0"/>
        <pt x="309" y="467" on="0"/>
        <pt x="392" y="531" on="0"/>
        <pt x="455" y="531" on="1"/>
        <pt x="513" y="531" on="0"/>
        <pt x="583" y="478" on="0"/>
        <pt x="598" y="453" on="1"/>
        <pt x="602" y="453" on="1"/>
        <pt x="602" y="523" on="1"/>
        <pt x="673" y="523" on="1"/>
        <pt x="673" y="324" on="1"/>
        <pt x="673" y="308" on="0"/>
        <pt x="677" y="252" on="0"/>
        <pt x="692" y="193" on="0"/>
        <pt x="728" y="152" on="0"/>
        <pt x="761" y="152" on="1"/>
        <pt x="808" y="152" on="0"/>
        <pt x="855" y="245" on="0"/>
        <pt x="855" y="329" on="1"/>
        <pt x="855" y="415" on="0"/>
        <pt x="796" y="547" on="0"/>
        <pt x="695" y="637" on="0"/>
        <pt x="564" y="683" on="0"/>
        <pt x="492" y="683" on="1"/>
        <pt x="402" y="683" on="0"/>
        <pt x="265" y="621" on="0"/>
        <pt x="173" y="516" on="0"/>
        <pt x="127" y="384" on="0"/>
        <pt x="127" y="313" on="1"/>
        <pt x="127" y="243" on="0"/>
        <pt x="173" y="112" on="0"/>
        <pt x="267" y="8" on="0"/>
        <pt x="408" y="-53" on="0"/>
        <pt x="503" y="-53" on="1"/>
        <pt x="575" y="-53" on="0"/>
        <pt x="681" y="-25" on="0"/>
        <pt x="740" y="3" on="0"/>
        <pt x="740" y="3" on="1"/>
        <pt x="766" y="-56" on="1"/>
        <pt x="766" y="-56" on="0"/>
        <pt x="704" y="-87" on="0"/>
        <pt x="587" y="-118" on="0"/>
      </contour>
      <contour>
        <pt x="469" y="151" on="1"/>
        <pt x="513" y="151" on="0"/>
        <pt x="570" y="198" on="0"/>
        <pt x="598" y="271" on="0"/>
        <pt x="598" y="311" on="1"/>
        <pt x="598" y="350" on="0"/>
        <pt x="570" y="423" on="0"/>
        <pt x="513" y="470" on="0"/>
        <pt x="469" y="470" on="1"/>
        <pt x="426" y="470" on="0"/>
        <pt x="369" y="423" on="0"/>
        <pt x="340" y="350" on="0"/>
        <pt x="340" y="311" on="1"/>
        <pt x="340" y="271" on="0"/>
        <pt x="369" y="198" on="0"/>
        <pt x="426" y="151" on="0"/>
      </contour>
    </TTGlyph>
    <TTGlyph name="atilde" xMin="67" yMin="-10" xMax="566" yMax="745">
      <contour>
        <pt x="386" y="618" on="1"/>
        <pt x="361" y="618" on="0"/>
        <pt x="326" y="640" on="0"/>
        <pt x="300" y="668" on="0"/>
        <pt x="276" y="689" on="0"/>
        <pt x="261" y="689" on="1"/>
        <pt x="243" y="689" on="0"/>
        <pt x="228" y="654" on="0"/>
        <pt x="228" y="624" on="1"/>
        <pt x="175" y="624" on="1"/>
        <pt x="175" y="654" on="0"/>
        <pt x="190" y="710" on="0"/>
        <pt x="226" y="745" on="0"/>
        <pt x="257" y="745" on="1"/>
        <pt x="283" y="745" on="0"/>
        <pt x="319" y="724" on="0"/>
        <pt x="345" y="696" on="0"/>
        <pt x="368" y="675" on="0"/>
        <pt x="382" y="675" on="1"/>
        <pt x="399" y="675" on="0"/>
        <pt x="415" y="710" on="0"/>
        <pt x="415" y="740" on="1"/>
        <pt x="467" y="740" on="1"/>
        <pt x="467" y="710" on="0"/>
        <pt x="453" y="654" on="0"/>
        <pt x="417" y="618" on="0"/>
      </contour>
      <contour>
        <pt x="306" y="540" on="1"/>
        <pt x="361" y="540" on="0"/>
        <pt x="433" y="503" on="0"/>
        <pt x="476" y="453" on="0"/>
        <pt x="486" y="435" on="1"/>
        <pt x="492" y="435" on="1"/>
        <pt x="492" y="530" on="1"/>
        <pt x="566" y="530" on="1"/>
        <pt x="566" y="0" on="1"/>
        <pt x="492" y="0" on="1"/>
        <pt x="492" y="95" on="1"/>
        <pt x="486" y="95" on="1"/>
        <pt x="476" y="76" on="0"/>
        <pt x="433" y="27" on="0"/>
        <pt x="361" y="-10" on="0"/>
        <pt x="306" y="-10" on="1"/>
        <pt x="246" y="-10" on="0"/>
        <pt x="156" y="37" on="0"/>
        <pt x="96" y="116" on="0"/>
        <pt x="67" y="214" on="0"/>
        <pt x="67" y="265" on="1"/>
        <pt x="67" y="316" on="0"/>
        <pt x="96" y="414" on="0"/>
        <pt x="156" y="493" on="0"/>
        <pt x="246" y="540" on="0"/>
      </contour>
      <contour>
        <pt x="317" y="475" on="1"/>
        <pt x="258" y="475" on="0"/>
        <pt x="180" y="413" on="0"/>
        <pt x="142" y="317" on="0"/>
        <pt x="142" y="265" on="1"/>
        <pt x="142" y="213" on="0"/>
        <pt x="180" y="117" on="0"/>
        <pt x="258" y="55" on="0"/>
        <pt x="317" y="55" on="1"/>
        <pt x="375" y="55" on="0"/>
        <pt x="452" y="117" on="0"/>
        <pt x="491" y="213" on="0"/>
        <pt x="491" y="265" on="1"/>
        <pt x="491" y="317" on="0"/>
        <pt x="452" y="413" on="0"/>
        <pt x="375" y="475" on="0"/>
      </contour>
    </TTGlyph>
    <TTGlyph name="atilde.ss01" xMin="73" yMin="-10" xMax="499" yMax="745">
      <contour>
        <pt x="359" y="618" on="1"/>
        <pt x="334" y="618" on="0"/>
        <pt x="299" y="640" on="0"/>
        <pt x="273" y="668" on="0"/>
        <pt x="249" y="689" on="0"/>
        <pt x="234" y="689" on="1"/>
        <pt x="216" y="689" on="0"/>
        <pt x="201" y="654" on="0"/>
        <pt x="201" y="624" on="1"/>
        <pt x="148" y="624" on="1"/>
        <pt x="148" y="654" on="0"/>
        <pt x="163" y="710" on="0"/>
        <pt x="199" y="745" on="0"/>
        <pt x="230" y="745" on="1"/>
        <pt x="256" y="745" on="0"/>
        <pt x="292" y="724" on="0"/>
        <pt x="318" y="696" on="0"/>
        <pt x="341" y="675" on="0"/>
        <pt x="355" y="675" on="1"/>
        <pt x="372" y="675" on="0"/>
        <pt x="388" y="710" on="0"/>
        <pt x="388" y="740" on="1"/>
        <pt x="440" y="740" on="1"/>
        <pt x="440" y="710" on="0"/>
        <pt x="426" y="654" on="0"/>
        <pt x="390" y="618" on="0"/>
      </contour>
      <contour>
        <pt x="416" y="82" on="1"/>
        <pt x="416" y="82" on="0"/>
        <pt x="398" y="54" on="0"/>
        <pt x="358" y="18" on="0"/>
        <pt x="294" y="-10" on="0"/>
        <pt x="247" y="-10" on="1"/>
        <pt x="198" y="-10" on="0"/>
        <pt x="119" y="26" on="0"/>
        <pt x="73" y="93" on="0"/>
        <pt x="73" y="140" on="1"/>
        <pt x="73" y="193" on="0"/>
        <pt x="126" y="257" on="0"/>
        <pt x="210" y="291" on="0"/>
        <pt x="256" y="298" on="1"/>
        <pt x="424" y="322" on="1"/>
        <pt x="424" y="342" on="1"/>
        <pt x="424" y="361" on="0"/>
        <pt x="414" y="407" on="0"/>
        <pt x="386" y="449" on="0"/>
        <pt x="334" y="476" on="0"/>
        <pt x="293" y="476" on="1"/>
        <pt x="247" y="476" on="0"/>
        <pt x="193" y="444" on="0"/>
        <pt x="166" y="403" on="0"/>
        <pt x="158" y="372" on="0"/>
        <pt x="158" y="372" on="1"/>
        <pt x="85" y="372" on="1"/>
        <pt x="85" y="372" on="0"/>
        <pt x="92" y="406" on="0"/>
        <pt x="115" y="456" on="0"/>
        <pt x="160" y="506" on="0"/>
        <pt x="236" y="540" on="0"/>
        <pt x="293" y="540" on="1"/>
        <pt x="391" y="540" on="0"/>
        <pt x="499" y="429" on="0"/>
        <pt x="499" y="342" on="1"/>
        <pt x="499" y="0" on="1"/>
        <pt x="424" y="0" on="1"/>
        <pt x="424" y="82" on="1"/>
      </contour>
      <contour>
        <pt x="147" y="143" on="1"/>
        <pt x="147" y="95" on="0"/>
        <pt x="217" y="50" on="0"/>
        <pt x="260" y="50" on="1"/>
        <pt x="309" y="50" on="0"/>
        <pt x="383" y="99" on="0"/>
        <pt x="424" y="185" on="0"/>
        <pt x="424" y="238" on="1"/>
        <pt x="424" y="261" on="1"/>
        <pt x="266" y="238" on="1"/>
        <pt x="215" y="231" on="0"/>
        <pt x="147" y="189" on="0"/>
      </contour>
    </TTGlyph>
    <TTGlyph name="b" xMin="83" yMin="-10" xMax="583" yMax="760">
      <contour>
        <pt x="344" y="-10" on="1"/>
        <pt x="289" y="-10" on="0"/>
        <pt x="217" y="27" on="0"/>
        <pt x="174" y="77" on="0"/>
        <pt x="163" y="95" on="1"/>
        <pt x="158" y="95" on="1"/>
        <pt x="158" y="0" on="1"/>
        <pt x="83" y="0" on="1"/>
        <pt x="83" y="760" on="1"/>
        <pt x="158" y="760" on="1"/>
        <pt x="158" y="435" on="1"/>
        <pt x="163" y="435" on="1"/>
        <pt x="174" y="454" on="0"/>
        <pt x="217" y="503" on="0"/>
        <pt x="289" y="540" on="0"/>
        <pt x="344" y="540" on="1"/>
        <pt x="404" y="540" on="0"/>
        <pt x="494" y="493" on="0"/>
        <pt x="553" y="414" on="0"/>
        <pt x="583" y="316" on="0"/>
        <pt x="583" y="265" on="1"/>
        <pt x="583" y="214" on="0"/>
        <pt x="553" y="116" on="0"/>
        <pt x="494" y="37" on="0"/>
        <pt x="404" y="-10" on="0"/>
      </contour>
      <contour>
        <pt x="333" y="55" on="1"/>
        <pt x="392" y="55" on="0"/>
        <pt x="469" y="117" on="0"/>
        <pt x="508" y="213" on="0"/>
        <pt x="508" y="265" on="1"/>
        <pt x="508" y="317" on="0"/>
        <pt x="469" y="413" on="0"/>
        <pt x="392" y="475" on="0"/>
        <pt x="333" y="475" on="1"/>
        <pt x="275" y="475" on="0"/>
        <pt x="197" y="413" on="0"/>
        <pt x="159" y="317" on="0"/>
        <pt x="159" y="265" on="1"/>
        <pt x="159" y="213" on="0"/>
        <pt x="197" y="117" on="0"/>
        <pt x="275" y="55" on="0"/>
      </contour>
    </TTGlyph>
    <TTGlyph name="backslash" xMin="13" yMin="-140" xMax="432" yMax="822">
      <contour>
        <pt x="432" y="-140" on="1"/>
        <pt x="360" y="-140" on="1"/>
        <pt x="13" y="822" on="1"/>
        <pt x="85" y="822" on="1"/>
      </contour>
    </TTGlyph>
    <TTGlyph name="bar" xMin="163" yMin="-222" xMax="233" yMax="950">
      <contour>
        <pt x="163" y="-222" on="1"/>
        <pt x="163" y="950" on="1"/>
        <pt x="233" y="950" on="1"/>
        <pt x="233" y="-222" on="1"/>
      </contour>
    </TTGlyph>
    <TTGlyph name="braceleft" xMin="27" yMin="-195" xMax="369" yMax="830">
      <contour>
        <pt x="265" y="-195" on="1"/>
        <pt x="199" y="-195" on="0"/>
        <pt x="127" y="-124" on="0"/>
        <pt x="127" y="-58" on="1"/>
        <pt x="127" y="218" on="1"/>
        <pt x="127" y="285" on="0"/>
        <pt x="60" y="285" on="1"/>
        <pt x="27" y="285" on="1"/>
        <pt x="27" y="350" on="1"/>
        <pt x="60" y="350" on="1"/>
        <pt x="127" y="350" on="0"/>
        <pt x="127" y="417" on="1"/>
        <pt x="127" y="693" on="1"/>
        <pt x="127" y="759" on="0"/>
        <pt x="199" y="830" on="0"/>
        <pt x="265" y="830" on="1"/>
        <pt x="369" y="830" on="1"/>
        <pt x="369" y="763" on="1"/>
        <pt x="270" y="763" on="1"/>
        <pt x="203" y="763" on="0"/>
        <pt x="203" y="696" on="1"/>
        <pt x="203" y="420" on="1"/>
        <pt x="203" y="381" on="0"/>
        <pt x="179" y="333" on="0"/>
        <pt x="143" y="319" on="1"/>
        <pt x="143" y="316" on="1"/>
        <pt x="179" y="302" on="0"/>
        <pt x="203" y="252" on="0"/>
        <pt x="203" y="215" on="1"/>
        <pt x="203" y="-61" on="1"/>
        <pt x="203" y="-129" on="0"/>
        <pt x="270" y="-129" on="1"/>
        <pt x="369" y="-129" on="1"/>
        <pt x="369" y="-195" on="1"/>
      </contour>
    </TTGlyph>
</ttFont>
